<svg xmlns="http://www.w3.org/2000/svg" width="1280" height="1280" viewBox="0 0 1280 1280" version="1.1"><path d="M 666.750 376.080 C 665.093 377.045, 665 387.078, 665 564.488 C 665 764.571, 665.200 755.583, 660.444 769.765 C 656.400 781.824, 647.775 794.576, 637.932 803.048 C 627.164 812.316, 619.732 816.352, 602.602 822.234 C 594.143 825.138, 592.581 825.352, 580.500 825.266 C 561.104 825.128, 548.861 821.501, 533.232 811.264 C 525.065 805.915, 515.806 796.362, 511.561 788.906 C 508.644 783.781, 504 772.770, 504 770.979 C 504 770.110, 503.602 768.973, 503.117 768.450 C 501.440 766.647, 499.624 754.463, 499.250 742.504 C 498.763 726.951, 499.967 721.894, 508.059 705.502 C 514.215 693.031, 525.913 681.257, 538.074 675.295 C 551.041 668.936, 561.210 666.380, 576.917 665.531 C 582.646 665.221, 587.933 664.470, 588.667 663.862 C 589.736 662.974, 590 655.060, 590 623.913 L 590 585.070 587.800 583.893 C 586.224 583.049, 581.192 582.901, 570.050 583.371 C 555.287 583.992, 551.515 584.469, 541 587.040 C 538.525 587.645, 534.925 588.499, 533 588.938 C 524.632 590.845, 510.129 596.967, 497.500 603.923 C 484.067 611.322, 463.887 628.797, 454.802 640.899 C 445.802 652.888, 433.951 673.270, 431.749 680.547 C 431.423 681.621, 430.210 685.200, 429.052 688.500 C 424.622 701.125, 424.352 702.168, 422.059 715.500 C 421.585 718.250, 420.678 722.529, 420.041 725.009 C 419.280 727.974, 419.008 736.710, 419.247 750.509 C 419.654 773.970, 420.778 781.224, 426.761 799 C 439.419 836.605, 472.535 872.525, 511.500 890.913 C 516.450 893.249, 521.281 895.574, 522.236 896.080 C 523.191 896.586, 524.852 897, 525.927 897 C 527.002 897, 528.129 897.399, 528.430 897.887 C 528.731 898.374, 530.670 899.090, 532.739 899.476 C 534.808 899.863, 536.950 900.535, 537.500 900.971 C 538.050 901.407, 540.075 902.010, 542 902.312 C 546.326 902.990, 555.091 904.724, 560.764 906.023 C 566.289 907.289, 593.711 907.289, 599.236 906.023 C 604.909 904.724, 613.674 902.990, 618 902.312 C 619.925 902.010, 621.950 901.407, 622.500 900.971 C 623.050 900.535, 625.192 899.863, 627.261 899.476 C 629.330 899.090, 631.269 898.374, 631.570 897.887 C 631.871 897.399, 632.917 897, 633.893 897 C 636.696 897, 659.616 885.053, 669.510 878.436 C 701.129 857.285, 718.673 836.250, 730.756 805 C 731.288 803.625, 732.460 800.797, 733.361 798.716 C 734.263 796.635, 735 793.849, 735 792.525 C 735 791.201, 735.450 789.840, 736 789.500 C 736.550 789.160, 737 787.529, 737 785.875 C 737 784.222, 737.508 781.918, 738.130 780.757 C 739.398 778.388, 740.583 771.048, 741.967 757 C 742.482 751.775, 742.925 699.462, 742.951 640.750 C 743.004 524.759, 742.728 530.022, 748.370 537.419 C 751.234 541.173, 763.461 553.675, 769.139 558.654 C 775.462 564.198, 789.033 572.886, 798 577.130 C 801.575 578.822, 805.625 580.756, 807 581.429 C 808.375 582.101, 811.525 583.227, 814 583.930 C 816.475 584.633, 819.625 585.660, 821 586.212 C 826.242 588.316, 835.110 589.294, 852.480 589.686 C 868.680 590.051, 870.586 589.919, 871.730 588.354 C 873.658 585.717, 873.564 505.153, 871.630 502.508 C 870.750 501.306, 868.331 500.362, 864.880 499.876 C 856.784 498.734, 849.794 497.307, 847 496.224 C 845.625 495.692, 842.700 494.696, 840.500 494.013 C 827.326 489.919, 809.361 480.528, 797.220 471.388 C 790.406 466.258, 779.545 455.515, 773.575 448 C 761.974 433.396, 754.164 417.986, 748.489 398.500 C 747.527 395.200, 746.349 391.466, 745.871 390.203 C 745.392 388.940, 745 386.373, 745 384.500 C 745 379.922, 743.218 376.293, 740.628 375.598 C 736.743 374.556, 668.604 375, 666.750 376.080 M 666.767 569.250 C 666.573 707.951, 666.192 761.187, 665.378 763 C 664.761 764.375, 663.693 767.300, 663.005 769.500 C 654.935 795.304, 631.618 816.616, 602.500 824.802 C 583.837 830.049, 575.601 829.959, 555 824.286 C 530.600 817.566, 511.424 799.646, 502.793 775.500 C 499.320 765.781, 498.256 760.905, 496.874 748.371 C 495.847 739.058, 495.904 736.353, 497.273 729.500 C 499.528 718.201, 500.399 715.176, 503.031 709.500 C 512.164 689.803, 526.622 676.242, 546.500 668.727 C 554.595 665.667, 565.612 663.542, 579.262 662.408 L 587.024 661.763 586.762 623.631 L 586.500 585.500 574 585.669 C 537.089 586.169, 504.098 598.604, 475.081 622.953 C 459.276 636.216, 441.669 661.598, 433.774 682.500 C 413.638 735.811, 417.654 789.279, 444.847 829.932 C 453.921 843.498, 464.115 854.730, 477.708 866.140 C 504.119 888.309, 531.200 899.770, 566 903.508 C 594.178 906.534, 620.973 901.432, 648.500 887.798 C 666.306 878.980, 689.766 861.696, 701.797 848.532 C 717.933 830.876, 730.881 803.739, 736.882 775 C 740.960 755.467, 741 754.148, 741 639.570 C 741 556.706, 741.290 528.939, 742.163 528.399 C 742.840 527.981, 744.406 528.943, 745.913 530.701 C 747.336 532.363, 750.733 536.372, 753.462 539.611 C 765.160 553.495, 782.561 566.936, 799 574.785 C 810.891 580.462, 810.754 580.409, 821 583.380 C 835.676 587.637, 854.910 589.796, 865.371 588.363 L 870.021 587.725 869.761 545.617 L 869.500 503.509 865 502.687 C 857.023 501.229, 839.603 496.737, 836 495.208 C 834.075 494.391, 831.600 493.395, 830.500 492.994 C 814.094 487.017, 790.454 470.910, 777.968 457.201 C 762.954 440.718, 749.838 415.740, 744.518 393.500 C 743.597 389.650, 742.370 384.587, 741.792 382.250 L 740.740 378 703.888 378 L 667.035 378 666.767 569.250" stroke="none" fill="#c0c0c0" fill-rule="evenodd"/><path d="M 615.500 115.994 C 612.750 116.451, 606 116.884, 600.500 116.956 C 595 117.028, 588.475 117.548, 586 118.111 C 583.525 118.674, 577.675 119.507, 573 119.963 C 560.282 121.203, 550.198 122.824, 548.047 123.975 C 546.993 124.539, 543.702 125, 540.732 125 C 537.763 125, 535.003 125.330, 534.599 125.734 C 533.883 126.450, 527.096 128.181, 518 129.968 C 509.158 131.706, 503.485 133.225, 502.550 134.105 C 502.027 134.597, 500.537 135, 499.238 135 C 497.075 135, 489.386 137.062, 484.500 138.953 C 483.400 139.379, 480.025 140.501, 477 141.448 C 473.975 142.395, 470.600 143.519, 469.500 143.946 C 468.400 144.373, 465.700 145.287, 463.500 145.977 C 461.300 146.666, 458.150 147.792, 456.500 148.479 C 454.850 149.166, 451.475 150.511, 449 151.467 C 446.525 152.423, 443.719 153.609, 442.764 154.103 C 441.809 154.596, 440.562 155, 439.994 155 C 437.970 155, 396.527 175.112, 383 182.659 C 368.110 190.966, 342.124 207.786, 330.112 216.892 C 326.043 219.976, 321.494 223.400, 320.002 224.500 C 314.804 228.334, 304.122 237.129, 294.276 245.682 C 285.212 253.555, 255.027 283.690, 246.699 293.180 C 237.645 303.497, 228.721 314.279, 224.500 320.002 C 223.400 321.494, 219.976 326.043, 216.892 330.112 C 208.225 341.545, 191.136 367.844, 183.500 381.500 C 177.042 393.051, 167.799 411.039, 164.488 418.500 C 163.512 420.700, 160.978 426.203, 158.857 430.730 C 156.736 435.256, 155 439.425, 155 439.994 C 155 440.562, 154.596 441.809, 154.103 442.764 C 153.609 443.719, 152.423 446.525, 151.467 449 C 150.511 451.475, 149.166 454.850, 148.479 456.500 C 147.792 458.150, 146.666 461.300, 145.977 463.500 C 145.287 465.700, 144.373 468.400, 143.946 469.500 C 143.519 470.600, 142.395 473.975, 141.448 477 C 140.501 480.025, 139.379 483.400, 138.953 484.500 C 137.020 489.495, 135 497.099, 135 499.379 C 135 500.756, 134.576 502.144, 134.058 502.464 C 133.540 502.785, 132.813 505.067, 132.442 507.536 C 132.072 510.005, 131.371 512.271, 130.885 512.571 C 130.398 512.872, 130 515.090, 130 517.500 C 130 519.910, 129.576 522.144, 129.058 522.464 C 128.540 522.785, 127.841 525.174, 127.507 527.773 C 127.172 530.373, 126.471 533.281, 125.949 534.236 C 125.427 535.191, 125 538.034, 125 540.552 C 125 543.071, 124.571 545.933, 124.047 546.912 C 122.900 549.055, 121.049 561.336, 120.114 573 C 119.739 577.675, 119.064 582.095, 118.613 582.822 C 117.331 584.889, 115.552 618.412, 115.552 640.500 C 115.552 662.865, 117.338 696.151, 118.646 698.178 C 119.116 698.905, 119.786 703.325, 120.136 708 C 121.027 719.920, 122.938 732.325, 124.056 733.450 C 124.575 733.973, 125 736.416, 125 738.879 C 125 741.342, 125.411 744.740, 125.913 746.429 C 127.477 751.687, 129.111 758.313, 130 763 C 131.600 771.441, 133.210 777.499, 134.105 778.450 C 134.597 778.972, 135 780.858, 135 782.641 C 135 784.424, 135.411 786.136, 135.913 786.446 C 136.415 786.757, 137.129 788.806, 137.500 791 C 137.871 793.194, 138.585 795.243, 139.087 795.554 C 139.589 795.864, 140 797.044, 140 798.175 C 140 800.743, 143.236 810.383, 144.250 810.833 C 144.663 811.017, 145 812.239, 145 813.549 C 145 814.860, 145.737 817.635, 146.639 819.716 C 147.540 821.797, 148.611 824.400, 149.019 825.500 C 151.092 831.091, 153.507 837.032, 155.634 841.777 C 156.935 844.680, 158 847.295, 158 847.589 C 158 848.937, 177.069 888.119, 180.316 893.442 C 186.349 903.334, 187.754 905.699, 188.369 907 C 191.401 913.414, 211.702 944.001, 220.890 956 C 252.326 997.052, 290.262 1034.610, 328.026 1062.068 C 341.064 1071.548, 360.827 1085, 361.717 1085 C 362.044 1085, 363.786 1086.125, 365.589 1087.500 C 367.392 1088.875, 369.085 1090, 369.352 1090 C 369.619 1090, 374.261 1092.606, 379.669 1095.791 C 385.076 1098.976, 392.650 1103.136, 396.500 1105.036 C 400.350 1106.935, 403.725 1108.717, 404 1108.995 C 404.552 1109.553, 414.781 1114.484, 419.500 1116.468 C 421.150 1117.161, 424.975 1118.860, 428 1120.243 C 431.025 1121.626, 435.300 1123.509, 437.500 1124.427 C 439.700 1125.345, 442.281 1126.525, 443.236 1127.048 C 444.191 1127.572, 445.570 1128, 446.299 1128 C 447.029 1128, 449.958 1129.125, 452.808 1130.500 C 455.658 1131.875, 458.866 1133, 459.936 1133 C 461.006 1133, 462.139 1133.415, 462.452 1133.923 C 462.766 1134.431, 464.466 1135.163, 466.229 1135.550 C 467.992 1135.937, 470.124 1136.602, 470.967 1137.027 C 471.810 1137.453, 475.200 1138.613, 478.500 1139.606 C 481.800 1140.599, 484.928 1141.768, 485.450 1142.205 C 485.973 1142.642, 487.795 1143, 489.500 1143 C 491.205 1143, 493.027 1143.424, 493.550 1143.943 C 494.501 1144.886, 499.987 1146.457, 507.500 1147.938 C 509.700 1148.371, 512.767 1149.238, 514.315 1149.863 C 515.863 1150.488, 518.424 1151, 520.006 1151 C 521.588 1151, 523.160 1151.450, 523.500 1152 C 523.840 1152.550, 525.612 1153, 527.437 1153 C 529.262 1153, 532.371 1153.675, 534.346 1154.500 C 536.320 1155.325, 540.174 1156, 542.909 1156 C 545.644 1156, 548.160 1156.450, 548.500 1157 C 548.840 1157.550, 551.007 1158, 553.316 1158 C 555.624 1158, 559.085 1158.488, 561.007 1159.084 C 566.040 1160.647, 582.871 1162.227, 623.250 1164.928 C 639.852 1166.039, 644.493 1165.890, 685.500 1162.934 C 706.236 1161.440, 716.645 1160.338, 718.012 1159.492 C 718.740 1159.043, 722.297 1158.318, 725.917 1157.881 C 738.756 1156.332, 746.008 1155.066, 747.926 1154.040 C 748.994 1153.468, 751.447 1153, 753.375 1153 C 755.304 1153, 757.160 1152.550, 757.500 1152 C 757.840 1151.450, 759.779 1150.997, 761.809 1150.994 C 763.839 1150.990, 766.789 1150.315, 768.364 1149.494 C 769.940 1148.672, 772.501 1148, 774.055 1148 C 775.610 1148, 777.160 1147.550, 777.500 1147 C 777.840 1146.450, 779.329 1145.997, 780.809 1145.994 C 782.289 1145.990, 784.789 1145.315, 786.364 1144.494 C 787.940 1143.672, 790.437 1143, 791.914 1143 C 793.391 1143, 795.027 1142.642, 795.550 1142.205 C 796.072 1141.768, 799.200 1140.599, 802.500 1139.606 C 805.800 1138.613, 809.190 1137.453, 810.033 1137.027 C 810.876 1136.602, 813.008 1135.937, 814.771 1135.550 C 816.534 1135.163, 818.234 1134.431, 818.548 1133.923 C 818.861 1133.415, 819.922 1133, 820.905 1133 C 822.537 1133, 826.822 1131.314, 831.236 1128.936 C 832.191 1128.421, 833.660 1128, 834.500 1128 C 835.340 1128, 836.809 1127.572, 837.764 1127.048 C 838.719 1126.525, 841.300 1125.360, 843.500 1124.459 C 845.700 1123.558, 848.694 1122.186, 850.154 1121.410 C 851.614 1120.635, 853.527 1120, 854.404 1120 C 855.282 1120, 856 1119.550, 856 1119 C 856 1118.450, 856.563 1118.003, 857.250 1118.006 C 861.222 1118.025, 900.619 1096.764, 924.169 1081.892 C 933.705 1075.871, 956.716 1059.692, 958 1058.106 C 958.275 1057.766, 961.200 1055.496, 964.500 1053.061 C 967.800 1050.626, 970.725 1048.363, 971 1048.032 C 971.275 1047.702, 972.850 1046.398, 974.500 1045.135 C 993.705 1030.436, 1030.705 992.848, 1049.443 969 C 1053.116 964.325, 1056.779 959.696, 1057.583 958.713 C 1060.452 955.203, 1077 932.220, 1077 931.745 C 1077 931.478, 1079.925 926.885, 1083.500 921.538 C 1087.075 916.191, 1090 911.697, 1090 911.552 C 1090 911.407, 1092.460 907.061, 1095.467 901.894 C 1102.601 889.634, 1118.822 856.928, 1124.427 843.500 C 1125.345 841.300, 1126.525 838.719, 1127.048 837.764 C 1127.572 836.809, 1128 835.415, 1128 834.667 C 1128 833.401, 1129.886 828.807, 1132.064 824.764 C 1132.579 823.809, 1133 822.148, 1133 821.073 C 1133 819.998, 1133.415 818.861, 1133.923 818.548 C 1134.431 818.234, 1135.163 816.534, 1135.550 814.771 C 1135.937 813.008, 1136.602 810.876, 1137.027 810.033 C 1137.453 809.190, 1138.613 805.800, 1139.606 802.500 C 1140.599 799.200, 1141.768 796.073, 1142.205 795.550 C 1142.642 795.028, 1143 793.391, 1143 791.914 C 1143 790.437, 1143.672 787.940, 1144.494 786.364 C 1145.315 784.789, 1145.990 782.289, 1145.994 780.809 C 1145.997 779.329, 1146.450 777.840, 1147 777.500 C 1147.550 777.160, 1148 775.613, 1148 774.063 C 1148 772.513, 1148.675 769.629, 1149.500 767.654 C 1150.325 765.680, 1151 762.726, 1151 761.091 C 1151 759.456, 1151.450 757.840, 1152 757.500 C 1152.550 757.160, 1153.007 755.446, 1153.015 753.691 C 1153.023 751.936, 1153.679 748.700, 1154.471 746.500 C 1155.264 744.300, 1155.932 740.389, 1155.956 737.809 C 1155.980 735.229, 1156.450 732.840, 1157 732.500 C 1157.550 732.160, 1158 729.688, 1158 727.006 C 1158 724.324, 1158.503 720.863, 1159.119 719.315 C 1160.284 716.382, 1161.467 705.892, 1162.931 685.500 C 1166.061 641.916, 1166.122 640.036, 1164.961 623.250 C 1162.070 581.487, 1160.574 564.738, 1159.593 563.151 C 1159.200 562.514, 1158.442 558.732, 1157.909 554.746 C 1157.376 550.761, 1156.572 544.785, 1156.122 541.468 C 1155.672 538.150, 1154.785 534.467, 1154.152 533.283 C 1153.518 532.100, 1153 529.553, 1153 527.625 C 1153 525.696, 1152.550 523.840, 1152 523.500 C 1151.450 523.160, 1151.002 521.446, 1151.005 519.691 C 1151.008 517.936, 1150.364 514.475, 1149.574 512 C 1148.784 509.525, 1147.611 505.475, 1146.966 503 C 1146.321 500.525, 1145.165 496.685, 1144.397 494.467 C 1143.628 492.248, 1143 489.462, 1143 488.276 C 1143 487.089, 1142.550 485.840, 1142 485.500 C 1141.450 485.160, 1140.997 483.896, 1140.994 482.691 C 1140.990 481.486, 1140.315 479.211, 1139.494 477.636 C 1138.672 476.060, 1138 474.142, 1138 473.372 C 1138 472.603, 1137.579 471.191, 1137.065 470.236 C 1136.550 469.281, 1134.689 464.225, 1132.928 459 C 1131.168 453.775, 1129.338 449.072, 1128.864 448.550 C 1128.389 448.027, 1128 447.013, 1128 446.295 C 1128 445.577, 1126.875 442.658, 1125.500 439.808 C 1124.125 436.958, 1123 434.287, 1123 433.872 C 1123 432.880, 1115.883 417.360, 1111.365 408.500 C 1105.774 397.536, 1099.005 384.690, 1097.694 382.558 C 1097.037 381.491, 1095.037 378.250, 1093.250 375.356 C 1091.462 372.463, 1090 369.819, 1090 369.481 C 1090 369.143, 1088.875 367.392, 1087.500 365.589 C 1086.125 363.786, 1085 362.061, 1085 361.755 C 1085 360.783, 1068.775 336.886, 1061.063 326.500 C 1034.896 291.257, 1002.249 257.601, 967.114 229.646 C 962.376 225.876, 957.600 222.051, 956.500 221.146 C 955.399 220.241, 953.232 218.683, 951.684 217.684 C 950.135 216.685, 948.110 215.242, 947.184 214.477 C 941.037 209.402, 907.767 188, 906.024 188 C 905.461 188, 905 187.602, 905 187.117 C 905 186.631, 904.212 185.980, 903.250 185.670 C 902.288 185.360, 899.250 183.770, 896.500 182.137 C 893.750 180.504, 884.075 175.469, 875 170.949 C 851.186 159.088, 848.912 158, 847.935 158 C 847.451 158, 844.680 156.935, 841.777 155.634 C 837.032 153.507, 831.091 151.092, 825.500 149.019 C 824.400 148.611, 821.797 147.540, 819.716 146.639 C 817.635 145.737, 814.822 145, 813.466 145 C 812.110 145, 810.996 144.662, 810.991 144.250 C 810.987 143.838, 808.174 142.680, 804.741 141.677 C 801.309 140.675, 797.808 139.493, 796.962 139.051 C 796.115 138.609, 793.530 137.927, 791.217 137.537 C 788.903 137.146, 786.757 136.415, 786.446 135.913 C 786.136 135.411, 784.552 135, 782.927 135 C 781.302 135, 779.191 134.582, 778.236 134.072 C 774.970 132.327, 766.128 130, 762.762 130 C 760.913 130, 758.973 129.573, 758.450 129.052 C 757.348 127.952, 747.947 126.046, 740 125.311 C 736.975 125.031, 734.033 124.421, 733.463 123.956 C 732.182 122.909, 719.353 120.985, 708 120.136 C 703.325 119.786, 698.888 119.106, 698.141 118.623 C 695 116.598, 625.226 114.378, 615.500 115.994 M 666.750 376.080 C 665.093 377.045, 665 387.078, 665 564.488 C 665 764.571, 665.200 755.583, 660.444 769.765 C 656.400 781.824, 647.775 794.576, 637.932 803.048 C 627.164 812.316, 619.732 816.352, 602.602 822.234 C 594.143 825.138, 592.581 825.352, 580.500 825.266 C 561.104 825.128, 548.861 821.501, 533.232 811.264 C 525.065 805.915, 515.806 796.362, 511.561 788.906 C 508.644 783.781, 504 772.770, 504 770.979 C 504 770.110, 503.602 768.973, 503.117 768.450 C 501.440 766.647, 499.624 754.463, 499.250 742.504 C 498.763 726.951, 499.967 721.894, 508.059 705.502 C 514.215 693.031, 525.913 681.257, 538.074 675.295 C 551.041 668.936, 561.210 666.380, 576.917 665.531 C 582.646 665.221, 587.933 664.470, 588.667 663.862 C 589.736 662.974, 590 655.060, 590 623.913 L 590 585.070 587.800 583.893 C 586.224 583.049, 581.192 582.901, 570.050 583.371 C 555.287 583.992, 551.515 584.469, 541 587.040 C 538.525 587.645, 534.925 588.499, 533 588.938 C 524.632 590.845, 510.129 596.967, 497.500 603.923 C 484.067 611.322, 463.887 628.797, 454.802 640.899 C 445.802 652.888, 433.951 673.270, 431.749 680.547 C 431.423 681.621, 430.210 685.200, 429.052 688.500 C 424.622 701.125, 424.352 702.168, 422.059 715.500 C 421.585 718.250, 420.678 722.529, 420.041 725.009 C 419.280 727.974, 419.008 736.710, 419.247 750.509 C 419.654 773.970, 420.778 781.224, 426.761 799 C 439.419 836.605, 472.535 872.525, 511.500 890.913 C 516.450 893.249, 521.281 895.574, 522.236 896.080 C 523.191 896.586, 524.852 897, 525.927 897 C 527.002 897, 528.129 897.399, 528.430 897.887 C 528.731 898.374, 530.670 899.090, 532.739 899.476 C 534.808 899.863, 536.950 900.535, 537.500 900.971 C 538.050 901.407, 540.075 902.010, 542 902.312 C 546.326 902.990, 555.091 904.724, 560.764 906.023 C 566.289 907.289, 593.711 907.289, 599.236 906.023 C 604.909 904.724, 613.674 902.990, 618 902.312 C 619.925 902.010, 621.950 901.407, 622.500 900.971 C 623.050 900.535, 625.192 899.863, 627.261 899.476 C 629.330 899.090, 631.269 898.374, 631.570 897.887 C 631.871 897.399, 632.917 897, 633.893 897 C 636.696 897, 659.616 885.053, 669.510 878.436 C 701.129 857.285, 718.673 836.250, 730.756 805 C 731.288 803.625, 732.460 800.797, 733.361 798.716 C 734.263 796.635, 735 793.849, 735 792.525 C 735 791.201, 735.450 789.840, 736 789.500 C 736.550 789.160, 737 787.529, 737 785.875 C 737 784.222, 737.508 781.918, 738.130 780.757 C 739.398 778.388, 740.583 771.048, 741.967 757 C 742.482 751.775, 742.925 699.462, 742.951 640.750 C 743.004 524.759, 742.728 530.022, 748.370 537.419 C 751.234 541.173, 763.461 553.675, 769.139 558.654 C 775.462 564.198, 789.033 572.886, 798 577.130 C 801.575 578.822, 805.625 580.756, 807 581.429 C 808.375 582.101, 811.525 583.227, 814 583.930 C 816.475 584.633, 819.625 585.660, 821 586.212 C 826.242 588.316, 835.110 589.294, 852.480 589.686 C 868.680 590.051, 870.586 589.919, 871.730 588.354 C 873.658 585.717, 873.564 505.153, 871.630 502.508 C 870.750 501.306, 868.331 500.362, 864.880 499.876 C 856.784 498.734, 849.794 497.307, 847 496.224 C 845.625 495.692, 842.700 494.696, 840.500 494.013 C 827.326 489.919, 809.361 480.528, 797.220 471.388 C 790.406 466.258, 779.545 455.515, 773.575 448 C 761.974 433.396, 754.164 417.986, 748.489 398.500 C 747.527 395.200, 746.349 391.466, 745.871 390.203 C 745.392 388.940, 745 386.373, 745 384.500 C 745 379.922, 743.218 376.293, 740.628 375.598 C 736.743 374.556, 668.604 375, 666.750 376.080" stroke="none" fill="#fbfbfb" fill-rule="evenodd"/></svg>