<svg xmlns="http://www.w3.org/2000/svg" width="1280" height="1280" viewBox="0 0 1280 1280" version="1.1"><path d="M 603.020 120.819 C 600.555 120.994, 597.882 121.669, 597.078 122.319 C 595.908 123.264, 595.783 123.223, 596.450 122.115 C 597.139 120.972, 596.429 120.864, 592.392 121.494 C 589.702 121.914, 586.150 122.383, 584.500 122.536 C 582.850 122.689, 580.375 123.099, 579 123.446 C 577.625 123.794, 574.025 124.291, 571 124.552 C 567.975 124.812, 564.150 125.244, 562.500 125.511 C 560.850 125.778, 559.050 126.036, 558.500 126.083 C 557.950 126.131, 556.851 126.694, 556.058 127.335 C 554.981 128.205, 554.792 128.207, 555.309 127.343 C 555.774 126.569, 555.345 126.359, 554.013 126.707 C 552.864 127.007, 552.310 127.708, 552.703 128.364 C 553.078 128.989, 552.644 128.900, 551.740 128.167 C 550.836 127.434, 549.210 127.116, 548.128 127.459 C 547.045 127.803, 545.188 128.271, 544 128.500 C 542.812 128.729, 540.931 129.204, 539.821 129.557 C 538.710 129.910, 536.833 130.343, 535.650 130.520 C 534.468 130.697, 532.375 131.112, 531 131.442 C 529.625 131.771, 526.475 132.289, 524 132.592 C 521.525 132.896, 519.366 133.514, 519.202 133.966 C 519.038 134.418, 517.955 134.540, 516.796 134.236 C 515.232 133.827, 514.897 134.024, 515.498 134.997 C 515.978 135.774, 515.916 136.066, 515.344 135.713 C 514.462 135.167, 507.613 136.392, 504 137.742 C 502.086 138.457, 501.081 138.726, 498 139.347 C 496.625 139.624, 495.387 139.941, 495.250 140.051 C 495.113 140.160, 494.663 140.326, 494.250 140.420 C 490.526 141.261, 486.225 143.561, 486.745 144.432 C 487.096 145.019, 486.694 144.941, 485.850 144.259 C 485.006 143.576, 484.003 143.330, 483.620 143.713 C 483.237 144.096, 481.712 144.571, 480.231 144.770 C 478.750 144.968, 477.254 145.589, 476.907 146.151 C 476.560 146.712, 475.877 147.109, 475.388 147.034 C 474.900 146.959, 473.600 147.191, 472.500 147.551 C 471.400 147.910, 469.624 148.394, 468.552 148.626 C 467.481 148.858, 465.906 149.653, 465.052 150.393 C 464.199 151.133, 462.905 151.525, 462.179 151.262 C 461.452 151, 459.665 151.846, 458.209 153.143 C 456.752 154.439, 456.173 154.702, 456.922 153.727 C 458.107 152.183, 458.071 152.035, 456.641 152.584 C 455.739 152.931, 455 153.691, 455 154.274 C 455 154.856, 454.704 155.037, 454.342 154.675 C 453.980 154.313, 453.080 154.519, 452.342 155.131 C 451.604 155.744, 451 155.895, 451 155.467 C 451 155.040, 450.023 155.547, 448.828 156.595 C 447.453 157.801, 446.966 157.950, 447.500 157 C 448.010 156.094, 447.416 156.292, 446 157.500 C 444.711 158.600, 443.992 158.926, 444.402 158.225 C 444.815 157.520, 443.538 157.855, 441.544 158.975 C 439.561 160.089, 437.278 161, 436.470 161 C 435.661 161, 435 161.477, 435 162.059 C 435 162.641, 434.650 162.902, 434.223 162.638 C 433.795 162.373, 430.533 163.546, 426.973 165.243 C 423.413 166.940, 419.862 168.451, 419.082 168.600 C 418.302 168.750, 416.408 169.801, 414.872 170.936 C 413.337 172.071, 411.388 173, 410.540 173 C 409.693 173, 409 173.477, 409 174.059 C 409 174.641, 408.586 174.862, 408.081 174.550 C 407.575 174.237, 406.504 174.639, 405.700 175.443 C 404.896 176.247, 404.024 176.690, 403.762 176.428 C 403.499 176.166, 402.716 176.638, 402.020 177.476 C 401.324 178.314, 399.910 179, 398.878 179 C 397.845 179, 397 179.477, 397 180.059 C 397 180.641, 396.586 180.862, 396.081 180.550 C 395.575 180.237, 394.450 180.693, 393.581 181.562 C 392.711 182.432, 392 182.816, 392 182.416 C 392 182.017, 391.213 182.346, 390.250 183.147 C 389.288 183.949, 386.363 185.664, 383.750 186.959 C 381.137 188.255, 379 189.584, 379 189.913 C 379 190.242, 377.538 191.136, 375.750 191.898 C 373.962 192.661, 371.478 194.208, 370.228 195.337 C 368.979 196.466, 367.191 197.501, 366.256 197.639 C 365.320 197.776, 364.092 198.521, 363.527 199.293 C 362.962 200.066, 362.275 200.725, 362 200.757 C 359.913 201, 356.183 203.488, 356.686 204.301 C 357.029 204.855, 356.826 205.010, 356.235 204.645 C 355.644 204.280, 354.370 204.773, 353.402 205.741 C 352.434 206.708, 351.288 207.500, 350.854 207.500 C 350.420 207.500, 349.145 208.287, 348.021 209.250 C 346.897 210.213, 345.611 211, 345.163 211 C 344.715 211, 343.292 212.125, 342 213.500 C 340.708 214.875, 339.081 216, 338.385 216 C 337.688 216, 336.797 216.520, 336.405 217.155 C 335.932 217.918, 336.134 218.035, 337 217.500 C 337.873 216.961, 338.068 217.081, 337.585 217.862 C 337.187 218.506, 336.393 218.743, 335.819 218.388 C 335.246 218.034, 334.489 218.149, 334.138 218.645 C 333.787 219.141, 332.248 220.343, 330.718 221.317 C 329.153 222.313, 328.236 223.574, 328.623 224.198 C 329.042 224.878, 328.853 225.027, 328.134 224.583 C 326.832 223.778, 320.334 228.770, 320.775 230.235 C 320.926 230.738, 320.670 230.914, 320.207 230.628 C 319.743 230.341, 318.177 231.208, 316.726 232.554 C 315.275 233.899, 313.730 235.005, 313.294 235.010 C 312.857 235.016, 310.216 237.153, 307.425 239.760 C 304.634 242.367, 301.484 245.021, 300.425 245.657 C 299.366 246.293, 298.624 247.339, 298.775 247.981 C 298.926 248.623, 298.647 248.900, 298.154 248.595 C 297.661 248.291, 293.320 251.857, 288.508 256.521 C 283.695 261.184, 279.347 265, 278.847 265 C 278.347 265, 277.639 265.788, 277.275 266.750 C 276.417 269.015, 274.439 271, 273.040 271 C 272.433 271, 271.639 271.788, 271.275 272.750 C 270.417 275.015, 268.439 277, 267.040 277 C 266.433 277, 265.650 277.748, 265.300 278.662 C 264.949 279.575, 263.112 281.785, 261.217 283.573 C 259.052 285.615, 258.057 287.284, 258.541 288.066 C 259.044 288.880, 258.899 289.056, 258.120 288.574 C 257.034 287.903, 245.135 299.391, 245.038 301.205 C 245.017 301.592, 243.851 303.058, 242.446 304.463 C 241.035 305.874, 240.209 307.529, 240.601 308.163 C 240.999 308.808, 240.871 309.038, 240.308 308.690 C 239.757 308.350, 238.028 309.405, 236.466 311.036 C 234.904 312.666, 234.035 314, 234.535 314 C 235.036 314, 234.482 314.675, 233.305 315.499 C 232.127 316.324, 230.133 318.686, 228.874 320.749 C 227.614 322.812, 225.933 324.994, 225.139 325.598 C 224.344 326.202, 224.022 327.226, 224.422 327.873 C 224.837 328.545, 224.648 328.932, 223.981 328.775 C 223.339 328.624, 222.293 329.350, 221.657 330.388 C 221.021 331.427, 219.496 333.396, 218.269 334.764 C 217.042 336.132, 216.243 337.585, 216.495 337.992 C 216.747 338.399, 216.011 339.580, 214.860 340.616 C 212.065 343.132, 206.313 351.529, 208.096 350.491 C 208.868 350.041, 208.237 350.873, 206.694 352.341 C 205.029 353.924, 204.179 355.516, 204.604 356.254 C 204.998 356.939, 204.956 357.170, 204.510 356.767 C 203.658 355.995, 197 365.594, 197 367.594 C 197 368.233, 196.317 369.322, 195.482 370.015 C 194.646 370.708, 193.199 372.901, 192.264 374.888 C 191.330 376.874, 189.763 379.372, 188.783 380.439 C 187.802 381.505, 187 382.751, 187 383.208 C 187 383.666, 185.869 385.831, 184.487 388.020 C 183.106 390.209, 182.238 392, 182.559 392 C 182.880 392, 182.432 392.711, 181.562 393.581 C 180.693 394.450, 180.237 395.575, 180.550 396.081 C 180.862 396.586, 180.641 397, 180.059 397 C 179.477 397, 179 397.845, 179 398.878 C 179 399.910, 178.330 401.311, 177.511 401.991 C 176.692 402.671, 176.245 403.587, 176.517 404.028 C 176.790 404.469, 176.593 404.980, 176.081 405.165 C 175.569 405.349, 175.004 406.175, 174.825 407 C 174.646 407.825, 174.192 408.733, 173.815 409.019 C 173.439 409.304, 172.968 410.750, 172.770 412.231 C 172.571 413.712, 172.020 415.279, 171.544 415.712 C 171.069 416.145, 171.003 415.938, 171.399 415.250 C 171.794 414.563, 171.878 414, 171.585 414 C 171.291 414, 170.353 415.350, 169.500 417 C 168.647 418.650, 168.240 420, 168.597 420 C 168.953 420, 168.744 420.604, 168.131 421.342 C 167.519 422.080, 167.313 422.980, 167.675 423.342 C 168.037 423.704, 167.895 424, 167.359 424 C 166.319 424, 162.667 431.562, 162.667 433.714 C 162.667 434.421, 162.292 435, 161.833 435 C 161.375 435, 161 435.661, 161 436.470 C 161 437.278, 160.108 439.528, 159.017 441.470 C 157.926 443.411, 157.307 445, 157.640 445 C 157.972 445, 157.627 445.761, 156.872 446.692 C 155.689 448.151, 155.707 448.265, 157 447.520 C 157.937 446.980, 157.786 447.471, 156.595 448.828 C 155.547 450.023, 155.040 451, 155.467 451 C 155.895 451, 155.685 451.675, 155 452.500 C 154.315 453.325, 154.105 454, 154.533 454 C 154.960 454, 154.511 454.883, 153.534 455.963 C 152.555 457.044, 152.031 458.639, 152.367 459.515 C 152.720 460.434, 152.560 460.846, 151.989 460.493 C 151.445 460.157, 150.944 460.584, 150.875 461.441 C 150.715 463.434, 150.576 463.911, 149.166 467.315 C 148.525 468.863, 148 470.749, 148 471.506 C 148 472.263, 147.519 473.179, 146.932 473.542 C 146.344 473.905, 146.084 474.777, 146.354 475.479 C 146.623 476.182, 146.442 477.158, 145.950 477.650 C 145.459 478.141, 144.906 479.534, 144.721 480.746 C 144.536 481.957, 144.073 483.260, 143.692 483.641 C 143.312 484.022, 142.997 485.271, 142.994 486.417 C 142.990 487.563, 142.299 489.820, 141.458 491.434 C 140.616 493.048, 140.164 494.984, 140.452 495.736 C 140.741 496.488, 140.532 496.829, 139.989 496.493 C 139.445 496.157, 138.966 496.921, 138.923 498.191 C 138.838 500.781, 138.568 502.073, 137.135 506.750 C 136.588 508.537, 136.345 510, 136.595 510 C 136.846 510, 136.448 511.238, 135.711 512.750 C 134.974 514.263, 134.415 516.175, 134.469 517 C 134.523 517.825, 134.267 518.725, 133.900 519 C 133.533 519.275, 132.968 521.300, 132.645 523.500 C 132.322 525.700, 131.780 529.075, 131.440 531 C 131.100 532.925, 130.705 535.400, 130.561 536.500 C 130.418 537.600, 129.952 539.307, 129.527 540.293 C 129.101 541.279, 129.030 542.363, 129.368 542.701 C 129.706 543.039, 129.486 543.914, 128.879 544.645 C 128.273 545.376, 128.046 546.679, 128.377 547.539 C 128.722 548.439, 128.557 548.844, 127.989 548.493 C 126.563 547.612, 126.770 550.353, 128.250 551.947 C 128.983 552.736, 129.030 553.030, 128.364 552.658 C 127.729 552.303, 126.998 552.900, 126.707 554.013 C 126.359 555.345, 126.569 555.774, 127.343 555.309 C 128.207 554.792, 128.205 554.981, 127.335 556.058 C 126.694 556.851, 126.173 557.725, 126.177 558 C 126.181 558.275, 125.924 560.075, 125.605 562 C 125.286 563.925, 124.812 567.975, 124.552 571 C 124.035 577.008, 123.570 579.494, 122.416 582.414 C 121.827 583.905, 121.974 584.139, 123.080 583.472 C 124.291 582.742, 124.298 582.865, 123.132 584.302 C 122.380 585.230, 121.980 587.116, 122.244 588.494 C 122.507 589.872, 122.329 591, 121.848 591 C 121.367 591, 121.092 595.232, 121.237 600.405 C 121.381 605.578, 121.235 609.646, 120.911 609.446 C 120.587 609.245, 120.321 623.220, 120.319 640.502 C 120.317 661.117, 120.659 671.711, 121.313 671.307 C 121.914 670.935, 121.990 671.207, 121.505 671.992 C 120.594 673.466, 120.811 687.885, 121.768 689.433 C 122.111 689.989, 122.273 692.099, 122.127 694.120 C 121.981 696.142, 122.323 698.082, 122.887 698.430 C 123.451 698.779, 123.659 699.725, 123.349 700.532 C 123.040 701.339, 123.210 702, 123.728 702 C 124.247 702, 124.664 703.688, 124.656 705.750 C 124.626 713.513, 125.027 717.101, 125.869 716.581 C 126.347 716.286, 126.593 718.298, 126.416 721.052 C 126.239 723.806, 126.429 725.853, 126.838 725.600 C 127.247 725.347, 127.402 726.684, 127.182 728.570 C 126.956 730.498, 127.228 732, 127.802 732 C 128.364 732, 128.696 732.788, 128.540 733.750 C 128.384 734.712, 128.762 736.149, 129.378 736.942 C 130.251 738.064, 130.204 738.206, 129.167 737.582 C 128.192 736.995, 128.265 737.612, 129.438 739.879 C 130.319 741.584, 131.031 743.209, 131.020 743.490 C 130.836 748.134, 131.169 751.013, 131.844 750.597 C 132.308 750.310, 132.614 751.296, 132.525 752.788 C 132.334 755.970, 133.469 761.564, 135.130 765.623 C 136.639 769.312, 137.055 770.972, 137.163 773.750 C 137.211 774.987, 137.585 776, 137.995 776 C 138.404 776, 138.686 777.012, 138.620 778.250 C 138.542 779.709, 138.999 780.392, 139.919 780.194 C 141.120 779.934, 141.130 780.139, 139.984 781.520 C 138.897 782.829, 138.880 783.308, 139.900 783.938 C 140.599 784.370, 141.050 784.898, 140.903 785.112 C 140.756 785.325, 140.990 786.625, 141.423 788 C 141.857 789.375, 142.418 791.617, 142.671 792.981 C 142.923 794.346, 143.454 795.696, 143.849 795.981 C 144.244 796.267, 144.572 797.400, 144.579 798.500 C 144.586 799.674, 145.158 800.373, 145.965 800.194 C 147.025 799.957, 147.077 800.202, 146.193 801.267 C 145.331 802.306, 145.338 802.938, 146.224 803.824 C 146.871 804.471, 147.030 805, 146.578 805 C 146.125 805, 146.357 805.725, 147.092 806.611 C 147.827 807.496, 148.586 809.400, 148.779 810.842 C 148.972 812.283, 149.439 813.696, 149.815 813.981 C 150.192 814.267, 150.659 815.625, 150.853 817 C 151.047 818.375, 151.497 819.725, 151.853 820 C 152.209 820.275, 152.600 820.950, 152.722 821.500 C 153.624 825.558, 159.100 839.444, 160.023 840.014 C 160.654 840.404, 161.132 841.011, 161.085 841.362 C 160.773 843.695, 161.137 845.033, 161.948 844.532 C 162.469 844.210, 162.721 844.853, 162.507 845.962 C 162.294 847.070, 162.784 848.641, 163.595 849.453 C 164.407 850.264, 165.168 851.282, 165.286 851.714 C 165.404 852.146, 165.810 852.397, 166.189 852.270 C 166.567 852.144, 166.707 852.926, 166.498 854.009 C 166.290 855.091, 166.784 856.641, 167.595 857.453 C 168.407 858.264, 169.055 859.170, 169.036 859.464 C 168.851 862.233, 169.152 863.024, 170.155 862.405 C 170.918 861.933, 171.035 862.134, 170.502 862.997 C 169.993 863.820, 170.377 864.803, 171.538 865.652 C 172.553 866.393, 173.016 867, 172.569 867 C 172.121 867, 172.222 867.563, 172.793 868.250 C 173.363 868.938, 173.909 869.950, 174.006 870.500 C 174.488 873.237, 177.029 878, 178.008 878 C 178.619 878, 178.904 878.346, 178.643 878.769 C 177.891 879.986, 181.539 887.119, 182.477 886.266 C 182.941 885.845, 182.955 886.131, 182.508 886.902 C 181.980 887.811, 182.342 888.777, 183.538 889.652 C 184.553 890.393, 184.993 891, 184.517 891 C 184.041 891, 184.742 892.198, 186.076 893.661 C 187.409 895.125, 187.873 895.958, 187.106 895.513 C 185.185 894.398, 188.758 900.424, 192 903.767 C 193.375 905.185, 193.825 905.965, 193 905.501 C 191.709 904.774, 191.715 904.924, 193.043 906.578 C 193.892 907.635, 195.205 909.738, 195.962 911.250 C 196.719 912.763, 197.738 914, 198.228 914 C 198.718 914, 198.858 914.421, 198.540 914.935 C 198.222 915.450, 198.983 916.933, 200.231 918.231 C 201.479 919.529, 202.649 921.245, 202.831 922.045 C 203.013 922.845, 203.810 923.865, 204.602 924.311 C 205.394 924.758, 205.823 925.477, 205.556 925.910 C 205.288 926.343, 205.954 927.646, 207.035 928.807 C 208.116 929.967, 209 931.285, 209 931.735 C 209 932.186, 210.238 933.915, 211.750 935.578 C 213.263 937.242, 215.400 940.303, 216.500 942.380 C 217.600 944.458, 220.300 948.012, 222.500 950.278 C 224.700 952.543, 225.825 953.995, 225 953.503 C 224.175 953.011, 224.962 954.287, 226.750 956.339 C 228.537 958.391, 230 960.392, 230 960.787 C 230 961.181, 232.025 963.679, 234.500 966.336 C 236.975 968.994, 239 971.502, 239 971.910 C 239 973.325, 243.653 977.014, 244.485 976.259 C 244.944 975.842, 245.021 976.023, 244.655 976.663 C 243.918 977.951, 252.618 988.648, 254.080 988.250 C 254.586 988.112, 254.888 988.562, 254.750 989.250 C 254.613 989.937, 255.063 990.387, 255.750 990.250 C 256.438 990.112, 256.888 990.441, 256.750 990.979 C 256.399 992.355, 289.107 1025.052, 290.175 1024.392 C 290.656 1024.095, 290.926 1024.294, 290.775 1024.835 C 290.434 1026.058, 304.105 1038.053, 305.123 1037.424 C 305.529 1037.173, 306.187 1037.494, 306.585 1038.138 C 307.080 1038.939, 306.865 1039.041, 305.905 1038.463 C 304.708 1037.742, 304.704 1037.867, 305.872 1039.308 C 306.627 1040.239, 307.701 1041, 308.258 1041 C 308.815 1041, 310.318 1042.130, 311.597 1043.510 C 312.877 1044.891, 315.093 1046.465, 316.522 1047.008 C 317.951 1047.552, 318.842 1048.447, 318.501 1048.998 C 318.161 1049.549, 318.546 1050, 319.358 1050 C 320.169 1050, 320.992 1050.475, 321.185 1051.054 C 321.378 1051.634, 322.303 1052.221, 323.239 1052.359 C 324.176 1052.496, 325.293 1052.994, 325.721 1053.465 C 326.153 1053.939, 325.831 1053.941, 325 1053.468 C 323.707 1052.734, 323.689 1052.849, 324.872 1054.308 C 325.627 1055.239, 326.672 1056, 327.194 1056 C 327.716 1056, 328.822 1056.679, 329.652 1057.509 C 330.482 1058.339, 331.644 1058.720, 332.235 1058.355 C 332.845 1057.978, 333.021 1058.157, 332.643 1058.769 C 331.983 1059.836, 336.383 1063.592, 338.993 1064.190 C 339.737 1064.361, 341.927 1065.953, 343.860 1067.730 C 345.792 1069.506, 347.553 1070.780, 347.773 1070.561 C 347.992 1070.342, 349.294 1071.138, 350.666 1072.331 C 352.038 1073.524, 353.411 1074.349, 353.718 1074.165 C 354.025 1073.980, 354.552 1074.208, 354.888 1074.670 C 356.080 1076.308, 362.919 1081.027, 363.723 1080.765 C 364.172 1080.619, 365.627 1081.513, 366.958 1082.750 C 368.288 1083.988, 369.819 1085, 370.360 1085 C 370.900 1085, 372.243 1085.787, 373.343 1086.750 C 374.789 1088.015, 375.114 1088.084, 374.517 1087 C 374.063 1086.175, 375.110 1086.822, 376.845 1088.437 C 378.580 1090.052, 380 1090.979, 380 1090.496 C 380 1090.013, 380.607 1090.447, 381.348 1091.462 C 382.197 1092.623, 383.180 1093.007, 384.003 1092.498 C 384.820 1091.993, 385.066 1092.084, 384.660 1092.741 C 383.957 1093.879, 386.670 1095.322, 387.985 1094.509 C 388.428 1094.235, 389.041 1094.664, 389.346 1095.461 C 389.926 1096.971, 398 1101.548, 398 1100.365 C 398 1099.994, 398.900 1100.505, 400 1101.500 C 401.100 1102.495, 402.007 1102.903, 402.015 1102.405 C 402.024 1101.907, 402.365 1102.026, 402.775 1102.670 C 403.184 1103.313, 404.179 1103.988, 404.986 1104.170 C 405.792 1104.351, 407.062 1105.067, 407.807 1105.759 C 408.552 1106.452, 409.544 1106.782, 410.012 1106.493 C 410.479 1106.204, 411.146 1106.428, 411.494 1106.991 C 411.842 1107.554, 413.561 1108.756, 415.313 1109.662 C 417.863 1110.980, 418.300 1111.019, 417.500 1109.857 C 416.796 1108.836, 416.945 1108.864, 418 1109.953 C 420.236 1112.259, 426.966 1115.131, 428.319 1114.356 C 428.968 1113.984, 429.169 1114.045, 428.765 1114.491 C 427.968 1115.372, 432.090 1117.827, 435.429 1118.459 C 436.568 1118.675, 437.613 1118.941, 437.750 1119.051 C 437.887 1119.160, 438.450 1119.362, 439 1119.500 C 439.550 1119.638, 440.337 1119.860, 440.750 1119.993 C 441.163 1120.127, 441.871 1120.172, 442.324 1120.094 C 442.778 1120.015, 442.877 1120.390, 442.545 1120.928 C 442.213 1121.465, 444.092 1122.572, 446.720 1123.387 C 449.349 1124.203, 453.809 1125.777, 456.632 1126.886 C 459.455 1127.995, 462.042 1128.624, 462.382 1128.284 C 462.722 1127.945, 463 1128.240, 463 1128.940 C 463 1129.662, 463.651 1129.964, 464.500 1129.638 C 465.325 1129.322, 466 1129.450, 466 1129.923 C 466 1130.396, 467.238 1131.133, 468.750 1131.560 C 472.196 1132.534, 472.137 1132.513, 474.293 1133.460 C 475.279 1133.893, 476.368 1133.966, 476.712 1133.621 C 477.056 1133.277, 478.145 1133.726, 479.132 1134.619 C 480.118 1135.512, 481.588 1135.988, 482.398 1135.677 C 483.208 1135.367, 484.012 1135.509, 484.185 1135.995 C 484.358 1136.480, 485.850 1137.093, 487.500 1137.356 C 489.150 1137.620, 490.613 1137.929, 490.750 1138.043 C 490.887 1138.157, 491.337 1138.322, 491.750 1138.410 C 492.163 1138.499, 493.541 1139.149, 494.814 1139.855 C 496.488 1140.784, 497.488 1140.840, 498.431 1140.057 C 499.385 1139.265, 500.052 1139.357, 500.917 1140.400 C 501.980 1141.681, 510.602 1144.321, 513.750 1144.330 C 514.438 1144.332, 515 1144.756, 515 1145.274 C 515 1145.791, 515.661 1145.960, 516.468 1145.651 C 517.275 1145.341, 518.215 1145.539, 518.557 1146.092 C 518.898 1146.644, 519.925 1147.022, 520.839 1146.933 C 521.752 1146.843, 522.725 1146.856, 523 1146.961 C 524.020 1147.352, 527.604 1148.088, 531 1148.603 C 536.279 1149.404, 538.473 1149.811, 538.750 1150.042 C 538.888 1150.156, 539.450 1150.362, 540 1150.500 C 540.550 1150.638, 541.112 1150.868, 541.250 1151.011 C 541.388 1151.155, 542.865 1151.349, 544.532 1151.443 C 546.200 1151.536, 548 1151.855, 548.532 1152.151 C 549.065 1152.447, 550.721 1152.605, 552.212 1152.501 C 553.704 1152.398, 554.692 1152.689, 554.407 1153.150 C 554.123 1153.610, 554.927 1153.919, 556.195 1153.836 C 558.545 1153.683, 566.094 1154.603, 571.500 1155.702 C 573.150 1156.037, 576.370 1156.354, 578.655 1156.406 C 580.939 1156.458, 582.600 1156.837, 582.345 1157.250 C 581.876 1158.009, 583.862 1158.160, 598.760 1158.498 C 603.302 1158.601, 607.302 1158.969, 607.648 1159.314 C 608.418 1160.085, 672.505 1160.162, 673.273 1159.393 C 673.576 1159.091, 679.116 1158.666, 685.586 1158.449 C 692.055 1158.232, 697.608 1157.656, 697.924 1157.169 C 698.241 1156.682, 699.366 1156.416, 700.425 1156.579 C 701.483 1156.741, 704.408 1156.448, 706.925 1155.928 C 709.441 1155.407, 714.409 1154.735, 717.965 1154.434 C 721.521 1154.133, 724.896 1153.520, 725.465 1153.072 C 726.034 1152.624, 727.400 1152.414, 728.500 1152.606 C 729.600 1152.798, 731.175 1152.680, 732 1152.342 C 733.423 1151.761, 734.382 1151.619, 739.809 1151.185 C 741.079 1151.083, 741.843 1150.555, 741.507 1150.011 C 741.156 1149.443, 741.561 1149.278, 742.461 1149.623 C 743.321 1149.954, 744.582 1149.781, 745.263 1149.240 C 745.943 1148.699, 747.400 1148.401, 748.500 1148.578 C 749.600 1148.754, 751.568 1148.200, 752.873 1147.346 C 754.398 1146.348, 754.965 1146.248, 754.459 1147.066 C 753.893 1147.982, 754.162 1148.152, 755.418 1147.670 C 756.378 1147.301, 757.378 1147, 757.641 1147 C 757.903 1147, 757.780 1146.438, 757.367 1145.750 C 756.785 1144.782, 756.941 1144.762, 758.058 1145.661 C 759.632 1146.929, 765.297 1146.289, 764.462 1144.938 C 764.178 1144.480, 764.746 1144.252, 765.723 1144.432 C 766.700 1144.613, 768.625 1144.302, 770 1143.741 C 771.375 1143.181, 774.046 1142.564, 775.935 1142.371 C 777.824 1142.178, 779.624 1141.663, 779.935 1141.226 C 780.246 1140.790, 781.288 1140.392, 782.250 1140.342 C 786.520 1140.118, 787.083 1139.943, 786.507 1139.011 C 786.171 1138.468, 786.517 1138.261, 787.276 1138.552 C 788.034 1138.843, 789.970 1138.543, 791.578 1137.884 C 793.185 1137.226, 795.617 1136.503, 796.981 1136.278 C 798.346 1136.054, 799.696 1135.561, 799.981 1135.185 C 800.267 1134.808, 801.400 1134.345, 802.500 1134.155 C 803.600 1133.965, 805.149 1133.290, 805.942 1132.655 C 807.075 1131.748, 807.212 1131.786, 806.582 1132.833 C 806.039 1133.735, 806.864 1133.592, 809.140 1132.388 C 810.988 1131.410, 813.365 1130.464, 814.422 1130.285 C 815.478 1130.107, 816.941 1129.464, 817.672 1128.858 C 818.402 1128.251, 819 1128.105, 819 1128.533 C 819 1128.960, 819.824 1128.564, 820.831 1127.653 C 821.838 1126.741, 822.925 1126.258, 823.246 1126.579 C 823.566 1126.900, 824.880 1126.585, 826.164 1125.879 C 827.449 1125.174, 829.098 1124.497, 829.828 1124.375 C 830.559 1124.254, 831.909 1123.821, 832.828 1123.413 C 833.748 1123.006, 834.762 1122.634, 835.081 1122.586 C 835.401 1122.539, 837.876 1121.529, 840.581 1120.341 C 843.287 1119.154, 848.953 1116.693, 853.174 1114.872 C 857.394 1113.051, 860.587 1111.141, 860.269 1110.626 C 859.951 1110.112, 860.147 1109.973, 860.705 1110.318 C 861.817 1111.005, 871.396 1106.637, 874.355 1104.094 C 875.375 1103.217, 876.275 1102.668, 876.355 1102.873 C 876.499 1103.245, 885.589 1098.984, 893.806 1094.694 C 896.175 1093.458, 897.750 1092.049, 897.306 1091.563 C 896.860 1091.074, 897.022 1090.978, 897.669 1091.349 C 898.313 1091.717, 899.518 1091.339, 900.348 1090.509 C 901.178 1089.679, 902.249 1089, 902.729 1089 C 903.208 1089, 904.162 1088.438, 904.850 1087.750 C 905.538 1087.063, 906.415 1086.488, 906.800 1086.474 C 908.157 1086.423, 917.533 1080.642, 920.157 1078.239 C 921.618 1076.900, 923.193 1075.832, 923.657 1075.865 C 924.120 1075.899, 925.474 1075.079, 926.664 1074.044 C 927.855 1073.009, 929.022 1072.355, 929.258 1072.591 C 929.494 1072.827, 930.882 1071.912, 932.343 1070.558 C 933.804 1069.203, 935 1068.369, 935 1068.703 C 935 1069.037, 935.889 1068.505, 936.976 1067.521 C 938.063 1066.538, 938.705 1065.332, 938.402 1064.842 C 938.099 1064.351, 938.222 1064.015, 938.676 1064.094 C 941.207 1064.533, 943.081 1063.623, 946.520 1060.283 C 948.625 1058.239, 951.056 1056.462, 951.922 1056.335 C 952.789 1056.208, 954.245 1055.181, 955.159 1054.052 C 956.073 1052.923, 957.226 1052, 957.722 1052 C 959.082 1052, 963.110 1047.987, 962.591 1047.148 C 962.342 1046.745, 963.004 1046.350, 964.061 1046.270 C 966.015 1046.123, 975.999 1038.141, 976 1036.725 C 976 1036.299, 977.152 1035.512, 978.560 1034.977 C 979.968 1034.442, 980.835 1033.542, 980.486 1032.977 C 980.137 1032.412, 980.226 1032.074, 980.684 1032.225 C 982.176 1032.718, 991.058 1024.595, 990.531 1023.220 C 990.252 1022.492, 990.437 1022.152, 990.943 1022.465 C 991.449 1022.777, 997.144 1017.738, 1003.600 1011.267 C 1010.055 1004.795, 1014.473 1000.625, 1013.418 1002 L 1011.500 1004.500 1013.726 1002.616 C 1014.951 1001.580, 1015.738 1000.385, 1015.476 999.960 C 1015.213 999.536, 1016.807 997.692, 1019.018 995.864 C 1021.228 994.035, 1022.839 992.024, 1022.598 991.394 C 1022.356 990.764, 1022.717 990.305, 1023.400 990.374 C 1024.083 990.443, 1027.085 987.800, 1030.071 984.500 C 1033.057 981.200, 1034.630 979.175, 1033.566 980 C 1032.502 980.825, 1034.863 978.160, 1038.812 974.079 C 1042.760 969.997, 1045.835 966.502, 1045.644 966.311 C 1045.454 966.120, 1046.806 964.365, 1048.649 962.411 C 1050.492 960.457, 1052 958.380, 1052 957.796 C 1052 957.212, 1052.817 956.007, 1053.816 955.117 C 1056.978 952.301, 1064.125 941.985, 1064.273 940.023 C 1064.351 938.986, 1064.822 938.220, 1065.320 938.319 C 1065.818 938.419, 1067.753 936.363, 1069.621 933.750 C 1071.488 931.138, 1072.769 929, 1072.468 929 C 1072.166 929, 1073.062 927.767, 1074.460 926.260 C 1075.857 924.753, 1077 923.023, 1077 922.415 C 1077 921.807, 1077.889 920.505, 1078.976 919.521 C 1080.063 918.538, 1080.712 917.343, 1080.417 916.866 C 1080.123 916.390, 1080.246 915.988, 1080.691 915.973 C 1081.741 915.938, 1086.577 908.026, 1086.250 906.878 C 1086.112 906.395, 1086.420 906, 1086.933 906 C 1087.446 906, 1088.180 905.008, 1088.565 903.797 C 1088.949 902.585, 1089.884 900.974, 1090.641 900.216 C 1091.399 899.459, 1091.720 898.356, 1091.355 897.765 C 1090.988 897.171, 1091.155 896.978, 1091.729 897.333 C 1092.301 897.686, 1093.366 896.518, 1094.098 894.737 C 1094.829 892.957, 1096.450 889.984, 1097.699 888.131 C 1098.949 886.279, 1099.726 884.366, 1099.427 883.881 C 1099.127 883.397, 1099.246 882.996, 1099.691 882.991 C 1100.752 882.978, 1104.598 874.067, 1104.167 872.620 C 1103.983 872.004, 1104.174 871.840, 1104.589 872.256 C 1105.617 873.284, 1111.219 862.164, 1110.368 860.786 C 1109.962 860.129, 1110.152 859.976, 1110.845 860.405 C 1111.869 861.037, 1112.506 859.206, 1112.118 856.750 C 1112.053 856.337, 1112.406 856, 1112.902 856 C 1113.656 856, 1115.564 851.884, 1116.039 849.234 C 1116.111 848.830, 1116.637 847.938, 1117.207 847.250 C 1117.778 846.563, 1117.910 846, 1117.500 846 C 1117.090 846, 1117.315 845.325, 1118 844.500 C 1118.685 843.675, 1118.852 842.993, 1118.372 842.985 C 1117.893 842.976, 1118.026 842.635, 1118.670 842.225 C 1119.313 841.816, 1119.988 840.821, 1120.170 840.014 C 1120.351 839.208, 1121.091 837.913, 1121.814 837.138 C 1122.738 836.147, 1122.814 835.414, 1122.071 834.671 C 1121.328 833.928, 1121.658 832.928, 1123.181 831.307 C 1124.373 830.038, 1125.035 829, 1124.651 829 C 1124.268 829, 1124.678 827.895, 1125.563 826.544 C 1126.448 825.193, 1126.839 823.549, 1126.432 822.889 C 1125.963 822.131, 1126.115 821.953, 1126.845 822.405 C 1127.937 823.079, 1128.137 822.513, 1128.453 817.865 C 1128.515 816.965, 1129.168 815.503, 1129.905 814.615 C 1130.642 813.727, 1130.991 813, 1130.682 813 C 1130.372 813, 1130.744 811.795, 1131.508 810.322 C 1132.272 808.849, 1132.669 807.274, 1132.390 806.822 C 1132.110 806.370, 1132.300 806, 1132.811 806 C 1133.664 806, 1135.502 800.622, 1136.464 795.315 C 1136.682 794.113, 1137.357 792.201, 1137.965 791.065 C 1138.573 789.929, 1138.774 789, 1138.413 789 C 1138.051 789, 1138.373 788.239, 1139.128 787.308 C 1140.311 785.849, 1140.294 785.738, 1139 786.500 C 1137.680 787.278, 1137.674 787.169, 1138.956 785.591 C 1140.306 783.929, 1140.638 783.044, 1141.429 779 C 1141.590 778.175, 1141.958 776.825, 1142.247 776 C 1144.001 770.985, 1144.996 765.802, 1144.392 764.825 C 1143.962 764.130, 1144.138 763.967, 1144.845 764.405 C 1145.545 764.837, 1146.050 764.405, 1146.128 763.309 C 1146.355 760.091, 1146.781 757.634, 1148.410 750.162 C 1149.290 746.126, 1149.713 742.344, 1149.350 741.758 C 1148.985 741.167, 1149.159 740.980, 1149.740 741.339 C 1150.856 742.029, 1153.096 731.719, 1152.557 728.369 C 1152.392 727.341, 1152.624 726.034, 1153.072 725.465 C 1153.520 724.896, 1154.135 721.521, 1154.437 717.965 C 1154.740 714.409, 1155.343 709.700, 1155.778 707.500 C 1156.213 705.300, 1156.538 702.375, 1156.501 701 C 1156.464 699.625, 1156.808 698.235, 1157.266 697.911 C 1157.724 697.586, 1158.189 692.077, 1158.299 685.668 C 1158.410 679.259, 1158.800 674.012, 1159.166 674.008 C 1159.532 674.003, 1159.881 661.122, 1159.940 645.382 C 1160.023 623.550, 1159.747 616.391, 1158.775 615.190 C 1157.730 613.900, 1157.742 613.761, 1158.841 614.423 C 1159.926 615.076, 1160.069 614.110, 1159.594 609.365 C 1159.270 606.139, 1158.967 602.825, 1158.919 602 C 1158.871 601.175, 1158.577 599.825, 1158.265 599 C 1157.230 596.263, 1157.164 594.984, 1158.088 595.554 C 1158.590 595.864, 1159 595.390, 1159 594.500 C 1159 593.532, 1158.536 593.168, 1157.845 593.595 C 1157.067 594.077, 1156.965 593.865, 1157.534 592.945 C 1158.455 591.456, 1158.202 583.128, 1157.188 581.508 C 1156.840 580.954, 1156.476 579.150, 1156.378 577.500 C 1156.279 575.850, 1155.920 572.925, 1155.578 571 C 1154.394 564.323, 1154.034 561.481, 1153.899 557.764 C 1153.825 555.709, 1153.417 554.242, 1152.992 554.505 C 1152.567 554.767, 1152.372 553.411, 1152.558 551.491 C 1152.744 549.571, 1152.567 548, 1152.165 548 C 1151.763 548, 1151.501 546.763, 1151.583 545.250 C 1151.665 543.737, 1151.288 541.938, 1150.744 541.250 C 1150.200 540.563, 1150.004 540, 1150.308 540 C 1150.612 540, 1150.419 538.538, 1149.881 536.750 C 1149.342 534.962, 1148.688 531.528, 1148.427 529.117 C 1148.167 526.706, 1147.638 524.231, 1147.252 523.617 C 1146.866 523.003, 1146.673 521.752, 1146.823 520.839 C 1146.973 519.925, 1146.644 518.898, 1146.092 518.557 C 1145.539 518.215, 1145.341 517.275, 1145.651 516.468 C 1145.960 515.661, 1145.791 515, 1145.274 515 C 1144.756 515, 1144.332 514.438, 1144.330 513.750 C 1144.321 510.602, 1141.681 501.980, 1140.400 500.917 C 1139.280 499.988, 1139.232 499.425, 1140.173 498.291 C 1141.108 497.164, 1141.092 496.675, 1140.100 496.062 C 1139.401 495.630, 1138.868 494.989, 1138.915 494.638 C 1138.962 494.287, 1138.944 493.775, 1138.875 493.500 C 1138.806 493.225, 1138.638 492.550, 1138.500 492 C 1138.362 491.450, 1138.159 490.887, 1138.048 490.750 C 1137.938 490.613, 1137.691 489.677, 1137.501 488.672 C 1137.310 487.666, 1136.825 486.091, 1136.423 485.172 C 1136.021 484.252, 1135.778 482.781, 1135.883 481.903 C 1135.988 481.025, 1135.409 479.754, 1134.596 479.080 C 1133.784 478.406, 1133.333 477.297, 1133.594 476.616 C 1133.855 475.934, 1132 470.005, 1129.471 463.439 C 1126.942 456.872, 1124.205 449.349, 1123.389 446.720 C 1122.573 444.092, 1121.465 442.213, 1120.928 442.545 C 1120.390 442.877, 1120.015 442.778, 1120.094 442.324 C 1120.172 441.871, 1120.127 441.163, 1119.993 440.750 C 1119.860 440.337, 1119.638 439.550, 1119.500 439 C 1119.362 438.450, 1119.160 437.887, 1119.051 437.750 C 1118.941 437.613, 1118.675 436.568, 1118.459 435.429 C 1117.827 432.090, 1115.372 427.968, 1114.491 428.765 C 1114.045 429.169, 1113.984 428.968, 1114.356 428.319 C 1115.131 426.966, 1112.259 420.236, 1109.953 418 C 1109.102 417.175, 1109.021 416.919, 1109.773 417.430 C 1110.754 418.098, 1110.644 417.322, 1109.385 414.680 C 1108.419 412.656, 1107.236 411, 1106.756 411 C 1106.275 411, 1106.138 410.586, 1106.450 410.081 C 1106.763 409.575, 1106.452 408.562, 1105.759 407.831 C 1105.067 407.099, 1104.349 405.600, 1104.163 404.500 C 1103.978 403.400, 1102.887 401.488, 1101.739 400.250 C 1100.591 399.012, 1099.983 398, 1100.388 398 C 1100.793 398, 1099.907 395.763, 1098.419 393.029 C 1096.931 390.295, 1095.317 388.304, 1094.832 388.604 C 1094.347 388.903, 1094.015 388.778, 1094.094 388.324 C 1094.522 385.858, 1093.884 383.953, 1092.845 384.595 C 1092.115 385.047, 1091.963 384.869, 1092.431 384.111 C 1092.852 383.431, 1092.055 381.450, 1090.586 379.524 C 1089.164 377.659, 1088 375.709, 1088 375.189 C 1088 374.670, 1087.314 373.676, 1086.476 372.980 C 1085.638 372.284, 1085.195 371.471, 1085.493 371.173 C 1085.791 370.875, 1084.565 369.072, 1082.768 367.166 C 1080.970 365.259, 1080.107 364.047, 1080.850 364.471 C 1081.926 365.085, 1081.982 364.835, 1081.128 363.238 C 1080.538 362.137, 1079.340 360.961, 1078.464 360.625 C 1077.589 360.289, 1077.111 359.629, 1077.402 359.159 C 1077.693 358.688, 1077.037 357.343, 1075.945 356.171 C 1074.852 354.998, 1074.014 353.765, 1074.082 353.430 C 1074.150 353.095, 1073.261 351.735, 1072.106 350.407 C 1070.952 349.080, 1070.118 347.771, 1070.254 347.500 C 1070.389 347.229, 1069.168 345.595, 1067.539 343.870 C 1065.910 342.144, 1064.472 340.013, 1064.343 339.134 C 1064.214 338.255, 1063.634 337.378, 1063.054 337.185 C 1062.475 336.992, 1061.998 336.308, 1061.995 335.667 C 1061.993 335.025, 1060.643 333.062, 1058.995 331.304 C 1057.348 329.547, 1056 327.863, 1056 327.563 C 1056 326.687, 1049.148 317.852, 1045.092 313.500 C 1043.042 311.300, 1041.061 308.684, 1040.689 307.687 C 1040.318 306.689, 1039.550 306.160, 1038.982 306.511 C 1038.415 306.862, 1038.074 306.705, 1038.225 306.163 C 1038.376 305.621, 1036.384 302.775, 1033.798 299.839 C 1031.212 296.902, 1028.140 293.375, 1026.972 292 C 1025.803 290.625, 1025.176 290.132, 1025.578 290.905 C 1026.063 291.836, 1025.915 292.066, 1025.138 291.585 C 1024.494 291.187, 1024.181 290.516, 1024.442 290.094 C 1025.057 289.099, 992.252 256.420, 990.971 256.750 C 990.437 256.887, 990.113 256.437, 990.250 255.750 C 990.388 255.062, 989.938 254.612, 989.250 254.750 C 988.563 254.887, 988.113 254.629, 988.250 254.176 C 988.638 252.897, 975.762 242.029, 974.664 242.708 C 974.129 243.038, 974.002 242.806, 974.382 242.190 C 974.789 241.532, 973.413 240.023, 971.037 238.523 C 968.817 237.122, 967 235.539, 967 235.007 C 967 234.474, 965.875 233.756, 964.500 233.411 C 963.125 233.066, 962 232.082, 962 231.225 C 962 230.368, 961.756 229.911, 961.457 230.210 C 961.158 230.509, 959.471 229.475, 957.707 227.914 C 955.943 226.352, 954.128 225.087, 953.674 225.103 C 953.220 225.119, 952.091 224.314, 951.166 223.316 C 948.252 220.171, 944.589 217.381, 945.501 219 C 945.965 219.825, 945.081 219.263, 943.536 217.750 C 941.991 216.238, 940.198 215, 939.551 215 C 938.904 215, 937.081 213.650, 935.500 212 C 933.919 210.350, 932.241 209, 931.771 209 C 931.301 209, 929.967 208.116, 928.807 207.035 C 927.646 205.954, 926.343 205.288, 925.910 205.556 C 925.477 205.823, 924.758 205.394, 924.311 204.602 C 923.865 203.810, 922.880 203.013, 922.121 202.831 C 921.363 202.649, 919.672 201.463, 918.363 200.196 C 917.054 198.929, 915.597 198.131, 915.125 198.423 C 914.653 198.714, 913.462 198.063, 912.479 196.976 C 911.495 195.889, 910.085 195, 909.345 195 C 908.605 195, 908 194.598, 908 194.107 C 908 193.616, 907.302 192.946, 906.448 192.618 C 905.399 192.216, 905.131 192.425, 905.621 193.261 C 906.019 193.943, 905.081 193.262, 903.536 191.750 C 901.991 190.238, 900.151 189, 899.447 189 C 898.743 189, 898.017 188.584, 897.833 188.075 C 897.650 187.566, 896.825 187.004, 896 186.825 C 895.175 186.646, 893.035 185.463, 891.244 184.195 C 889.446 182.921, 887.431 182.210, 886.744 182.605 C 886.060 182.999, 885.845 182.941, 886.266 182.477 C 887.119 181.539, 879.986 177.891, 878.769 178.643 C 878.346 178.904, 878 178.619, 878 178.008 C 878 177.088, 871.686 173.745, 870 173.772 C 869.725 173.777, 868.266 172.901, 866.757 171.827 C 865.248 170.753, 863.491 170.197, 862.852 170.591 C 862.130 171.037, 861.961 170.872, 862.405 170.155 C 863.024 169.152, 862.233 168.851, 859.464 169.036 C 859.170 169.055, 858.264 168.407, 857.453 167.595 C 856.641 166.784, 855.091 166.290, 854.009 166.498 C 852.926 166.707, 852.144 166.567, 852.270 166.189 C 852.397 165.810, 852.146 165.404, 851.714 165.286 C 851.282 165.168, 850.264 164.407, 849.453 163.595 C 848.641 162.784, 847.070 162.294, 845.962 162.507 C 844.853 162.721, 844.210 162.469, 844.532 161.948 C 845.044 161.120, 842.960 160.533, 840.750 160.882 C 840.337 160.947, 840 160.605, 840 160.121 C 840 159.169, 835.718 157.269, 832.500 156.795 C 831.400 156.633, 830.275 156.275, 830 156 C 829.270 155.270, 822.713 152.828, 821.250 152.741 C 820.563 152.700, 820 152.244, 820 151.726 C 820 151.209, 819.380 151.024, 818.622 151.315 C 817.864 151.606, 816.739 151.339, 816.122 150.722 C 815.505 150.105, 814.993 150.027, 814.985 150.550 C 814.976 151.072, 814.639 150.984, 814.235 150.353 C 813.831 149.722, 812.375 149.047, 811 148.853 C 809.625 148.659, 807.932 147.964, 807.238 147.310 C 806.544 146.655, 805.070 146.294, 803.962 146.507 C 802.853 146.721, 802.210 146.469, 802.532 145.948 C 803.084 145.055, 802.507 144.881, 798.250 144.658 C 797.288 144.608, 796.267 144.244, 795.981 143.849 C 795.696 143.454, 794.346 142.944, 792.981 142.717 C 791.617 142.489, 789.375 141.837, 788 141.269 C 786.625 140.700, 785.163 140.434, 784.750 140.676 C 784.337 140.919, 784 140.641, 784 140.059 C 784 139.477, 783.523 139, 782.941 139 C 782.359 139, 782.211 139.563, 782.613 140.250 C 783.015 140.938, 782.479 140.769, 781.422 139.875 C 780.365 138.981, 778.712 138.378, 777.750 138.536 C 776.788 138.694, 776 138.462, 776 138.021 C 776 137.314, 772.002 136.338, 766.750 135.763 C 765.788 135.658, 765 135.209, 765 134.766 C 765 134.323, 763.866 134.167, 762.480 134.418 C 761.058 134.676, 760.212 134.466, 760.539 133.937 C 761.081 133.060, 759.328 132.777, 752.797 132.691 C 751.311 132.672, 750.325 132.283, 750.606 131.828 C 750.888 131.373, 749.629 130.980, 747.809 130.956 C 745.989 130.932, 742.820 130.313, 740.768 129.580 C 738.249 128.681, 737.254 128.614, 737.709 129.374 C 738.080 129.993, 737.628 129.887, 736.705 129.138 C 735.781 128.389, 734.345 128.037, 733.513 128.357 C 732.681 128.676, 732 128.452, 732 127.859 C 732 127.220, 730.603 126.944, 728.570 127.182 C 726.684 127.402, 725.347 127.247, 725.600 126.838 C 725.853 126.429, 723.806 126.239, 721.052 126.416 C 718.298 126.593, 716.286 126.347, 716.581 125.869 C 716.876 125.391, 715.629 124.952, 713.809 124.893 C 707.058 124.674, 699.936 123.696, 698.462 122.786 C 697.911 122.445, 695.331 122.291, 692.730 122.445 C 690.128 122.598, 688 122.344, 688 121.880 C 688 121.416, 685.760 121.086, 683.021 121.148 C 679.638 121.224, 678.258 121.619, 678.713 122.380 C 679.120 123.060, 678.787 123.017, 677.866 122.272 C 677.032 121.597, 674.647 120.774, 672.567 120.443 C 669.582 119.969, 668.953 120.123, 669.584 121.171 C 670.207 122.206, 670.065 122.251, 668.942 121.373 C 666.942 119.809, 608.797 119.847, 609.732 121.411 C 610.185 122.168, 609.945 122.195, 608.942 121.500 C 608.149 120.950, 605.484 120.643, 603.020 120.819 M 624.475 342.960 C 624.742 343.392, 623.282 344.022, 621.230 344.361 C 615.855 345.250, 614.788 345.152, 615.595 343.845 C 616.084 343.055, 615.866 342.967, 614.905 343.567 C 614.132 344.049, 613.050 344.520, 612.500 344.613 C 611.950 344.706, 609.747 345.119, 607.605 345.530 C 604.926 346.044, 603.917 345.943, 604.372 345.207 C 604.736 344.618, 603.659 344.822, 601.979 345.661 C 600.298 346.499, 598.242 346.923, 597.410 346.604 C 596.550 346.274, 596.160 346.450, 596.507 347.011 C 597.077 347.933, 593.679 348.400, 586.791 348.345 C 585.301 348.333, 584.315 348.701, 584.600 349.162 C 584.885 349.623, 583.854 350.057, 582.309 350.128 C 578.259 350.312, 575.928 350.711, 572.250 351.852 C 570.462 352.407, 568.993 352.554, 568.985 352.180 C 568.976 351.806, 568.619 352.051, 568.191 352.725 C 567.763 353.399, 565.857 354.074, 563.956 354.225 C 562.055 354.376, 560.232 354.865, 559.904 355.310 C 559.576 355.756, 557.665 356.206, 555.658 356.310 C 553.651 356.415, 552.007 356.747, 552.004 357.049 C 551.997 357.924, 544.913 360.247, 544.256 359.590 C 543.930 359.263, 542.951 359.615, 542.081 360.371 C 541.212 361.128, 538.769 362.303, 536.653 362.983 C 534.538 363.663, 531.636 364.826, 530.206 365.568 C 528.295 366.559, 527.254 366.625, 526.280 365.817 C 525.261 364.972, 525.088 365.067, 525.534 366.227 C 526.298 368.219, 522.148 369.340, 520.052 367.708 C 518.714 366.667, 518.676 366.725, 519.771 368.128 C 521.068 369.788, 520.951 369.887, 516.500 370.912 C 515.950 371.039, 514.635 371.898, 513.578 372.821 C 512.521 373.745, 511.939 374.012, 512.284 373.417 C 512.629 372.821, 512.282 372.333, 511.512 372.333 C 510.741 372.333, 510.199 372.821, 510.306 373.417 C 510.413 374.012, 509.938 374.388, 509.250 374.250 C 508.563 374.113, 508 374.377, 508 374.837 C 508 375.297, 504.962 377.208, 501.250 379.084 C 497.538 380.960, 493.712 383.128, 492.750 383.902 C 491.788 384.676, 491 384.998, 491 384.616 C 491 384.234, 490.015 384.840, 488.811 385.961 C 487.608 387.082, 486.088 388, 485.434 388 C 484.780 388, 483.711 388.644, 483.058 389.430 C 482.405 390.217, 480.988 390.690, 479.909 390.482 C 478.830 390.275, 478.173 390.471, 478.450 390.919 C 478.952 391.731, 475.368 395.523, 474.145 395.474 C 473.790 395.459, 472.698 396.134, 471.718 396.974 C 470.737 397.813, 469.617 398.500, 469.228 398.500 C 468.840 398.500, 467.043 399.936, 465.236 401.690 C 463.429 403.445, 461.062 405.163, 459.976 405.508 C 458.889 405.853, 458 406.459, 458 406.856 C 458 407.252, 455.891 409.339, 453.314 411.493 C 450.737 413.647, 449.010 414.755, 449.476 413.955 C 449.942 413.155, 442.601 420.231, 433.162 429.680 C 423.723 439.129, 415.995 447.229, 415.989 447.680 C 415.983 448.131, 414.257 450.300, 412.152 452.500 C 410.047 454.700, 408.365 456.817, 408.413 457.204 C 408.461 457.591, 406.718 459.788, 404.539 462.087 C 402.360 464.386, 400.472 466.986, 400.343 467.865 C 400.214 468.745, 399.634 469.622, 399.054 469.815 C 398.475 470.008, 398 470.831, 398 471.642 C 398 472.503, 397.519 472.821, 396.845 472.405 C 396.133 471.964, 395.962 472.130, 396.399 472.837 C 396.789 473.467, 396.071 475.054, 394.804 476.363 C 393.537 477.672, 392.351 479.359, 392.170 480.112 C 391.988 480.865, 391.387 481.761, 390.834 482.102 C 390.282 482.444, 389.755 483.123, 389.665 483.612 C 389.574 484.100, 389.129 484.376, 388.676 484.225 C 388.222 484.074, 388.114 484.375, 388.435 484.895 C 388.756 485.414, 388.452 486.448, 387.759 487.193 C 387.067 487.938, 386.354 489.212, 386.175 490.024 C 385.996 490.836, 385.431 491.651, 384.919 491.835 C 384.407 492.020, 384.219 492.546, 384.503 493.005 C 384.786 493.463, 384.421 494.438, 383.690 495.169 C 382.960 495.901, 381.519 498.413, 380.489 500.750 C 379.458 503.087, 378.252 505, 377.808 505 C 377.363 505, 377.092 505.337, 377.205 505.750 C 377.318 506.163, 376.346 508.750, 375.044 511.500 C 373.743 514.250, 372.593 516.725, 372.488 517 C 370.292 522.766, 369.666 524, 368.934 524 C 368.455 524, 368.322 524.675, 368.638 525.500 C 368.955 526.325, 368.730 527, 368.138 527 C 367.547 527, 367.322 527.675, 367.638 528.500 C 367.955 529.325, 367.689 530, 367.048 530 C 366.407 530, 366.110 530.370, 366.390 530.822 C 366.669 531.274, 366.233 532.924, 365.421 534.490 C 364.609 536.055, 363.453 539.286, 362.853 541.668 C 362.253 544.051, 361.380 546, 360.913 546 C 360.445 546, 360.310 546.644, 360.612 547.430 C 360.913 548.217, 360.485 550.354, 359.660 552.180 C 358.336 555.109, 356.944 559.009, 356.424 561.250 C 356.328 561.663, 356.194 563.152, 356.125 564.559 C 356.056 565.966, 355.627 566.888, 355.172 566.606 C 354.717 566.325, 354.376 567.536, 354.415 569.297 C 354.465 571.557, 354.070 572.410, 353.073 572.194 C 351.980 571.956, 351.920 572.199, 352.807 573.267 C 353.672 574.309, 353.652 574.972, 352.726 575.970 C 351.739 577.035, 351.793 577.130, 353 576.455 C 354.202 575.783, 354.273 575.902, 353.358 577.058 C 352.730 577.851, 351.655 582.651, 350.970 587.723 C 350.284 592.796, 349.410 596.754, 349.028 596.517 C 348.646 596.281, 348.333 596.723, 348.333 597.500 C 348.333 598.277, 348.778 598.637, 349.321 598.302 C 349.918 597.933, 349.986 598.214, 349.493 599.012 C 349.044 599.738, 348.519 603.295, 348.327 606.916 C 348.014 612.799, 347.425 617.500, 347 617.500 C 346.916 617.500, 346.696 618.290, 346.511 619.255 C 346.327 620.220, 346.586 620.756, 347.088 620.446 C 347.590 620.136, 348 620.359, 348 620.941 C 348 621.523, 347.663 622, 347.250 622 C 346.210 622, 346.406 652.230, 347.457 653.931 C 348.083 654.943, 347.935 655.092, 346.905 654.494 C 346.132 654.046, 345.834 654.048, 346.241 654.498 C 346.649 654.948, 346.424 656.032, 345.741 656.908 C 344.643 658.317, 344.702 658.342, 346.250 657.128 C 347.871 655.856, 348.011 656.188, 348.145 661.628 C 348.425 672.965, 348.564 674.512, 349.433 675.905 C 349.981 676.782, 349.939 677.080, 349.321 676.698 C 348.778 676.363, 348.333 676.723, 348.333 677.500 C 348.333 678.277, 348.630 678.729, 348.993 678.504 C 349.356 678.280, 350.189 682.012, 350.845 686.798 C 352.210 696.763, 352.423 697.868, 353.438 700.202 C 353.844 701.138, 353.843 702.445, 353.434 703.107 C 352.947 703.895, 353.114 704.047, 353.922 703.548 C 354.830 702.987, 355.025 703.604, 354.663 705.899 C 354.388 707.647, 354.573 708.764, 355.086 708.447 C 355.589 708.136, 356.056 709.034, 356.125 710.441 C 356.337 714.789, 356.640 716.409, 357.721 719 C 358.295 720.375, 358.523 721.907, 358.228 722.405 C 357.933 722.902, 358.211 722.988, 358.845 722.595 C 359.927 721.927, 360.285 723.594, 360.269 729.227 C 360.267 730.177, 360.618 730.736, 361.051 730.469 C 361.721 730.054, 363.161 734.357, 363.147 736.733 C 363.145 737.155, 363.850 738.281, 364.714 739.237 C 365.578 740.192, 366.334 742.285, 366.393 743.888 C 366.452 745.492, 366.789 746.626, 367.143 746.409 C 367.497 746.191, 368.092 747.232, 368.466 748.721 C 368.840 750.209, 370.412 754.144, 371.960 757.464 C 374.740 763.426, 375.658 765.753, 375.837 767.286 C 375.887 767.718, 376.624 768.767, 377.473 769.616 C 378.323 770.466, 378.786 771.537, 378.503 771.995 C 378.219 772.454, 378.465 772.988, 379.048 773.183 C 379.632 773.377, 380.221 774.203, 380.359 775.018 C 380.497 775.833, 381.396 777.986, 382.357 779.802 C 384.511 783.870, 384.830 794.858, 382.832 796.125 C 382.099 796.590, 381.826 796.976, 382.225 796.985 C 382.624 796.993, 382.499 798.186, 381.948 799.636 C 381.397 801.087, 380.711 803.899, 380.425 805.886 C 380.138 807.874, 379.632 810.175, 379.301 811 C 378.970 811.825, 378.507 813.400, 378.271 814.500 C 377.638 817.457, 377.378 818.326, 376.574 820.172 C 376.174 821.091, 375.744 822.541, 375.619 823.393 C 375.494 824.245, 375.109 825.224, 374.765 825.569 C 374.420 825.914, 374.380 826.827, 374.676 827.598 C 374.972 828.369, 374.730 829, 374.138 829 C 373.547 829, 373.286 829.583, 373.560 830.295 C 373.833 831.007, 373.389 833.482, 372.572 835.795 C 371.756 838.108, 371.349 840, 371.667 840 C 371.985 840, 371.749 840.598, 371.142 841.328 C 370.536 842.059, 369.839 843.747, 369.594 845.078 C 369.349 846.410, 369.074 847.500, 368.983 847.500 C 368.891 847.500, 368.602 849.015, 368.340 850.866 C 368.077 852.717, 367.369 855.417, 366.765 856.866 C 366.161 858.315, 365.623 860.175, 365.568 861 C 365.514 861.825, 365.201 862.950, 364.873 863.500 C 363.932 865.078, 362.653 870.374, 362.881 871.750 C 362.995 872.438, 362.543 873, 361.877 873 C 361.211 873, 360.963 873.296, 361.325 873.658 C 361.687 874.020, 361.424 875.006, 360.741 875.850 C 359.724 877.107, 359.754 877.231, 360.905 876.537 C 361.953 875.905, 362.084 876.047, 361.420 877.095 C 360.387 878.726, 360.293 879.126, 360.125 882.559 C 360.044 884.219, 359.595 884.867, 358.845 884.405 C 358.176 883.991, 357.961 884.127, 358.334 884.731 C 358.896 885.641, 358.104 889.163, 356.248 894 C 355.932 894.825, 355.578 895.837, 355.461 896.250 C 355.345 896.663, 355.165 897.112, 355.061 897.250 C 354.957 897.388, 354.728 898.966, 354.552 900.758 C 354.375 902.550, 353.617 904.774, 352.866 905.700 C 351.690 907.150, 351.709 907.261, 353 906.500 C 354.198 905.794, 354.276 905.906, 353.388 907.058 C 352.085 908.748, 350.584 913.952, 350.881 915.750 C 350.995 916.437, 350.632 917, 350.075 917 C 349.518 917, 349.286 917.583, 349.560 918.295 C 349.833 919.007, 349.436 921.369, 348.678 923.545 C 347.920 925.720, 347.495 928.063, 347.733 928.750 C 347.972 929.437, 347.653 930, 347.024 930 C 346.396 930, 346.141 930.419, 346.457 930.931 C 346.774 931.443, 346.615 932.120, 346.105 932.435 C 344.625 933.350, 345.505 936.310, 347.338 936.579 C 348.257 936.714, 348.756 936.414, 348.446 935.912 C 348.136 935.410, 349.034 935, 350.441 935 C 353.936 935, 353.508 935.085, 357.986 933.505 C 360.194 932.726, 362 932.349, 362 932.667 C 362 932.985, 362.651 932.705, 363.447 932.044 C 364.242 931.384, 366.667 930.711, 368.835 930.550 C 371.004 930.388, 373.197 929.997, 373.709 929.680 C 374.221 929.363, 375.807 928.893, 377.232 928.634 C 378.658 928.376, 380.652 927.736, 381.662 927.212 C 382.673 926.688, 384.288 926.386, 385.250 926.541 C 386.212 926.696, 387 926.365, 387 925.805 C 387 925.244, 387.661 925.040, 388.468 925.349 C 389.275 925.659, 390.226 925.443, 390.581 924.869 C 390.936 924.295, 392.053 924.042, 393.065 924.307 C 394.076 924.571, 395.038 924.427, 395.202 923.986 C 395.366 923.545, 397.075 923.054, 399 922.894 C 400.925 922.735, 402.985 922.252, 403.578 921.822 C 404.172 921.392, 405.522 920.873, 406.578 920.670 C 407.635 920.467, 409.220 919.985, 410.101 919.600 C 410.982 919.215, 413.301 918.810, 415.256 918.700 C 417.210 918.590, 418.600 918.163, 418.345 917.750 C 418.091 917.337, 419.034 917, 420.441 917 C 423.970 917, 424.235 916.945, 426.498 915.734 C 427.596 915.146, 429.396 914.584, 430.498 914.485 C 431.599 914.387, 433.815 913.769, 435.422 913.112 C 437.030 912.456, 438.913 912.136, 439.608 912.403 C 440.302 912.670, 441.012 912.472, 441.185 911.964 C 441.358 911.456, 443.594 910.919, 446.154 910.770 C 448.714 910.622, 450.600 910.163, 450.345 909.750 C 450.090 909.337, 450.584 908.944, 451.441 908.875 C 453.832 908.683, 454.408 908.528, 455.642 907.743 C 456.270 907.343, 458.520 906.840, 460.642 906.626 C 462.764 906.412, 465.625 905.796, 467 905.258 C 469.571 904.252, 476.479 902.812, 477.630 903.042 C 477.986 903.113, 478.573 902.691, 478.935 902.105 C 479.298 901.519, 481.667 900.918, 484.201 900.769 C 486.735 900.621, 488.635 900.219, 488.423 899.876 C 488.211 899.533, 491.212 899.187, 495.092 899.107 C 502.830 898.948, 510 900.438, 510 902.205 C 510 902.826, 510.301 903.032, 510.669 902.664 C 511.037 902.297, 512.049 902.592, 512.919 903.320 C 513.788 904.049, 516.398 905.242, 518.717 905.971 C 521.036 906.701, 522.700 907.676, 522.415 908.138 C 522.130 908.599, 522.594 908.709, 523.448 908.382 C 524.304 908.053, 525 908.309, 525 908.952 C 525 909.593, 525.419 909.859, 525.931 909.543 C 526.443 909.226, 527.149 909.432, 527.500 910 C 527.851 910.568, 528.521 910.796, 528.988 910.507 C 529.456 910.218, 530.496 910.639, 531.300 911.443 C 532.104 912.247, 532.985 912.682, 533.257 912.410 C 533.529 912.138, 536.338 913.059, 539.500 914.458 C 542.662 915.856, 546.038 917, 547.002 917 C 547.966 917, 549.293 917.648, 549.951 918.441 C 550.608 919.233, 551.767 919.643, 552.525 919.352 C 553.284 919.061, 554.488 919.187, 555.202 919.633 C 555.916 920.079, 557.098 920.534, 557.828 920.645 C 558.559 920.755, 559.909 921.175, 560.828 921.576 C 561.748 921.978, 562.950 922.371, 563.500 922.450 C 569.939 923.376, 573.899 924.354, 573.543 924.931 C 573.302 925.320, 574.496 925.434, 576.195 925.185 C 577.894 924.935, 579.038 925.129, 578.738 925.616 C 578.437 926.102, 579.161 926.575, 580.345 926.667 C 587.390 927.215, 599.610 929.530, 600.235 930.435 C 600.639 931.021, 600.976 931.107, 600.985 930.628 C 600.993 930.148, 601.761 930.373, 602.692 931.128 C 603.842 932.060, 604.143 932.099, 603.633 931.250 C 603.109 930.377, 603.672 930, 605.500 930 C 606.940 930, 607.909 930.338, 607.653 930.750 C 607.397 931.163, 609.451 931.340, 612.218 931.145 C 615.185 930.936, 617.010 931.175, 616.668 931.728 C 616.349 932.244, 616.723 932.667, 617.500 932.667 C 618.277 932.667, 618.620 932.179, 618.264 931.583 C 617.808 930.821, 618.044 930.807, 619.058 931.535 C 620.800 932.785, 659.920 932.785, 661.943 931.535 C 662.783 931.016, 663.074 931.072, 662.698 931.679 C 662.363 932.222, 662.723 932.667, 663.500 932.667 C 664.277 932.667, 664.720 932.356, 664.485 931.975 C 663.994 931.181, 674.932 930.030, 679.687 930.375 C 681.440 930.502, 682.653 930.248, 682.382 929.810 C 682.112 929.372, 682.927 929.038, 684.195 929.067 C 687.871 929.154, 693.732 928.243, 697.490 927.003 C 699.399 926.373, 701.389 926.122, 701.911 926.445 C 702.434 926.768, 703.163 926.546, 703.530 925.951 C 703.898 925.357, 705.391 924.986, 706.849 925.129 C 708.307 925.271, 710.408 924.890, 711.518 924.282 C 712.629 923.675, 715.287 922.849, 717.425 922.448 C 719.564 922.047, 722.481 921.110, 723.907 920.365 C 725.333 919.621, 727.209 919.010, 728.075 919.006 C 728.941 919.003, 732.843 917.914, 736.745 916.587 C 740.647 915.259, 744.173 914.472, 744.580 914.837 C 744.988 915.202, 744.997 914.938, 744.601 914.250 C 744.163 913.489, 744.491 912.951, 745.441 912.875 C 747.121 912.740, 748.700 912.400, 749.500 912 C 749.775 911.862, 750.337 911.687, 750.750 911.610 C 751.163 911.533, 752.063 911.112, 752.750 910.676 C 753.438 910.239, 754 910.203, 754 910.596 C 754 910.989, 754.900 910.495, 756 909.500 C 757.100 908.505, 758 908.017, 758 908.416 C 758 908.816, 758.680 908.463, 759.512 907.631 C 760.343 906.800, 761.930 906.294, 763.038 906.507 C 764.147 906.721, 764.790 906.469, 764.468 905.948 C 763.953 905.115, 766.236 904.582, 767.457 905.250 C 767.708 905.388, 768.540 904.644, 769.305 903.597 C 770.185 902.394, 771.176 901.991, 772.003 902.502 C 772.815 903.004, 773.066 902.916, 772.666 902.268 C 772.130 901.401, 775.216 899.813, 776.418 900.338 C 776.623 900.427, 777.648 899.723, 778.697 898.774 C 779.746 897.825, 781.657 896.887, 782.944 896.691 C 784.230 896.494, 785.831 895.584, 786.501 894.667 C 787.172 893.751, 788.876 892.905, 790.289 892.788 C 791.702 892.671, 792.778 892.179, 792.679 891.695 C 792.581 891.210, 793.381 890.293, 794.458 889.657 C 795.535 889.021, 797.029 887.938, 797.779 887.250 C 798.529 886.563, 799.624 886, 800.211 886 C 800.799 886, 801.779 885.350, 802.390 884.555 C 803 883.760, 804.120 882.973, 804.879 882.805 C 805.637 882.637, 807.650 881.262, 809.352 879.750 C 811.053 878.237, 812.834 877, 813.309 877 C 813.784 877, 815.659 875.598, 817.476 873.884 C 819.294 872.170, 821.157 870.707, 821.617 870.634 C 822.078 870.560, 824.265 868.818, 826.477 866.762 C 828.690 864.707, 830.806 863.019, 831.180 863.012 C 832.159 862.995, 862.275 832.813, 863.657 830.466 C 864.293 829.385, 865.306 828.612, 865.907 828.750 C 866.508 828.887, 866.887 828.607, 866.750 828.126 C 866.612 827.645, 867.973 825.620, 869.774 823.626 C 871.575 821.632, 872.816 820, 872.531 820 C 872.246 820, 873.652 817.862, 875.655 815.250 C 877.658 812.637, 879.714 810.624, 880.223 810.775 C 880.732 810.926, 880.895 810.639, 880.585 810.138 C 879.926 809.071, 882.404 806.738, 883.274 807.608 C 883.599 807.932, 883.642 807.348, 883.371 806.310 C 883.076 805.184, 883.709 803.668, 884.938 802.556 C 886.072 801.530, 887 800.058, 887 799.286 C 887 798.446, 887.502 798.171, 888.250 798.601 C 888.938 798.997, 889.180 798.966, 888.790 798.534 C 887.792 797.428, 890.870 791.801, 892.067 792.542 C 892.608 792.875, 892.974 792.778, 892.882 792.324 C 892.576 790.821, 895.179 785, 896.157 785 C 896.685 785, 896.882 784.618, 896.594 784.151 C 896.305 783.685, 896.971 782.335, 898.074 781.151 C 899.176 779.968, 899.866 779, 899.606 779 C 899.347 779, 901.225 774.837, 903.779 769.750 C 906.333 764.663, 908.461 760.050, 908.507 759.500 C 908.553 758.950, 909.040 758.581, 909.588 758.681 C 910.136 758.780, 910.652 757.966, 910.735 756.870 C 910.988 753.514, 913.115 747.953, 913.948 748.468 C 914.381 748.736, 914.683 747.952, 914.618 746.727 C 914.546 745.365, 915.015 744.607, 915.824 744.775 C 916.553 744.926, 916.869 744.598, 916.528 744.045 C 915.728 742.750, 918.054 734.915, 919.055 735.534 C 919.472 735.792, 919.563 735.045, 919.257 733.875 C 918.906 732.532, 919.275 731.426, 920.257 730.876 C 921.249 730.321, 921.609 729.222, 921.249 727.846 C 920.939 726.659, 921.093 725.937, 921.592 726.243 C 922.092 726.548, 922.585 725.199, 922.690 723.245 C 922.794 721.291, 923.244 719.424, 923.690 719.096 C 924.135 718.768, 924.624 716.945, 924.775 715.044 C 924.926 713.143, 925.376 711.343, 925.775 711.044 C 926.174 710.745, 926.578 709.600, 926.674 708.500 C 926.879 706.148, 928.788 698.155, 929.660 696 C 929.994 695.175, 930.371 693.150, 930.497 691.500 C 930.624 689.850, 930.837 688.275, 930.970 688 C 931.103 687.725, 931.125 686.212, 931.019 684.637 C 930.904 682.941, 931.234 682.026, 931.826 682.393 C 932.447 682.777, 932.642 681.838, 932.340 679.919 C 932.072 678.218, 932.164 676.078, 932.546 675.163 C 933.387 673.145, 934.116 668.332, 934.057 665.195 C 934.029 663.708, 934.421 663.142, 935.161 663.600 C 935.871 664.038, 936.036 663.867, 935.593 663.151 C 935.200 662.514, 934.808 648.978, 934.723 633.071 C 934.638 617.164, 934.216 604.367, 933.784 604.633 C 933.353 604.900, 932.994 604.304, 932.986 603.309 C 932.979 602.314, 932.683 600.417, 932.329 599.094 C 931.821 597.196, 931.983 596.867, 933.092 597.536 C 934.246 598.231, 934.276 598.108, 933.259 596.850 C 932.576 596.006, 932.313 595.020, 932.675 594.658 C 933.037 594.296, 932.808 594, 932.167 594 C 931.525 594, 931 593.523, 931 592.941 C 931 592.359, 931.563 592.220, 932.250 592.633 C 933.200 593.204, 933.191 593.003, 932.212 591.794 C 931.504 590.919, 931.138 589.024, 931.399 587.581 C 931.670 586.091, 931.470 585.209, 930.937 585.539 C 930.422 585.857, 930 585.390, 930 584.500 C 930 583.482, 930.464 583.153, 931.250 583.613 C 931.938 584.015, 931.683 583.411, 930.684 582.270 C 929.685 581.129, 928.982 579.589, 929.122 578.848 C 929.263 578.107, 928.995 575.925, 928.528 574 C 928.061 572.075, 927.590 569.825, 927.481 569 C 927.372 568.175, 926.759 566.205, 926.118 564.623 C 923.932 559.224, 923.180 554.221, 924.373 553.005 C 925.212 552.151, 925.150 551.939, 924.133 552.179 C 923.381 552.355, 922.635 551.825, 922.475 551 C 922.315 550.175, 921.439 547.760, 920.530 545.633 C 919.620 543.507, 919.102 541.177, 919.378 540.456 C 919.655 539.736, 919.227 538.604, 918.428 537.940 C 917.295 537, 917.236 536.421, 918.157 535.311 C 918.807 534.528, 918.925 534.025, 918.419 534.194 C 917.914 534.362, 917.355 534.050, 917.179 533.500 C 917.002 532.950, 916.160 531.729, 915.307 530.787 C 914.455 529.845, 914.032 528.359, 914.367 527.485 C 914.703 526.611, 914.583 526.139, 914.102 526.437 C 913.621 526.734, 913.002 526.195, 912.727 525.239 C 912.452 524.282, 911.874 522.639, 911.444 521.586 C 910.835 520.100, 910.978 519.853, 912.080 520.483 C 912.861 520.929, 912.487 520.310, 911.250 519.108 C 910.013 517.906, 908.931 516.377, 908.848 515.711 C 908.764 515.045, 908.644 514.011, 908.582 513.413 C 908.519 512.814, 907.688 511.545, 906.734 510.591 C 905.189 509.046, 904.531 506.971, 904.882 504.750 C 904.947 504.337, 904.603 504, 904.117 504 C 903.632 504, 902.028 501.534, 900.553 498.519 C 899.079 495.505, 897.443 492.774, 896.920 492.450 C 896.396 492.127, 896.226 491.443, 896.543 490.931 C 896.859 490.419, 896.750 490, 896.300 490 C 895.849 490, 894.890 489.053, 894.167 487.895 C 893.078 486.152, 893.080 485.921, 894.176 486.550 C 894.904 486.968, 894.256 485.971, 892.736 484.335 C 891.216 482.700, 890.206 481.127, 890.492 480.841 C 890.778 480.555, 890.110 479.504, 889.006 478.506 C 887.903 477.507, 887 476.313, 887 475.853 C 887 475.392, 885.987 473.851, 884.750 472.427 C 883.513 471.004, 882.614 469.649, 882.754 469.416 C 882.894 469.183, 881.769 467.601, 880.254 465.901 C 878.739 464.201, 877.500 462.386, 877.500 461.868 C 877.500 461.351, 877.050 460.599, 876.500 460.198 C 875.950 459.796, 874.150 457.918, 872.500 456.022 C 870.850 454.127, 870.390 453.234, 871.478 454.038 C 872.565 454.842, 870.892 452.847, 867.758 449.605 C 864.625 446.362, 862.259 443.390, 862.500 443 C 862.741 442.610, 861.718 441.213, 860.226 439.895 C 857.725 437.686, 857.662 437.675, 859.412 439.750 C 860.456 440.988, 861.054 442, 860.740 442 C 859.458 442, 852.073 431.691, 852.667 430.730 C 853.038 430.129, 852.824 429.990, 852.160 430.401 C 851.481 430.821, 848.456 428.535, 844.756 424.805 C 841.315 421.337, 837.600 418.013, 836.500 417.418 C 835.400 416.823, 834.624 415.777, 834.775 415.094 C 834.926 414.410, 834.658 414.093, 834.180 414.389 C 833.702 414.684, 831.659 413.413, 829.640 411.564 C 827.621 409.715, 825.273 407.935, 824.421 407.608 C 823.570 407.281, 823.160 406.550, 823.511 405.982 C 823.862 405.415, 823.778 405.065, 823.324 405.205 C 821.878 405.650, 816.085 401.672, 816.709 400.662 C 817.039 400.128, 816.871 399.961, 816.337 400.292 C 815.802 400.623, 814.177 399.792, 812.726 398.446 C 811.275 397.101, 809.863 396, 809.588 396 C 808.265 396, 801.534 390.684, 801.775 389.828 C 801.926 389.291, 801.598 389.130, 801.046 389.471 C 799.930 390.161, 794.240 386.476, 792.186 383.733 C 791.458 382.762, 790.485 382.201, 790.022 382.487 C 788.764 383.264, 785.925 381.931, 786.580 380.870 C 786.893 380.364, 786.778 380.069, 786.324 380.213 C 784.931 380.657, 779 377.822, 779 376.712 C 779 376.137, 778.696 375.971, 778.324 376.342 C 777.952 376.714, 776.530 376.002, 775.163 374.759 C 773.796 373.517, 772.998 373.057, 773.391 373.739 C 773.871 374.573, 773.597 374.783, 772.552 374.382 C 771.698 374.054, 771 373.358, 771 372.834 C 771 372.310, 770.586 372.138, 770.081 372.450 C 769.575 372.763, 768.466 372.323, 767.616 371.473 C 766.767 370.624, 765.817 369.979, 765.507 370.041 C 764.425 370.255, 750.939 364.797, 749.724 363.653 C 749.051 363.019, 747.375 362.341, 746 362.147 C 744.625 361.953, 743.225 361.352, 742.888 360.812 C 742.552 360.271, 742.102 359.958, 741.888 360.115 C 741.170 360.643, 732.032 357.757, 732.423 357.125 C 732.635 356.781, 731.171 356.408, 729.169 356.295 C 727.168 356.182, 725.389 355.667, 725.217 355.151 C 725.045 354.635, 723.955 354.460, 722.796 354.764 C 721.369 355.137, 720.916 354.945, 721.396 354.169 C 721.856 353.424, 721.556 353.233, 720.539 353.623 C 719.679 353.954, 718.236 353.611, 717.334 352.862 C 716.431 352.113, 715.537 351.613, 715.346 351.750 C 715.156 351.887, 714.888 351.967, 714.750 351.926 C 714.612 351.885, 713.375 351.624, 712 351.347 C 710.625 351.070, 708.825 350.688, 708 350.498 C 707.175 350.308, 705.461 350.119, 704.191 350.077 C 702.921 350.034, 702.092 349.660, 702.349 349.244 C 702.606 348.829, 700.945 348.461, 698.658 348.427 C 695.131 348.374, 689.500 347.496, 689.500 346.998 C 689.500 346.607, 685.120 345.973, 681.736 345.874 C 679.666 345.813, 677.780 345.453, 677.545 345.073 C 677.310 344.693, 674.832 344.493, 672.038 344.629 C 669.244 344.765, 667.169 344.536, 667.426 344.119 C 667.684 343.703, 666.504 343.566, 664.805 343.815 C 663.035 344.075, 661.962 343.870, 662.293 343.334 C 662.611 342.820, 661.804 342.400, 660.500 342.400 C 659.196 342.400, 658.352 342.760, 658.624 343.200 C 659.417 344.484, 656.530 344.120, 655.053 342.750 C 653.976 341.750, 653.848 341.750, 654.412 342.750 C 654.899 343.611, 654.304 344, 652.500 344 C 651.060 344, 650.096 343.654, 650.357 343.231 C 650.619 342.808, 647.983 342.462, 644.500 342.462 C 641.017 342.462, 638.381 342.808, 638.643 343.231 C 639.442 344.525, 632.491 344.084, 631.053 342.750 C 629.976 341.750, 629.848 341.750, 630.412 342.750 C 631.160 344.074, 628.865 344.532, 627.638 343.304 C 626.649 342.316, 623.892 342.016, 624.475 342.960 M 622.720 390.690 C 618.990 390.911, 616.135 391.409, 616.373 391.796 C 616.612 392.183, 614.488 392.557, 611.654 392.626 C 605.778 392.770, 591.640 395.306, 592.411 396.078 C 592.693 396.359, 591.365 396.408, 589.461 396.185 C 587.558 395.963, 586 396.168, 586 396.641 C 586 397.113, 584.763 397.561, 583.250 397.635 C 580.266 397.782, 578.833 398.144, 575 399.721 C 573.625 400.287, 570.587 401.070, 568.250 401.463 C 565.913 401.855, 564 402.572, 564 403.057 C 564 403.541, 563.325 403.678, 562.500 403.362 C 561.675 403.045, 561 403.270, 561 403.862 C 561 404.453, 560.325 404.678, 559.500 404.362 C 558.675 404.045, 558 404.264, 558 404.848 C 558 405.432, 556.425 406.205, 554.500 406.566 C 552.575 406.927, 551 407.608, 551 408.080 C 551 408.551, 550.325 408.678, 549.500 408.362 C 548.675 408.045, 548 408.311, 548 408.952 C 548 409.593, 547.579 409.858, 547.065 409.540 C 545.990 408.876, 537 413.009, 537 414.168 C 537 414.591, 536.383 414.700, 535.629 414.411 C 534.875 414.122, 533.978 414.614, 533.636 415.506 C 533.294 416.397, 532.562 416.847, 532.009 416.505 C 530.690 415.690, 526.792 418.435, 527.756 419.500 C 528.165 419.951, 527.933 419.994, 527.240 419.595 C 526.036 418.902, 517 422.730, 517 423.933 C 517 424.251, 515.548 425.155, 513.773 425.940 C 508.805 428.139, 504.006 431.664, 504.793 432.537 C 505.182 432.968, 504.996 433.033, 504.379 432.681 C 503.763 432.329, 502.231 432.932, 500.976 434.021 C 499.721 435.109, 498.421 436, 498.087 436 C 497.753 436, 496.359 437.027, 494.990 438.283 C 493.620 439.539, 490.879 441.559, 488.897 442.774 C 486.915 443.988, 484.466 446.084, 483.455 447.431 C 482.443 448.778, 481.341 449.711, 481.006 449.504 C 480.671 449.296, 475.755 453.556, 470.081 458.970 C 463.262 465.478, 460.028 469.236, 460.538 470.061 C 461.019 470.839, 460.900 471.057, 460.224 470.638 C 459.227 470.022, 457.552 471.586, 457.515 473.167 C 457.507 473.533, 457.090 474.208, 456.590 474.667 C 456.047 475.163, 456.024 474.894, 456.532 474 C 457.270 472.700, 457.155 472.686, 455.668 473.893 C 454.724 474.658, 454.182 475.515, 454.463 475.796 C 454.744 476.078, 453.615 477.607, 451.954 479.195 C 450.292 480.783, 449.242 482.583, 449.621 483.195 C 450.011 483.828, 449.859 484.031, 449.268 483.666 C 447.972 482.865, 445.744 485.383, 446.759 486.502 C 447.166 486.952, 446.960 487.011, 446.300 486.632 C 445.596 486.228, 444.615 486.884, 443.925 488.222 C 443.279 489.475, 441.794 491.585, 440.625 492.911 C 439.379 494.326, 439.120 495.018, 440 494.587 C 440.825 494.183, 440.667 494.530, 439.650 495.359 C 438.572 496.238, 438.115 497.376, 438.554 498.088 C 439.021 498.843, 438.893 499.052, 438.217 498.634 C 437.165 497.984, 431 505.821, 431 507.808 C 431 508.329, 430.314 509.324, 429.476 510.020 C 428.638 510.716, 428.160 511.494, 428.416 511.749 C 428.671 512.004, 428.022 513.133, 426.974 514.258 C 425.927 515.383, 425.274 516.634, 425.524 517.038 C 425.773 517.443, 425.308 518.329, 424.489 519.009 C 423.670 519.689, 423 520.865, 423 521.622 C 423 522.380, 422.502 523, 421.893 523 C 421.284 523, 421.040 523.661, 421.349 524.468 C 421.659 525.275, 421.511 526.184, 421.020 526.488 C 419.603 527.363, 416.941 533.146, 418.318 532.356 C 418.968 531.983, 418.469 532.811, 417.208 534.197 C 415.948 535.583, 414.441 538.469, 413.859 540.609 C 413.277 542.749, 412.058 545.365, 411.151 546.422 C 409.863 547.922, 409.830 548.154, 411 547.480 C 412.244 546.763, 412.288 546.878, 411.259 548.150 C 410.576 548.994, 410.351 550.052, 410.759 550.502 C 411.166 550.952, 411 551.035, 410.388 550.687 C 409.254 550.040, 404.481 563.798, 404.650 567.227 C 404.697 568.177, 404.378 568.734, 403.942 568.464 C 403.505 568.194, 402.643 570.567, 402.027 573.737 C 401.410 576.906, 400.265 581.570, 399.482 584.100 C 398.698 586.631, 398.246 589.680, 398.476 590.877 C 398.743 592.261, 398.501 592.810, 397.813 592.385 C 397.093 591.940, 396.884 592.759, 397.189 594.834 C 397.441 596.548, 397.319 598.075, 396.920 598.226 C 395.478 598.770, 394.328 618.969, 394.422 642.107 C 394.500 661.440, 394.787 666.045, 396.009 667.549 C 396.874 668.614, 396.976 669.069, 396.250 668.633 C 395.456 668.156, 395 668.472, 395 669.500 C 395 670.390, 395.346 670.904, 395.768 670.643 C 396.191 670.382, 396.363 671.990, 396.151 674.216 C 395.934 676.487, 396.164 678.017, 396.673 677.702 C 397.178 677.390, 397.404 678.667, 397.182 680.570 C 396.961 682.457, 397.217 684, 397.749 684 C 398.281 684, 398.676 685.013, 398.626 686.250 C 398.498 689.484, 403.097 708, 404.030 708 C 404.460 708, 404.595 708.833, 404.329 709.851 C 404.063 710.869, 404.571 712.428, 405.458 713.315 C 406.345 714.203, 407.055 715.170, 407.036 715.464 C 406.870 717.944, 407.117 719.046, 407.750 718.658 C 408.163 718.406, 408.535 719.767, 408.579 721.684 C 408.622 723.601, 409.223 725.520, 409.914 725.947 C 410.605 726.374, 411.103 726.898, 411.021 727.112 C 410.769 727.764, 412.249 731.421, 413.327 732.809 C 413.886 733.529, 414.465 735.261, 414.614 736.657 C 414.763 738.053, 415.698 739.859, 416.692 740.672 C 417.686 741.484, 417.825 741.813, 417 741.402 C 415.753 740.782, 415.770 740.981, 417.098 742.578 C 418.727 744.538, 420.076 747.374, 420.587 749.918 C 420.744 750.698, 421.801 752.592, 422.936 754.128 C 424.071 755.663, 425 757.414, 425 758.019 C 425 758.623, 425.520 758.797, 426.155 758.405 C 426.841 757.980, 427.039 758.128, 426.642 758.770 C 426.276 759.363, 427.106 761.975, 428.488 764.573 C 429.870 767.172, 431 769.906, 431 770.649 C 431 771.392, 431.337 772, 431.750 772 C 432.552 772, 432.640 773.095, 432.837 785.500 C 432.976 794.241, 432.685 797.617, 431.573 800.172 C 431.173 801.091, 430.735 802.441, 430.600 803.172 C 430.464 803.902, 429.570 806.300, 428.613 808.500 C 427.656 810.700, 426.789 813.920, 426.686 815.654 C 426.584 817.389, 426.163 818.600, 425.750 818.345 C 425.337 818.091, 424.944 819.034, 424.875 820.441 C 424.709 823.842, 424.629 824.140, 423.201 826.709 C 422.526 827.925, 422.032 829.275, 422.105 829.709 C 422.177 830.144, 422.150 830.725, 422.044 831 C 421.540 832.307, 420.758 836.727, 420.683 838.685 C 420.637 839.887, 420.240 840.648, 419.800 840.376 C 418.509 839.579, 418.883 842.481, 420.250 843.871 C 421.251 844.890, 421.228 845.079, 420.133 844.821 C 418.843 844.518, 418.002 846.374, 417.703 850.177 C 417.631 851.099, 417.247 851.652, 416.850 851.407 C 416.453 851.162, 415.846 852.883, 415.500 855.231 C 414.684 860.776, 414.190 863.500, 414 863.500 C 413.765 863.500, 413.088 866.269, 412.778 868.500 C 412.554 870.114, 412.982 870.432, 415 870.147 C 416.375 869.953, 417.831 869.278, 418.235 868.647 C 418.639 868.016, 418.976 867.806, 418.985 868.180 C 418.993 868.554, 420.462 868.396, 422.250 867.829 C 424.038 867.261, 426.288 866.815, 427.250 866.836 C 428.212 866.858, 429 866.496, 429 866.031 C 429 865.567, 429.970 865.441, 431.156 865.751 C 432.342 866.061, 433.063 865.907, 432.758 865.408 C 432.453 864.908, 434.017 864.393, 436.234 864.263 C 438.450 864.133, 440.879 863.515, 441.632 862.891 C 442.384 862.266, 443 862.090, 443 862.500 C 443 862.910, 443.675 862.685, 444.500 862 C 445.325 861.315, 446 861.090, 446 861.500 C 446 861.910, 446.604 861.744, 447.342 861.131 C 448.080 860.519, 448.961 860.294, 449.299 860.632 C 449.637 860.970, 450.721 860.904, 451.707 860.485 C 452.693 860.065, 454.175 859.591, 455 859.431 C 455.825 859.271, 458.075 858.839, 460 858.471 C 461.925 858.104, 463.831 857.285, 464.235 856.651 C 464.639 856.018, 464.976 855.806, 464.985 856.180 C 464.993 856.554, 466.462 856.416, 468.250 855.872 C 470.038 855.329, 472.625 854.642, 474 854.347 C 479.039 853.264, 479.500 853.150, 479.500 852.985 C 479.500 852.892, 481.074 852.595, 482.999 852.324 C 484.923 852.054, 486.948 851.482, 487.499 851.054 C 488.491 850.282, 492.651 849.037, 496.500 848.358 C 503.780 847.075, 512.689 848.418, 515.750 851.260 C 516.987 852.409, 518.007 852.933, 518.015 852.424 C 518.024 851.916, 518.361 851.972, 518.765 852.548 C 520.066 854.404, 528.995 859.121, 530.014 858.491 C 530.556 858.156, 531 858.303, 531 858.818 C 531 859.985, 540.881 864.450, 543.227 864.343 C 544.177 864.300, 544.713 864.655, 544.418 865.132 C 543.951 865.888, 546.457 866.422, 547.321 865.750 C 547.498 865.612, 548.434 866.292, 549.402 867.259 C 550.370 868.227, 551.575 868.763, 552.081 868.450 C 552.586 868.138, 553 868.300, 553 868.811 C 553 869.654, 561.099 872.500, 563.500 872.500 C 564.050 872.500, 564.779 872.881, 565.119 873.348 C 565.460 873.814, 566.879 874.264, 568.273 874.348 C 569.667 874.431, 570.653 874.751, 570.464 875.057 C 570.177 875.522, 577.383 877.428, 583 878.373 C 583.825 878.512, 586.984 879.367, 590.019 880.274 C 593.055 881.180, 601.311 882.633, 608.366 883.503 C 618.881 884.799, 621.481 884.851, 622.789 883.792 C 623.884 882.905, 624.157 882.878, 623.661 883.705 C 623.108 884.626, 626.840 884.907, 639.490 884.895 C 652.016 884.883, 655.870 884.590, 655.330 883.690 C 654.778 882.770, 654.950 882.770, 656.088 883.690 C 657.599 884.911, 673.327 884.356, 672.577 883.108 C 672.377 882.774, 675.168 882.399, 678.781 882.276 C 682.394 882.152, 685.609 881.702, 685.925 881.276 C 686.241 880.849, 688.055 880.376, 689.956 880.225 C 691.857 880.074, 693.657 879.624, 693.956 879.225 C 694.255 878.826, 696.525 878.348, 699 878.163 C 701.475 877.978, 703.634 877.463, 703.798 877.019 C 703.962 876.576, 705.045 876.460, 706.204 876.764 C 707.768 877.173, 708.103 876.976, 707.502 876.003 C 706.968 875.139, 707.081 874.932, 707.832 875.396 C 709.176 876.227, 724.782 871.327, 727.081 869.353 C 727.951 868.606, 728.949 868.283, 729.300 868.633 C 729.651 868.984, 731.077 868.525, 732.469 867.612 C 733.861 866.700, 735 866.259, 735 866.632 C 735 867.005, 735.977 866.453, 737.172 865.405 C 738.366 864.357, 739.052 864.003, 738.695 864.618 C 738.326 865.253, 739.547 865.055, 741.523 864.159 C 743.435 863.293, 745 862.201, 745 861.733 C 745 861.265, 745.419 861.141, 745.931 861.457 C 746.443 861.774, 747.144 861.575, 747.490 861.016 C 747.835 860.457, 748.829 860, 749.699 860 C 750.568 860, 751.925 859.212, 752.714 858.250 C 753.503 857.288, 753.867 857.057, 753.522 857.739 C 753.110 858.554, 753.427 858.774, 754.448 858.382 C 755.302 858.054, 756 857.384, 756 856.893 C 756 856.402, 756.702 856, 757.559 856 C 758.416 856, 758.898 855.643, 758.628 855.208 C 758.359 854.772, 759.014 854.349, 760.084 854.269 C 761.154 854.188, 764.070 852.745, 766.565 851.061 C 769.059 849.377, 771.334 848, 771.620 848 C 772.491 848, 781.477 841.672, 781.833 840.808 C 782.017 840.364, 782.692 839.998, 783.333 839.995 C 783.975 839.993, 785.850 838.725, 787.500 837.178 C 789.150 835.632, 790.950 834.171, 791.500 833.933 C 792.050 833.695, 792.388 833.163, 792.250 832.750 C 792.113 832.338, 792.563 832.113, 793.250 832.250 C 793.938 832.388, 794.388 831.938, 794.250 831.250 C 794.113 830.563, 794.423 830.113, 794.940 830.250 C 796.846 830.757, 809.208 820.145, 808.342 818.745 C 807.971 818.145, 808.167 817.985, 808.796 818.374 C 810.299 819.303, 821.257 808.249, 820.368 806.700 C 819.989 806.040, 820.058 805.844, 820.520 806.264 C 821.627 807.269, 827.112 801.990, 826.310 800.692 C 825.970 800.142, 826.176 799.991, 826.769 800.357 C 827.362 800.724, 828.842 799.626, 830.059 797.917 C 831.276 796.208, 833.340 793.658, 834.645 792.249 C 835.951 790.839, 836.827 789.494, 836.592 789.259 C 836.357 789.023, 837.693 787.210, 839.562 785.228 C 841.431 783.247, 842.778 781.445, 842.557 781.223 C 842.335 781.002, 843.469 779.444, 845.077 777.762 C 846.685 776.080, 848 774.237, 848 773.666 C 848 773.096, 849.013 771.515, 850.250 770.153 C 851.487 768.792, 851.825 768.008, 851 768.413 C 850.175 768.817, 850.333 768.470, 851.350 767.641 C 852.469 766.729, 852.900 765.613, 852.440 764.817 C 852.022 764.092, 852.049 763.835, 852.500 764.244 C 853.303 764.971, 855.337 762.245, 856.601 758.750 C 856.949 757.788, 857.582 757, 858.008 757 C 858.664 757, 860.399 752.073, 860.046 751.214 C 859.981 751.057, 860.624 750.233, 861.473 749.384 C 862.323 748.534, 862.720 747.356, 862.355 746.765 C 861.985 746.167, 862.156 745.978, 862.741 746.340 C 864.001 747.119, 865.281 744.264, 864.349 742.755 C 863.961 742.128, 864.165 741.984, 864.845 742.405 C 865.852 743.027, 866.253 741.888, 865.915 739.362 C 865.868 739.011, 866.229 738.448, 866.717 738.112 C 867.614 737.493, 871.010 730.694, 871.456 728.623 C 871.589 728.005, 872.026 726.748, 872.426 725.828 C 872.826 724.909, 873.278 723.559, 873.430 722.828 C 873.582 722.098, 874.487 719.733, 875.440 717.574 C 876.394 715.415, 877.329 712.490, 877.518 711.074 C 877.707 709.658, 877.928 708.500, 878.008 708.500 C 878.088 708.500, 878.314 707.825, 878.511 707 C 878.708 706.175, 879.308 704.071, 879.843 702.325 C 880.379 700.579, 880.558 698.892, 880.242 698.575 C 879.926 698.259, 880.244 698, 880.950 698 C 881.775 698, 882.065 697.119, 881.761 695.530 C 881.478 694.052, 881.686 693.306, 882.279 693.672 C 882.883 694.046, 883.092 693.082, 882.815 691.195 C 882.566 689.496, 882.730 688.333, 883.181 688.612 C 883.631 688.890, 884.070 687.629, 884.157 685.809 C 884.376 681.174, 884.769 678.308, 886.032 672.141 C 886.636 669.193, 886.890 666.156, 886.597 665.391 C 886.303 664.626, 886.489 664, 887.009 664 C 887.530 664, 887.853 661.118, 887.728 657.594 C 887.603 654.070, 887.837 651.397, 888.250 651.653 C 888.663 651.909, 889 651.443, 889 650.618 C 889 649.793, 888.528 648.826, 887.951 648.470 C 887.337 648.090, 887.261 647.341, 887.767 646.661 C 889.174 644.772, 889.153 629.895, 887.742 628.151 C 887.020 627.258, 886.966 626.895, 887.615 627.283 C 888.411 627.760, 888.585 625.885, 888.225 620.725 C 887.947 616.751, 887.446 613.275, 887.110 613 C 886.775 612.725, 886.447 611.150, 886.383 609.500 C 886.319 607.850, 885.969 604.925, 885.607 603 C 884.735 598.371, 884.346 595.205, 884.157 591.191 C 884.070 589.371, 883.631 588.110, 883.181 588.388 C 882.730 588.667, 882.566 587.504, 882.815 585.805 C 883.092 583.918, 882.883 582.954, 882.279 583.328 C 881.686 583.694, 881.478 582.948, 881.761 581.470 C 882.035 580.036, 881.765 579, 881.117 579 C 880.502 579, 880.099 578.663, 880.219 578.250 C 880.683 576.660, 877.678 565, 876.804 565 C 876.297 565, 876.147 564.571, 876.472 564.046 C 877.397 562.549, 875.912 557.936, 874.739 558.661 C 874.134 559.035, 873.988 558.829, 874.392 558.175 C 874.777 557.552, 874.531 556.020, 873.845 554.771 C 873.159 553.522, 872.454 551.635, 872.279 550.578 C 872.104 549.522, 871.464 548.059, 870.858 547.328 C 870.251 546.598, 870.105 546, 870.533 546 C 870.960 546, 870.453 545.023, 869.405 543.828 C 868.191 542.443, 868.044 541.958, 869 542.489 C 869.825 542.948, 869.409 542.125, 868.076 540.661 C 866.742 539.198, 865.935 538, 866.281 538 C 867.288 538, 864.235 530.139, 862.021 527.030 C 860.909 525.468, 860 523.707, 860 523.115 C 860 522.523, 858.329 519.443, 856.288 516.269 C 854.246 513.096, 852.481 509.909, 852.367 509.186 C 852.252 508.463, 851.335 507.113, 850.329 506.186 C 849.323 505.259, 848.354 503.825, 848.175 503 C 847.996 502.175, 847.434 501.350, 846.925 501.167 C 846.416 500.983, 846 500.280, 846 499.604 C 846 498.927, 844.666 497.096, 843.036 495.534 C 841.405 493.972, 840.261 492.386, 840.493 492.011 C 840.726 491.635, 839.255 489.566, 837.224 487.414 C 835.194 485.261, 833.525 483.275, 833.516 483 C 833.507 482.725, 833.129 482.624, 832.676 482.775 C 832.222 482.926, 832.105 482.639, 832.415 482.137 C 832.726 481.635, 830.172 478.408, 826.740 474.965 C 823.308 471.523, 821.175 469.084, 822 469.545 C 823.293 470.268, 823.310 470.150, 822.128 468.692 C 821.373 467.761, 820.242 467, 819.615 467 C 818.987 467, 818.030 465.988, 817.487 464.750 C 816.944 463.512, 815.487 462.056, 814.250 461.513 C 813.013 460.970, 812 460.013, 812 459.385 C 812 458.758, 811.212 457.627, 810.250 456.872 C 808.627 455.600, 808.609 455.645, 810 457.500 C 810.825 458.600, 808.396 456.477, 804.603 452.782 C 800.810 449.087, 797.253 446.344, 796.699 446.686 C 796.143 447.030, 795.997 446.814, 796.373 446.205 C 796.751 445.594, 796.038 444.558, 794.778 443.887 C 793.525 443.219, 792.006 442.003, 791.402 441.184 C 790.798 440.365, 789.774 440.022, 789.127 440.422 C 788.439 440.847, 788.065 440.633, 788.225 439.906 C 788.376 439.223, 787.471 438.127, 786.213 437.471 C 784.954 436.815, 782.929 435.381, 781.713 434.283 C 780.496 433.186, 777.933 431.436, 776.018 430.394 C 774.103 429.352, 771.930 427.933, 771.188 427.241 C 770.446 426.548, 769.425 426.237, 768.919 426.550 C 768.414 426.862, 767.986 426.754, 767.969 426.309 C 767.951 425.864, 766.752 424.636, 765.304 423.579 C 763.603 422.338, 762.932 422.161, 763.410 423.079 C 763.816 423.861, 763.470 423.667, 762.641 422.650 C 761.762 421.572, 760.624 421.115, 759.912 421.554 C 759.079 422.069, 758.949 421.892, 759.502 420.997 C 760.104 420.023, 759.767 419.828, 758.191 420.240 C 756.888 420.581, 756.152 420.352, 756.284 419.647 C 756.403 419.016, 755.938 418.612, 755.250 418.750 C 754.563 418.887, 754 418.601, 754 418.114 C 754 416.752, 747.052 413.766, 745.378 414.408 C 744.543 414.729, 744.163 414.545, 744.507 413.989 C 744.843 413.445, 744.564 413, 743.888 413 C 743.211 413, 741.757 412.212, 740.657 411.250 C 739.231 410.003, 738.905 409.931, 739.520 411 C 740.237 412.244, 740.122 412.288, 738.850 411.259 C 738.006 410.576, 736.948 410.351, 736.498 410.759 C 736.048 411.166, 735.995 410.951, 736.381 410.279 C 737.030 409.149, 735.874 408.578, 730.941 407.591 C 728.558 407.114, 725.538 405.702, 724.909 404.772 C 724.584 404.291, 723.234 403.755, 721.909 403.581 C 720.584 403.407, 718.734 402.940, 717.798 402.544 C 716.862 402.147, 715.555 402.157, 714.893 402.566 C 714.131 403.037, 713.952 402.886, 714.405 402.155 C 714.873 401.397, 714.239 401, 712.559 401 C 709.067 401, 709.369 401.073, 706.346 399.504 C 704.860 398.733, 703.274 398.331, 702.822 398.610 C 702.370 398.890, 702 398.703, 702 398.196 C 702 397.408, 695.367 396.022, 683.500 394.333 C 681.850 394.098, 679.195 393.477, 677.601 392.953 C 673.781 391.697, 672.728 391.750, 673.595 393.155 C 674.086 393.948, 673.870 394.031, 672.905 393.420 C 672.132 392.931, 670.825 392.517, 670 392.500 C 669.175 392.483, 667.950 392.120, 667.277 391.693 C 666.605 391.265, 664.355 390.924, 662.277 390.933 C 660.200 390.943, 651.975 390.801, 644 390.619 C 636.025 390.436, 626.449 390.468, 622.720 390.690 M 530.500 503.686 C 528.300 504.434, 525.825 505.332, 525 505.682 C 524.175 506.031, 523.129 506.235, 522.676 506.134 C 522.222 506.033, 522.122 506.389, 522.454 506.925 C 522.785 507.461, 522.031 508.443, 520.778 509.107 C 519.525 509.771, 517.586 511.369, 516.468 512.657 C 514.323 515.130, 512.381 515.871, 513.601 513.750 C 514.003 513.052, 513.932 512.855, 513.440 513.303 C 512.956 513.745, 512.547 515.095, 512.530 516.303 C 512.513 517.516, 511.940 518.388, 511.250 518.250 C 510.563 518.113, 510.113 518.563, 510.250 519.250 C 510.388 519.938, 509.904 520.376, 509.176 520.225 C 508.447 520.074, 508.105 520.361, 508.415 520.862 C 508.724 521.363, 508.308 522.329, 507.489 523.009 C 506.670 523.689, 506 524.810, 506 525.500 C 506 526.190, 505.330 527.311, 504.511 527.991 C 503.692 528.671, 503.269 529.626, 503.570 530.113 C 503.871 530.601, 503.650 531, 503.078 531 C 502.506 531, 501.757 532.122, 501.412 533.493 C 501.068 534.864, 500.374 535.731, 499.869 535.419 C 499.364 535.107, 499.037 535.222, 499.144 535.676 C 499.520 537.283, 497.765 544, 496.968 544 C 496.259 544, 495.193 547.290, 494.376 552 C 494.233 552.825, 493.787 555.075, 493.386 557 C 492.412 561.665, 492.295 586.936, 493.250 586.345 C 493.663 586.091, 494.056 587.484, 494.125 589.441 C 494.293 594.236, 494.381 594.714, 495.250 595.583 C 495.663 595.996, 496 597.383, 496 598.667 C 496 599.950, 496.379 601, 496.842 601 C 497.305 601, 498.507 603.813, 499.515 607.250 C 500.522 610.688, 501.831 614.175, 502.423 615 C 503.015 615.825, 504.096 617.560, 504.824 618.855 C 505.922 620.808, 505.922 621.080, 504.824 620.450 C 504.096 620.032, 504.744 621.029, 506.264 622.665 C 507.784 624.300, 508.722 625.945, 508.347 626.319 C 507.973 626.694, 508.176 627, 508.798 627 C 509.420 627, 510.440 627.954, 511.065 629.121 C 511.982 630.836, 511.941 631.093, 510.850 630.466 C 510.107 630.040, 510.822 631.110, 512.437 632.845 C 514.052 634.580, 514.952 636.007, 514.437 636.015 C 513.922 636.024, 513.992 636.361, 514.593 636.765 C 516.229 637.866, 523.132 647.998, 522.257 648.015 C 521.841 648.024, 521.950 648.365, 522.500 648.774 C 524.535 650.287, 528.447 655.295, 527 654.535 C 526.175 654.101, 526.747 654.956, 528.272 656.434 C 529.796 657.912, 530.739 659.613, 530.367 660.215 C 529.962 660.871, 530.153 661.023, 530.845 660.595 C 531.480 660.203, 532 660.379, 532 660.986 C 532 661.594, 533.013 663.139, 534.250 664.420 C 537.716 668.007, 540.045 671, 539.372 671 C 539.037 671, 540.841 673.138, 543.381 675.750 C 545.921 678.362, 547.999 680.899, 547.999 681.387 C 548 681.874, 556.078 690.199, 565.951 699.887 C 584.375 717.965, 598.632 731.049, 596.038 727.500 C 594.579 725.503, 600.382 730.206, 602.750 732.940 C 603.438 733.733, 604 733.987, 604 733.504 C 604 733.021, 605.352 733.921, 607.005 735.505 C 608.658 737.089, 610.674 738.482, 611.485 738.601 C 612.296 738.720, 613.676 739.533, 614.551 740.409 C 615.427 741.284, 616.529 742, 617 742 C 617.471 742, 618.645 742.788, 619.607 743.750 C 620.570 744.712, 621.712 745.500, 622.146 745.500 C 622.580 745.500, 623.855 746.288, 624.979 747.250 C 626.103 748.212, 627.326 749, 627.697 749 C 628.068 749, 629.485 750.013, 630.847 751.250 C 632.208 752.487, 632.939 752.825, 632.469 752 C 631.711 750.667, 631.832 750.667, 633.558 752 C 634.626 752.825, 635.831 753.950, 636.235 754.500 C 636.639 755.050, 636.976 755.093, 636.985 754.595 C 636.993 754.097, 637.947 754.547, 639.105 755.595 C 640.263 756.643, 641.388 757.388, 641.605 757.250 C 642.715 756.547, 644.831 757.188, 646.561 758.750 C 647.628 759.712, 649.400 760.653, 650.500 760.840 C 651.600 761.027, 653.175 761.756, 654 762.460 C 654.825 763.163, 656.063 763.535, 656.750 763.286 C 657.438 763.037, 658 763.396, 658 764.083 C 658 764.771, 658.296 765.037, 658.658 764.675 C 659.020 764.313, 659.807 764.415, 660.408 764.901 C 661.009 765.387, 664.313 766.568, 667.750 767.524 C 671.188 768.481, 674 769.681, 674 770.191 C 674 770.701, 674.402 770.869, 674.894 770.566 C 675.385 770.262, 677.359 770.670, 679.279 771.472 C 681.200 772.275, 684.285 773.213, 686.135 773.557 C 690.077 774.291, 692.303 774.772, 693 775.039 C 693.275 775.144, 694.337 775.142, 695.359 775.034 C 696.382 774.926, 696.952 775.268, 696.627 775.795 C 696.294 776.334, 697.236 776.650, 698.786 776.518 C 700.298 776.390, 702.653 776.733, 704.018 777.281 C 707.242 778.575, 731.952 778.985, 734.315 777.783 C 735.313 777.276, 736.888 776.691, 737.815 776.485 C 738.742 776.279, 740.962 775.666, 742.750 775.125 C 744.538 774.583, 746 774.307, 746 774.511 C 746 774.714, 747.205 774.256, 748.678 773.492 C 750.151 772.728, 751.726 772.331, 752.178 772.610 C 752.630 772.890, 753 772.696, 753 772.180 C 753 771.285, 758.284 768.641, 759.493 768.932 C 759.811 769.009, 760.767 768.376, 761.616 767.527 C 762.466 766.677, 763.687 766.283, 764.331 766.651 C 764.974 767.019, 765.162 766.948, 764.748 766.491 C 763.826 765.475, 766.814 762, 768.609 762 C 769.324 762, 771.444 759.990, 773.320 757.532 C 775.196 755.075, 777.089 753.387, 777.526 753.782 C 777.963 754.177, 778.039 754.006, 777.695 753.401 C 777.351 752.797, 777.854 751.447, 778.813 750.401 C 781.735 747.215, 786.388 736.736, 786.728 732.573 C 786.905 730.413, 787.543 728.050, 788.147 727.323 C 788.751 726.595, 788.910 726, 788.500 726 C 788.090 726, 788.282 725.365, 788.926 724.589 C 789.766 723.576, 789.787 722.987, 789 722.500 C 788.365 722.107, 788.259 721.333, 788.749 720.661 C 789.469 719.672, 789.630 713.539, 788.976 712 C 788.859 711.725, 788.816 711.163, 788.882 710.750 C 788.947 710.337, 788.550 710, 788 710 C 787.450 710, 787 709.523, 787 708.941 C 787 708.359, 787.563 708.220, 788.250 708.633 C 789.099 709.143, 789.060 708.842, 788.128 707.692 C 786.642 705.860, 785.494 705.372, 786.500 707 C 787.643 708.849, 785.753 708.021, 783.867 705.847 C 782.840 704.663, 782 704.072, 782 704.534 C 782 704.996, 780.555 704.052, 778.788 702.437 C 777.022 700.822, 776.234 700.361, 777.038 701.414 C 778.429 703.234, 778.378 703.264, 776 702.031 C 774.625 701.318, 772.892 700.252, 772.149 699.661 C 771.406 699.071, 770.090 698.484, 769.224 698.357 C 768.358 698.230, 767.267 697.441, 766.798 696.604 C 766.330 695.768, 765.284 695.338, 764.474 695.649 C 763.663 695.960, 763 695.716, 763 695.107 C 763 694.498, 762.438 694.112, 761.750 694.250 C 761.063 694.387, 760.592 693.998, 760.705 693.384 C 760.818 692.770, 760.143 692.269, 759.205 692.271 C 754.977 692.279, 753.913 691.950, 754.595 690.845 C 755.016 690.165, 754.872 689.961, 754.245 690.349 C 752.736 691.281, 749.881 690.001, 750.660 688.741 C 751.022 688.156, 750.833 687.985, 750.235 688.355 C 749.644 688.720, 748.504 688.361, 747.700 687.557 C 746.896 686.753, 745.998 686.335, 745.705 686.629 C 745.411 686.922, 744.120 686.585, 742.836 685.879 C 741.551 685.174, 739.954 684.504, 739.286 684.392 C 738.618 684.279, 736.749 683.245, 735.132 682.094 C 733.514 680.942, 731.672 680, 731.037 680 C 730.402 680, 730.203 679.480, 730.595 678.845 C 731.050 678.109, 730.868 677.963, 730.093 678.442 C 729.425 678.856, 726.681 678.249, 723.997 677.094 C 721.313 675.939, 718.228 675.130, 717.142 675.296 C 716.055 675.462, 711.867 678.925, 707.833 682.991 C 703.800 687.057, 701.175 690.005, 702 689.542 C 702.825 689.079, 702.038 690.251, 700.250 692.147 C 698.462 694.044, 697 695.960, 697 696.407 C 697 697.205, 694.534 700.183, 690.402 704.372 C 689.248 705.543, 687.749 707.551, 687.071 708.836 C 686.393 710.120, 685.611 710.945, 685.334 710.668 C 685.058 710.391, 683.955 710.915, 682.885 711.832 C 680.754 713.658, 673 714.330, 673 712.689 C 673 712.127, 672.726 711.941, 672.391 712.276 C 671.107 713.560, 649.589 703.796, 650.785 702.471 C 651.178 702.036, 650.978 701.978, 650.340 702.343 C 648.817 703.215, 645.849 702.053, 646.580 700.870 C 646.893 700.364, 646.778 700.051, 646.324 700.173 C 644.584 700.644, 641 698.808, 641.640 697.773 C 642.008 697.178, 641.860 696.968, 641.312 697.307 C 640.245 697.967, 629.704 691.629, 630.517 690.817 C 630.782 690.551, 630.430 690.333, 629.734 690.333 C 628.143 690.333, 618 683.107, 618 681.974 C 618 681.512, 617.063 680.837, 615.917 680.474 C 613.240 679.624, 587.805 654.124, 588.505 652.992 C 588.796 652.521, 588.109 651.489, 586.978 650.697 C 583.811 648.479, 576.980 638.853, 577.689 637.608 C 578.036 636.999, 577.956 636.830, 577.510 637.233 C 576.434 638.207, 569.899 627.998, 570.698 626.593 C 571.041 625.992, 570.960 625.826, 570.520 626.224 C 569.513 627.133, 565.733 620.241, 566.531 618.951 C 566.854 618.428, 566.626 618, 566.024 618 C 565.265 618, 565.236 617.427, 565.930 616.131 C 566.480 615.104, 566.621 613.954, 566.244 613.577 C 565.867 613.200, 566.188 612.502, 566.959 612.026 C 567.729 611.549, 568.465 610.441, 568.594 609.561 C 568.723 608.682, 570.105 606.720, 571.664 605.201 C 573.224 603.682, 575.021 601.553, 575.657 600.470 C 576.293 599.386, 577.418 598.650, 578.157 598.833 C 578.896 599.017, 579.178 598.844, 578.783 598.450 C 578.135 597.802, 582.656 590.496, 585.750 587.192 C 586.438 586.458, 587 585.214, 587 584.429 C 587 583.643, 587.370 583, 587.821 583 C 588.273 583, 588.749 580.665, 588.879 577.811 C 589.010 574.956, 589.385 572.187, 589.713 571.656 C 590.041 571.125, 589.839 570.982, 589.264 571.337 C 588.357 571.897, 586.745 567.170, 586.536 563.340 C 586.502 562.702, 585.702 561.329, 584.760 560.288 C 583.818 559.247, 582.879 557.519, 582.672 556.448 C 582.465 555.376, 581.832 553.375, 581.265 552 C 580.699 550.625, 580.434 549.163, 580.676 548.750 C 580.919 548.337, 580.681 548, 580.146 548 C 579.612 548, 577.937 544.737, 576.423 540.750 C 574.910 536.763, 573.121 532.600, 572.447 531.500 C 571.005 529.144, 568.497 521.565, 569.090 521.355 C 569.315 521.275, 568.750 520.375, 567.834 519.355 C 566.918 518.335, 565.368 515.493, 564.391 513.039 C 563.414 510.585, 561.277 507.210, 559.642 505.539 C 558.008 503.868, 557.039 503.132, 557.490 503.905 C 558.096 504.944, 557.945 505.084, 556.905 504.441 C 556.133 503.964, 554.213 503.709, 552.638 503.874 C 551.063 504.039, 550.018 503.781, 550.315 503.299 C 551.190 501.884, 534.865 502.202, 530.500 503.686" stroke="none" fill="#fffcfc" fill-rule="evenodd"/><path d="M 638.516 343.026 C 638.943 343.717, 649.674 343.659, 650.371 342.962 C 650.647 342.687, 648.013 342.462, 644.520 342.462 C 641.026 342.462, 638.324 342.715, 638.516 343.026 M 1007.982 1006.750 L 997.500 1017.500 1008.250 1007.018 C 1014.163 1001.253, 1019 996.415, 1019 996.268 C 1019 995.546, 1017.718 996.765, 1007.982 1006.750" stroke="none" fill="#fcfcfc" fill-rule="evenodd"/></svg>