<svg xmlns="http://www.w3.org/2000/svg" width="1280" height="1280" viewBox="0 0 1280 1280" version="1.1"><path d="M 621.641 119.771 C 621.346 120.249, 619.394 120.571, 617.302 120.486 C 615.211 120.402, 612.851 120.820, 612.058 121.416 C 610.958 122.243, 610.800 122.194, 611.392 121.209 C 611.997 120.204, 611.099 120.019, 607.334 120.372 C 604.675 120.620, 600.561 120.864, 598.191 120.912 C 595.522 120.967, 594.123 121.390, 594.515 122.025 C 595.322 123.330, 592.749 122.839, 591.765 121.500 C 591.285 120.846, 591.025 120.866, 591.015 121.557 C 591.007 122.139, 589.649 122.521, 587.998 122.407 C 586.346 122.292, 584.771 122.562, 584.497 123.006 C 584.222 123.449, 583.052 123.565, 581.897 123.263 C 580.666 122.941, 579.430 123.291, 578.913 124.107 C 578.281 125.104, 578.026 125.145, 578.015 124.250 C 577.997 122.755, 574.385 122.569, 573.490 124.016 C 573.144 124.575, 572.411 124.754, 571.860 124.413 C 570.076 123.311, 561.887 125.005, 562.673 126.314 C 563.134 127.083, 562.820 127.043, 561.781 126.201 C 560.824 125.426, 559.940 125.288, 559.588 125.858 C 559.264 126.383, 558.028 126.559, 556.843 126.249 C 555.462 125.888, 554.924 126.067, 555.345 126.749 C 555.766 127.431, 555.228 127.611, 553.845 127.249 C 552.178 126.813, 551.880 127.005, 552.536 128.092 C 553.258 129.292, 553.134 129.297, 551.692 128.128 C 550.697 127.321, 550 127.192, 550 127.815 C 550 128.457, 548.689 128.662, 546.674 128.335 C 544.389 127.964, 542.849 128.294, 541.754 129.388 C 540.577 130.566, 540.047 130.658, 539.726 129.741 C 539.410 128.837, 538.761 128.971, 537.332 130.236 C 535.821 131.576, 535.101 131.701, 534.186 130.786 C 533.271 129.871, 533 129.890, 533 130.867 C 533 131.680, 532.282 131.907, 531 131.500 C 529.900 131.151, 529 131.320, 529 131.875 C 529 132.431, 528.152 132.722, 527.115 132.522 C 525.481 132.207, 523.362 132.578, 516 134.463 C 515.175 134.674, 513.911 134.881, 513.191 134.923 C 512.471 134.966, 512.098 135.349, 512.362 135.776 C 512.626 136.203, 511.047 136.624, 508.853 136.710 C 506.659 136.797, 504.220 137.403, 503.432 138.056 C 502.644 138.710, 502 138.895, 502 138.467 C 502 138.040, 501.023 138.547, 499.828 139.595 C 498.634 140.643, 498.015 140.889, 498.453 140.143 C 499.071 139.091, 498.716 138.945, 496.875 139.494 C 495.569 139.883, 494.050 140.748, 493.500 141.415 C 492.950 142.082, 491.260 142.556, 489.745 142.468 C 488.229 142.380, 486.525 142.867, 485.958 143.551 C 485.391 144.234, 483.973 144.544, 482.807 144.239 C 481.233 143.828, 480.896 144.023, 481.498 144.997 C 482.030 145.858, 481.919 146.068, 481.175 145.608 C 479.758 144.732, 471.886 147.006, 472.559 148.096 C 472.831 148.536, 472.147 148.721, 471.038 148.507 C 469.930 148.294, 468.456 148.655, 467.762 149.310 C 467.068 149.964, 465.420 150.619, 464.099 150.765 C 462.779 150.911, 461.058 151.811, 460.275 152.765 C 459.492 153.719, 459.184 153.861, 459.590 153.080 C 460.138 152.025, 459.879 151.832, 458.582 152.330 C 457.622 152.699, 456.622 153, 456.359 153 C 456.097 153, 456.134 153.408, 456.442 153.907 C 456.751 154.405, 456.197 154.603, 455.212 154.345 C 454.209 154.083, 452.628 154.754, 451.617 155.871 C 450.624 156.968, 449.146 157.609, 448.331 157.297 C 446.701 156.671, 437 160.844, 437 162.171 C 437 162.627, 435.902 163, 434.559 163 C 433.216 163, 431.840 163.450, 431.500 164 C 431.160 164.550, 430.009 165, 428.941 165 C 427.873 165, 427 165.525, 427 166.167 C 427 166.808, 426.718 167.051, 426.373 166.707 C 425.567 165.900, 419.741 168.861, 418.724 170.594 C 418.297 171.322, 417.284 171.662, 416.474 171.351 C 415.663 171.040, 415 171.311, 415 171.952 C 415 172.593, 414.550 172.840, 414 172.500 C 413.450 172.160, 413 172.359, 413 172.941 C 413 173.523, 412.663 173.947, 412.250 173.882 C 410.087 173.540, 408.954 174.125, 409.601 175.250 C 409.997 175.938, 409.952 176.166, 409.502 175.759 C 409.052 175.351, 407.994 175.576, 407.150 176.259 C 405.882 177.284, 405.749 177.240, 406.382 176 C 406.804 175.175, 406.419 175.400, 405.528 176.500 C 404.636 177.600, 403.366 178.510, 402.704 178.522 C 400.580 178.561, 395 181.210, 395 182.180 C 395 182.696, 394.550 182.840, 394 182.500 C 393.450 182.160, 393 182.610, 393 183.500 C 393 184.390, 392.591 184.865, 392.090 184.556 C 390.782 183.747, 387.905 185.037, 388.580 186.130 C 388.893 186.636, 388.778 186.985, 388.324 186.906 C 386.099 186.520, 384.181 187.183, 382.208 189.021 C 381.015 190.132, 379.693 191.077, 379.269 191.121 C 378.846 191.164, 378.581 191.512, 378.681 191.892 C 378.780 192.273, 377.926 192.655, 376.782 192.741 C 375.638 192.828, 374.206 193.437, 373.601 194.096 C 372.775 194.994, 372.851 195.093, 373.905 194.492 C 374.853 193.951, 375.074 194.071, 374.585 194.862 C 374.187 195.506, 373.413 195.755, 372.864 195.416 C 372.316 195.077, 371.189 195.632, 370.359 196.650 C 369.530 197.667, 369.196 197.825, 369.618 197 C 370.277 195.709, 370.149 195.691, 368.692 196.872 C 367.761 197.627, 366.993 198.977, 366.985 199.872 C 366.973 201.153, 366.788 201.214, 366.119 200.158 C 365.409 199.038, 364.914 199.037, 363.134 200.148 C 361.960 200.881, 361 201.823, 361 202.241 C 361 202.658, 360.298 203, 359.441 203 C 358.584 203, 358.160 203.450, 358.500 204 C 358.840 204.550, 358.395 205, 357.511 205 C 356.627 205, 354.745 206.237, 353.327 207.750 C 351.910 209.262, 351.355 209.600, 352.095 208.500 C 353.256 206.773, 353.094 206.807, 350.905 208.750 C 349.511 209.988, 347.837 211, 347.184 211 C 346.532 211, 344.093 212.912, 341.764 215.250 C 339.435 217.588, 337.973 218.804, 338.515 217.953 C 339.121 217.002, 338.874 217.081, 337.874 218.160 C 336.980 219.125, 335.967 219.634, 335.624 219.291 C 335.281 218.948, 335 219.139, 335 219.717 C 335 220.294, 334.087 221.005, 332.971 221.297 C 331.856 221.589, 331.068 222.429, 331.221 223.164 C 331.391 223.977, 330.776 224.376, 329.650 224.183 C 328.539 223.993, 328.063 224.293, 328.459 224.933 C 328.821 225.520, 328.660 226, 328.099 226 C 327.539 226, 325.858 227.238, 324.363 228.750 C 322.868 230.262, 322.280 230.600, 323.055 229.500 L 324.466 227.500 321.991 229.500 C 320.630 230.600, 318.501 232.625, 317.260 234 C 316.018 235.375, 315.002 236.107, 315.001 235.628 C 315.001 235.148, 314.330 235.311, 313.511 235.991 C 312.692 236.671, 312.276 237.637, 312.585 238.138 C 312.895 238.639, 312.553 238.926, 311.824 238.775 C 311.096 238.624, 310.624 239.096, 310.775 239.824 C 310.926 240.553, 310.662 240.909, 310.188 240.616 C 308.948 239.850, 305 242.848, 305 244.557 C 305 245.860, 303.792 246.441, 301.750 246.118 C 301.337 246.053, 301.112 246.542, 301.250 247.205 C 301.387 247.867, 300.960 248.430, 300.300 248.455 C 299.640 248.480, 298.515 249.129, 297.800 249.897 C 296.721 251.056, 296.755 251.156, 298 250.485 C 298.825 250.041, 298.409 250.875, 297.076 252.339 C 294.356 255.324, 293.027 255.941, 295.110 253.250 C 297.748 249.844, 291.838 255.328, 276.332 270.676 C 267.900 279.022, 261 286.335, 261 286.926 C 261 287.517, 260.277 288, 259.393 288 C 258.352 288, 257.996 288.546, 258.382 289.552 C 258.709 290.406, 258.598 290.869, 258.134 290.583 C 257.119 289.956, 252.735 294.402, 253.557 295.224 C 253.874 295.541, 253.584 296.139, 252.912 296.554 C 252.059 297.082, 251.946 296.886, 252.537 295.905 C 253.242 294.735, 253.117 294.716, 251.790 295.791 C 250.913 296.501, 249.914 298.207, 249.569 299.582 C 249.224 300.957, 248.591 301.865, 248.163 301.601 C 247.347 301.096, 243.500 305.672, 243.500 307.146 C 243.500 307.616, 243.050 308.038, 242.500 308.085 C 241.012 308.212, 238.958 310.124, 239.452 310.922 C 239.688 311.305, 238.557 312.869, 236.937 314.398 C 235.317 315.927, 234.252 317.599, 234.570 318.113 C 234.888 318.628, 234.623 318.926, 233.981 318.775 C 233.339 318.624, 232.293 319.381, 231.657 320.458 C 231.021 321.535, 229.933 323.033, 229.241 323.788 C 228.548 324.543, 228.244 325.586, 228.565 326.105 C 228.886 326.625, 228.623 326.926, 227.981 326.775 C 227.339 326.624, 226.293 327.381, 225.657 328.458 C 225.021 329.535, 223.933 331.033, 223.241 331.788 C 222.548 332.543, 222.244 333.586, 222.565 334.105 C 222.886 334.625, 222.553 334.926, 221.824 334.775 C 221.084 334.621, 220.616 335.213, 220.763 336.117 C 220.908 337.006, 220.233 338.356, 219.263 339.117 C 217.632 340.397, 217.608 340.351, 218.945 338.500 C 220.303 336.622, 220.283 336.597, 218.628 338.103 C 217.659 338.984, 216.772 340.346, 216.657 341.128 C 216.543 341.911, 215.431 343.569, 214.188 344.812 C 212.944 346.056, 212.238 347.576, 212.618 348.191 C 213.038 348.871, 212.856 349.029, 212.155 348.595 C 211.106 347.948, 210.536 349.194, 210.906 351.324 C 210.985 351.778, 210.636 351.893, 210.130 351.580 C 209.624 351.267, 208.908 351.796, 208.540 352.756 C 208.172 353.715, 208.012 354.511, 208.185 354.524 C 208.358 354.537, 207.248 355.887, 205.719 357.524 C 204.189 359.161, 202.659 361.625, 202.318 363 C 201.977 364.375, 200.641 366.574, 199.349 367.886 C 198.057 369.199, 197 370.849, 197 371.553 C 197 372.257, 196.584 372.983, 196.075 373.167 C 195.566 373.350, 195.004 374.157, 194.825 374.961 C 194.646 375.764, 193.713 377.312, 192.750 378.400 C 191.149 380.209, 190.534 382.183, 190.906 384.324 C 190.985 384.778, 190.588 384.864, 190.025 384.515 C 189.461 384.167, 189 384.359, 189 384.941 C 189 386.894, 188.707 387.493, 187.099 388.824 C 185.837 389.869, 185.816 390.012, 187 389.500 C 188.061 389.042, 188.005 389.259, 186.812 390.241 C 185.883 391.005, 184.983 392.258, 184.812 393.026 C 184.640 393.794, 183.728 395.295, 182.785 396.362 C 181.841 397.430, 181.305 398.685, 181.594 399.151 C 181.882 399.618, 181.690 400, 181.166 400 C 180.642 400, 179.946 400.698, 179.618 401.552 C 179.217 402.597, 179.427 402.871, 180.261 402.391 C 180.943 401.998, 180.464 402.817, 179.198 404.209 C 177.931 405.601, 176.825 407.668, 176.740 408.801 C 176.655 409.934, 176.294 410.682, 175.939 410.462 C 175.583 410.242, 174.773 411.202, 174.139 412.595 C 173.227 414.597, 173.248 414.979, 174.242 414.417 C 175.249 413.848, 175.251 413.975, 174.250 415.053 C 173.563 415.794, 173 417.162, 173 418.093 C 173 419.024, 172.261 420.070, 171.357 420.417 C 170.453 420.763, 169.965 421.298, 170.272 421.605 C 170.578 421.912, 169.743 423.764, 168.415 425.721 C 167.087 427.678, 166 429.891, 166 430.640 C 166 433.139, 165.866 433.490, 164.179 435.422 C 163.255 436.479, 163.043 437.027, 163.708 436.639 C 164.540 436.153, 164.479 436.776, 163.509 438.645 C 162.735 440.137, 162.374 441.796, 162.706 442.333 C 163.038 442.870, 162.855 443.029, 162.301 442.686 C 161.746 442.343, 160.773 443.202, 160.139 444.595 C 159.226 446.598, 159.248 446.974, 160.242 446.392 C 160.934 445.987, 160.712 446.558, 159.748 447.659 C 158.784 448.761, 158.297 449.963, 158.664 450.331 C 159.032 450.699, 158.760 451, 158.060 451 C 157.338 451, 157.036 451.651, 157.362 452.500 C 157.678 453.325, 157.453 454, 156.862 454 C 156.270 454, 156.045 454.675, 156.362 455.500 C 156.678 456.325, 156.549 457, 156.076 457 C 155.602 457, 154.946 457.698, 154.618 458.552 C 154.216 459.600, 154.425 459.869, 155.261 459.380 C 155.943 458.982, 155.600 459.711, 154.500 461 C 153.292 462.416, 153.094 463.010, 154 462.500 C 154.950 461.966, 154.801 462.453, 153.595 463.828 C 152.547 465.023, 152.040 466, 152.467 466 C 152.895 466, 152.689 466.669, 152.011 467.487 C 151.332 468.305, 151.033 469.643, 151.347 470.461 C 151.660 471.278, 151.193 472.352, 150.309 472.847 C 149.261 473.434, 148.900 474.509, 149.273 475.935 C 149.636 477.325, 149.326 478.321, 148.422 478.668 C 147.640 478.968, 147 479.642, 147 480.166 C 147 480.690, 147.562 480.789, 148.250 480.387 C 148.937 479.985, 148.769 480.521, 147.875 481.578 C 146.981 482.635, 146.379 484.290, 146.537 485.255 C 146.695 486.220, 146.414 486.756, 145.912 486.446 C 145.052 485.914, 144.719 487.258, 144.731 491.227 C 144.733 492.177, 144.311 492.692, 143.791 492.371 C 143.241 492.031, 143.048 493.065, 143.329 494.849 C 143.631 496.763, 143.288 498.346, 142.417 499.069 C 141.650 499.706, 141.249 500.595, 141.527 501.044 C 141.805 501.494, 141.603 502.127, 141.078 502.452 C 140.553 502.776, 140.306 503.993, 140.530 505.156 C 140.754 506.319, 140.638 506.972, 140.273 506.606 C 139.908 506.241, 139.042 508.093, 138.349 510.721 C 136.905 516.195, 136.742 518.427, 138 515.500 C 138.511 514.310, 138.888 514.076, 138.930 514.921 C 138.968 515.703, 138.255 517.165, 137.345 518.171 C 136.096 519.551, 136.021 520, 137.036 520 C 137.920 520, 137.752 520.461, 136.545 521.344 C 135.276 522.271, 134.863 523.501, 135.209 525.313 C 135.496 526.812, 135.309 527.691, 134.774 527.360 C 134.259 527.042, 133.926 527.618, 134.034 528.641 C 134.142 529.663, 134.144 530.725, 134.039 531 C 133.933 531.275, 133.700 532.175, 133.520 533 C 133.340 533.825, 132.848 535.361, 132.427 536.414 C 131.829 537.907, 131.973 538.140, 133.080 537.472 C 134.246 536.769, 134.278 536.890, 133.259 538.150 C 132.576 538.994, 132.313 539.980, 132.675 540.342 C 133.037 540.704, 132.808 541, 132.167 541 C 131.525 541, 131 541.477, 131 542.059 C 131 542.641, 131.563 542.780, 132.250 542.367 C 133.099 541.857, 133.060 542.158, 132.128 543.308 C 131.373 544.239, 131.090 545, 131.500 545 C 131.910 545, 131.627 545.761, 130.872 546.692 C 129.689 548.151, 129.706 548.262, 131 547.500 C 132.266 546.754, 132.298 546.865, 131.204 548.215 C 129.414 550.425, 127.950 559.995, 129.399 560.015 C 130.005 560.024, 129.872 560.428, 129.104 560.914 C 128.337 561.400, 127.974 562.489, 128.298 563.334 C 128.622 564.179, 128.466 565.012, 127.950 565.185 C 127.069 565.481, 125.917 575.197, 125.628 584.750 C 125.558 587.087, 125.202 589, 124.838 589 C 124.031 589, 124.288 591.071, 125.294 592.681 C 125.700 593.330, 125.620 594.117, 125.116 594.428 C 124.611 594.740, 124.292 596.338, 124.405 597.979 C 124.519 599.620, 124.137 601.123, 123.556 601.319 C 122.898 601.541, 123.065 602.373, 124 603.529 C 124.825 604.549, 124.963 605.061, 124.306 604.667 C 123.430 604.142, 123.055 605.894, 122.901 611.225 C 122.467 626.221, 122.686 662.877, 123.268 673 C 123.601 678.775, 123.910 685.075, 123.955 687 C 124 688.925, 124.310 691.175, 124.643 692 C 124.977 692.825, 125.158 695.686, 125.045 698.358 C 124.932 701.031, 125.222 702.981, 125.688 702.693 C 126.433 702.232, 126.782 705.770, 126.926 715.250 C 126.949 716.763, 127.339 718, 127.791 718 C 128.244 718, 128.521 719.351, 128.407 721.002 C 128.292 722.654, 128.611 724.260, 129.116 724.572 C 129.620 724.883, 129.769 725.565, 129.446 726.087 C 128.667 727.348, 131.058 742, 132.044 742 C 132.467 742, 132.578 742.899, 132.290 743.998 C 132.003 745.097, 132.542 747.178, 133.488 748.621 C 134.434 750.065, 134.641 750.896, 133.949 750.469 C 133.055 749.916, 132.941 750.095, 133.555 751.088 C 134.030 751.857, 134.557 754.217, 134.727 756.332 C 134.896 758.447, 135.645 760.788, 136.390 761.533 C 137.162 762.304, 137.530 764.009, 137.246 765.495 C 136.895 767.331, 137.443 768.843, 139.100 770.607 C 141.011 772.641, 141.107 772.978, 139.610 772.404 C 137.986 771.781, 137.904 771.952, 138.919 773.848 C 139.552 775.032, 139.774 776, 139.413 776 C 139.051 776, 139.222 776.562, 139.793 777.250 C 140.877 778.556, 141 778.997, 141 781.559 C 141 782.416, 141.362 782.894, 141.805 782.620 C 142.248 782.347, 142.650 783.937, 142.699 786.155 C 142.748 788.373, 143.286 790.686, 143.894 791.294 C 144.502 791.902, 145 793.380, 145 794.578 C 145 795.775, 145.612 797.263, 146.360 797.884 C 147.134 798.526, 147.515 800.088, 147.244 801.506 C 146.981 802.878, 147.174 804, 147.671 804 C 148.168 804, 148.641 804.887, 148.723 805.971 C 148.941 808.860, 153.219 820.298, 154.619 821.732 C 155.281 822.410, 155.585 823.873, 155.294 824.982 C 154.989 826.150, 155.256 827, 155.927 827 C 156.565 827, 156.983 827.563, 156.855 828.250 C 156.538 829.956, 160.282 840, 161.235 840 C 161.656 840, 162 840.810, 162 841.800 C 162 842.790, 162.540 844.140, 163.200 844.800 C 163.860 845.460, 164.007 846, 163.526 846 C 163.045 846, 163.742 847.198, 165.076 848.661 C 166.409 850.125, 166.868 850.955, 166.095 850.507 C 165.054 849.902, 164.918 850.054, 165.567 851.095 C 166.049 851.868, 166.539 853.130, 166.655 853.900 C 166.772 854.670, 167.385 855.620, 168.019 856.012 C 168.652 856.403, 169.132 857.011, 169.085 857.362 C 168.825 859.308, 169.100 860.056, 169.895 859.565 C 170.388 859.260, 171.057 859.707, 171.384 860.558 C 171.710 861.408, 171.574 861.855, 171.082 861.551 C 170.589 861.246, 170.421 861.893, 170.707 862.987 C 170.993 864.082, 171.685 864.695, 172.243 864.350 C 172.805 864.003, 173.050 864.344, 172.792 865.111 C 172.535 865.875, 173.039 867.096, 173.912 867.824 C 174.786 868.552, 174.980 868.889, 174.344 868.573 C 173.471 868.139, 173.467 868.591, 174.327 870.413 C 174.954 871.742, 175.889 872.569, 176.404 872.251 C 176.926 871.928, 177.057 872.408, 176.701 873.336 C 176.337 874.286, 176.550 875, 177.198 875 C 177.822 875, 178.029 875.304, 177.658 875.676 C 177.286 876.048, 177.998 877.470, 179.241 878.837 C 180.483 880.204, 180.904 880.978, 180.176 880.557 C 178.382 879.518, 180.541 883.386, 184 887.405 C 185.375 889.002, 185.937 889.988, 185.250 889.596 C 183.394 888.536, 183.727 889.808, 186.223 893.314 C 187.446 895.031, 188.536 897.042, 188.644 897.782 C 188.753 898.523, 189.707 899.887, 190.764 900.814 C 191.822 901.741, 192.495 903.062, 192.260 903.749 C 192.026 904.437, 192.544 905.271, 193.411 905.604 C 194.279 905.937, 194.771 906.561, 194.505 906.991 C 194.239 907.422, 194.692 908.329, 195.511 909.009 C 196.330 909.689, 197 910.780, 197 911.434 C 197 912.088, 198.005 913.701, 199.232 915.019 C 200.460 916.337, 201.498 917.884, 201.540 918.458 C 201.702 920.722, 203.266 922.954, 204.259 922.340 C 204.844 921.978, 205.015 922.167, 204.645 922.765 C 204.280 923.356, 204.773 924.630, 205.741 925.598 C 206.708 926.566, 207.387 927.502, 207.250 927.679 C 207.113 927.855, 207.286 927.888, 207.635 927.750 C 208.304 927.487, 210.411 932.002, 210.175 933.192 C 210.100 933.573, 211.155 934.763, 212.519 935.836 C 213.884 936.910, 215 938.484, 215 939.335 C 215 940.186, 215.520 941.203, 216.155 941.595 C 216.918 942.068, 217.035 941.866, 216.500 941 C 215.961 940.127, 216.081 939.932, 216.862 940.415 C 217.506 940.813, 217.743 941.607, 217.388 942.181 C 217.034 942.754, 217.139 943.511, 217.622 943.862 C 218.105 944.213, 219.021 945.400, 219.657 946.500 C 220.293 947.600, 221.290 948.393, 221.871 948.262 C 222.452 948.131, 222.673 948.690, 222.360 949.504 C 222.039 950.342, 222.488 951.250, 223.396 951.599 C 224.278 951.937, 225 952.786, 225 953.485 C 225 954.183, 225.787 955.373, 226.750 956.128 C 228.373 957.400, 228.391 957.355, 227 955.500 C 225.606 953.642, 225.625 953.598, 227.263 954.883 C 228.233 955.644, 228.908 956.994, 228.763 957.883 C 228.618 958.773, 229.063 959.387, 229.750 959.250 C 230.438 959.112, 231 959.830, 231 960.845 C 231 962.987, 234.320 966.347, 235.384 965.283 C 235.781 964.886, 235.827 965.288, 235.486 966.177 C 235.090 967.209, 235.692 968.372, 237.155 969.396 C 238.415 970.278, 239.041 971, 238.548 971 C 238.055 971, 238.695 972.111, 239.971 973.469 C 241.247 974.827, 242.745 975.658, 243.300 975.315 C 243.855 974.972, 244.030 975.142, 243.689 975.694 C 243.348 976.246, 243.893 977.581, 244.899 978.662 C 245.906 979.742, 247.263 981.623, 247.915 982.841 C 248.568 984.060, 249.597 984.749, 250.205 984.373 C 250.814 983.997, 251.030 984.143, 250.685 984.700 C 250.342 985.255, 251.272 986.787, 252.751 988.105 C 254.777 989.910, 255.078 990.008, 253.970 988.500 C 252.612 986.653, 252.633 986.604, 254.239 987.863 C 255.195 988.613, 255.759 989.581, 255.491 990.014 C 255.223 990.448, 258.603 994.465, 263.002 998.941 C 267.401 1003.417, 271.007 1007.624, 271.015 1008.290 C 271.025 1009.044, 271.396 1008.934, 272 1008 C 272.795 1006.769, 272.972 1006.876, 272.985 1008.595 C 272.998 1010.465, 276.607 1014.882, 277.605 1014.250 C 277.822 1014.112, 278.038 1014.337, 278.085 1014.750 C 278.251 1016.210, 280.239 1017.970, 281.113 1017.430 C 281.601 1017.129, 282 1017.359, 282 1017.941 C 282 1018.523, 282.675 1019, 283.500 1019 C 284.325 1019, 285 1019.488, 285 1020.085 C 285 1021.756, 297.256 1032.960, 298.346 1032.286 C 298.876 1031.959, 299.025 1032.150, 298.678 1032.712 C 297.877 1034.009, 301.380 1037.261, 302.491 1036.252 C 302.948 1035.838, 303.011 1036.040, 302.632 1036.700 C 302.229 1037.403, 302.888 1038.400, 304.222 1039.109 C 305.475 1039.773, 307.109 1041.176, 307.854 1042.226 C 308.598 1043.276, 309.794 1043.909, 310.510 1043.635 C 311.933 1043.089, 315 1045.953, 315 1047.829 C 315 1048.473, 315.381 1049, 315.847 1049 C 316.313 1049, 317.721 1049.891, 318.976 1050.979 C 320.231 1052.068, 321.585 1052.756, 321.986 1052.509 C 322.386 1052.262, 324.173 1053.877, 325.958 1056.098 C 327.743 1058.319, 329.775 1059.917, 330.473 1059.649 C 331.171 1059.381, 333.703 1061.159, 336.099 1063.601 C 338.495 1066.042, 341.051 1067.811, 341.779 1067.531 C 342.508 1067.252, 342.843 1067.445, 342.524 1067.961 C 341.811 1069.116, 345.458 1071.208, 346.452 1070.215 C 346.845 1069.822, 347.017 1070.018, 346.833 1070.650 C 346.650 1071.282, 346.950 1071.877, 347.500 1071.971 C 348.050 1072.065, 349.212 1072.786, 350.081 1073.573 C 350.951 1074.360, 351.963 1074.703, 352.331 1074.336 C 352.699 1073.968, 353 1074.417, 353 1075.333 C 353 1076.250, 353.675 1077, 354.500 1077 C 355.325 1077, 356 1077.450, 356 1078 C 356 1078.550, 356.477 1079, 357.059 1079 C 357.641 1079, 357.794 1078.438, 357.399 1077.750 C 356.981 1077.024, 357.061 1076.849, 357.590 1077.333 C 358.090 1077.792, 358.500 1078.579, 358.500 1079.083 C 358.500 1079.587, 358.801 1079.888, 359.169 1079.750 C 359.538 1079.612, 360.888 1080.429, 362.169 1081.565 C 364.695 1083.804, 370.041 1087.356, 371.250 1087.599 C 371.663 1087.682, 372.337 1087.860, 372.750 1087.993 C 373.163 1088.127, 373.838 1088.184, 374.250 1088.118 C 374.663 1088.053, 374.888 1088.562, 374.750 1089.250 C 374.613 1089.937, 375.063 1090.387, 375.750 1090.250 C 376.438 1090.112, 377 1090.402, 377 1090.893 C 377 1091.384, 377.698 1092.054, 378.552 1092.382 C 379.596 1092.782, 379.872 1092.571, 379.397 1091.739 C 379.009 1091.057, 380.047 1091.761, 381.704 1093.301 C 383.361 1094.842, 385.649 1096.173, 386.789 1096.259 C 387.929 1096.345, 388.780 1096.727, 388.681 1097.108 C 388.581 1097.488, 388.900 1097.807, 389.388 1097.815 C 389.877 1097.823, 390.552 1098.254, 390.888 1098.773 C 391.960 1100.428, 401.287 1104.941, 402.318 1104.304 C 402.863 1103.967, 403.062 1104.098, 402.761 1104.595 C 402.459 1105.093, 404.186 1106.464, 406.598 1107.642 C 409.011 1108.820, 410.739 1109.387, 410.440 1108.903 C 410.141 1108.419, 410.594 1108.291, 411.448 1108.618 C 412.302 1108.946, 413 1109.642, 413 1110.166 C 413 1110.690, 413.403 1110.869, 413.895 1110.565 C 414.388 1110.260, 415.066 1110.731, 415.404 1111.609 C 415.764 1112.550, 416.652 1112.964, 417.560 1112.615 C 418.409 1112.289, 418.858 1112.421, 418.558 1112.907 C 417.855 1114.043, 420.846 1115.213, 422.245 1114.349 C 422.918 1113.933, 423.011 1114.174, 422.498 1115.003 C 421.894 1115.980, 422.238 1116.171, 423.845 1115.751 C 425.032 1115.440, 425.751 1115.595, 425.442 1116.093 C 425.134 1116.592, 425.809 1117, 426.941 1117 C 428.073 1117, 429 1117.477, 429 1118.059 C 429 1118.641, 429.450 1118.840, 430 1118.500 C 430.550 1118.160, 431.007 1118.471, 431.015 1119.191 C 431.028 1120.258, 431.186 1120.255, 431.870 1119.176 C 432.548 1118.107, 433.026 1118.169, 434.355 1119.498 C 435.260 1120.402, 436.014 1120.773, 436.032 1120.321 C 436.049 1119.870, 436.694 1120.333, 437.465 1121.350 C 438.287 1122.434, 439.372 1122.888, 440.088 1122.446 C 440.868 1121.963, 441.051 1122.108, 440.595 1122.845 C 439.963 1123.869, 441.794 1124.506, 444.250 1124.118 C 444.663 1124.053, 445 1124.450, 445 1125 C 445 1125.550, 445.477 1126, 446.059 1126 C 446.641 1126, 446.840 1125.550, 446.500 1125 C 445.411 1123.238, 446.853 1123.929, 449.108 1126.250 C 450.310 1127.487, 450.912 1127.833, 450.445 1127.018 C 449.978 1126.204, 450.872 1126.541, 452.433 1127.768 C 455.560 1130.228, 457.468 1130.690, 456.485 1128.750 C 456.137 1128.063, 456.492 1128.281, 457.275 1129.234 C 458.057 1130.188, 459.015 1130.651, 459.403 1130.263 C 459.791 1129.875, 460.467 1130.137, 460.904 1130.845 C 461.342 1131.554, 462.330 1132.282, 463.100 1132.464 C 463.870 1132.646, 465.400 1133.089, 466.500 1133.448 C 467.600 1133.808, 468.900 1134.041, 469.388 1133.966 C 469.877 1133.891, 470.605 1134.362, 471.008 1135.012 C 471.410 1135.663, 472.922 1136.264, 474.369 1136.348 C 475.815 1136.431, 476.999 1136.890, 476.999 1137.367 C 477 1137.843, 478.111 1138.021, 479.470 1137.761 C 480.983 1137.472, 481.697 1137.681, 481.313 1138.302 C 480.932 1138.918, 481.506 1139.101, 482.779 1138.768 C 484.056 1138.434, 485.078 1138.762, 485.404 1139.611 C 485.697 1140.375, 486.428 1141, 487.028 1141 C 487.627 1141, 487.789 1140.437, 487.387 1139.750 C 486.985 1139.063, 487.579 1139.308, 488.707 1140.295 C 489.834 1141.282, 492.049 1142.182, 493.629 1142.295 C 495.208 1142.408, 496.768 1142.865, 497.096 1143.310 C 497.424 1143.756, 499.291 1144.206, 501.245 1144.310 C 503.199 1144.415, 504.545 1144.914, 504.235 1145.420 C 503.925 1145.926, 504.406 1146.058, 505.304 1145.714 C 506.202 1145.369, 507.202 1145.518, 507.527 1146.044 C 508.409 1147.471, 510.219 1147.200, 509.485 1145.750 C 509.137 1145.063, 509.518 1145.317, 510.333 1146.315 C 511.189 1147.363, 513.331 1148.208, 515.403 1148.315 C 517.376 1148.417, 518.993 1148.785, 518.996 1149.133 C 519.004 1150.296, 523.923 1150.726, 524.386 1149.605 C 524.666 1148.928, 524.873 1149.007, 524.921 1149.809 C 524.964 1150.529, 525.450 1150.840, 526 1150.500 C 526.550 1150.160, 527 1150.359, 527 1150.941 C 527 1151.523, 527.477 1152, 528.059 1152 C 528.641 1152, 528.852 1151.569, 528.526 1151.042 C 528.201 1150.515, 529.186 1150.735, 530.717 1151.530 C 532.353 1152.379, 533.636 1152.572, 533.830 1151.997 C 534.015 1151.450, 534.757 1151.614, 535.513 1152.370 C 537.013 1153.871, 544.588 1155.373, 546.061 1154.463 C 546.577 1154.143, 547 1154.411, 547 1155.058 C 547 1155.718, 547.828 1156.017, 548.889 1155.739 C 549.928 1155.467, 551.376 1155.614, 552.106 1156.065 C 552.837 1156.518, 553.969 1156.441, 554.627 1155.894 C 555.423 1155.234, 556.042 1155.258, 556.480 1155.968 C 556.842 1156.553, 557.557 1156.774, 558.069 1156.457 C 558.581 1156.141, 559 1156.395, 559 1157.023 C 559 1157.746, 560.262 1157.993, 562.455 1157.698 C 564.505 1157.421, 566.101 1157.693, 566.379 1158.366 C 566.696 1159.133, 567.177 1159.027, 567.863 1158.040 C 568.733 1156.788, 569.196 1156.859, 571.111 1158.540 C 572.444 1159.710, 572.996 1159.895, 572.480 1159 C 571.735 1157.707, 571.849 1157.689, 573.308 1158.872 C 574.239 1159.627, 575 1159.988, 575 1159.674 C 575 1159.361, 576.398 1159.591, 578.107 1160.187 C 580.523 1161.029, 581.397 1160.976, 582.031 1159.950 C 582.704 1158.861, 583.125 1158.858, 584.424 1159.937 C 585.291 1160.656, 586 1160.875, 586 1160.422 C 586 1159.970, 586.540 1160.140, 587.200 1160.800 C 588.757 1162.357, 598.243 1162.357, 599.800 1160.800 C 600.733 1159.867, 601 1159.948, 601 1161.165 C 601 1163.282, 607.237 1163.172, 608.180 1161.038 C 608.766 1159.711, 608.869 1159.728, 608.930 1161.162 C 608.972 1162.167, 609.691 1162.711, 610.750 1162.540 C 611.712 1162.384, 613.097 1162.733, 613.826 1163.314 C 614.788 1164.081, 615.402 1163.977, 616.061 1162.936 C 616.616 1162.059, 616.975 1161.958, 616.985 1162.677 C 616.996 1163.554, 622.928 1163.780, 640.250 1163.565 C 653.038 1163.405, 663.500 1163.179, 663.500 1163.061 C 663.500 1162.943, 664.290 1162.696, 665.255 1162.511 C 666.220 1162.327, 666.756 1162.586, 666.446 1163.088 C 666.136 1163.590, 667.259 1164, 668.941 1164 C 670.623 1164, 672 1163.609, 672 1163.131 C 672 1162.653, 673.800 1162.470, 676 1162.724 C 678.509 1163.014, 680 1162.779, 680 1162.093 C 680 1161.492, 680.477 1161, 681.059 1161 C 681.641 1161, 681.902 1161.350, 681.637 1161.778 C 680.867 1163.024, 695.423 1161.879, 696.235 1160.630 C 696.639 1160.008, 696.976 1159.893, 696.985 1160.372 C 696.993 1160.852, 697.761 1160.627, 698.692 1159.872 C 700.026 1158.790, 700.215 1158.781, 699.585 1159.827 C 698.958 1160.869, 699.507 1161.014, 702.144 1160.501 C 703.990 1160.142, 706.513 1159.877, 707.750 1159.913 C 708.987 1159.948, 710.007 1159.420, 710.015 1158.739 C 710.025 1157.928, 710.365 1158.018, 711 1159 C 711.533 1159.825, 711.976 1160.019, 711.985 1159.432 C 711.993 1158.828, 713.520 1158.484, 715.500 1158.640 C 717.425 1158.792, 719 1158.527, 719 1158.051 C 719 1157.576, 719.893 1157.421, 720.985 1157.706 C 722.077 1157.992, 723.764 1157.879, 724.735 1157.455 C 725.706 1157.031, 727.127 1156.790, 727.894 1156.919 C 728.660 1157.048, 729.666 1156.557, 730.128 1155.827 C 730.630 1155.036, 730.976 1154.952, 730.985 1155.620 C 730.996 1156.418, 733.081 1156.329, 738.250 1155.311 C 742.237 1154.525, 745.950 1153.741, 746.500 1153.569 C 747.050 1153.396, 747.900 1153.236, 748.388 1153.213 C 748.877 1153.190, 749.657 1152.570, 750.123 1151.835 C 750.664 1150.982, 750.975 1150.917, 750.985 1151.656 C 750.993 1152.316, 751.854 1152.589, 752.989 1152.293 C 754.083 1152.007, 754.746 1151.397, 754.462 1150.939 C 754.179 1150.480, 754.849 1150.278, 755.952 1150.491 C 757.055 1150.703, 758.193 1150.497, 758.480 1150.032 C 758.767 1149.568, 759.895 1149.421, 760.986 1149.707 C 762.077 1149.992, 763.764 1149.878, 764.735 1149.454 C 765.706 1149.030, 766.856 1148.760, 767.291 1148.855 C 767.725 1148.949, 769.045 1148.511, 770.224 1147.880 C 771.402 1147.250, 774.123 1146.603, 776.271 1146.443 C 778.418 1146.282, 781.113 1145.330, 782.260 1144.326 C 783.406 1143.322, 784.041 1143.021, 783.671 1143.657 C 783.222 1144.427, 783.662 1144.640, 784.987 1144.293 C 786.082 1144.007, 786.687 1143.303, 786.332 1142.729 C 785.926 1142.071, 786.486 1141.894, 787.845 1142.249 C 789.241 1142.614, 789.768 1142.434, 789.337 1141.737 C 788.916 1141.056, 789.283 1140.895, 790.336 1141.299 C 791.251 1141.650, 792 1141.556, 792 1141.091 C 792 1140.626, 793.350 1140.360, 795 1140.500 C 796.650 1140.640, 798 1140.312, 798 1139.771 C 798 1139.229, 798.642 1139.032, 799.427 1139.334 C 800.212 1139.635, 801.418 1139.202, 802.107 1138.371 C 802.796 1137.540, 804.179 1137.075, 805.179 1137.337 C 806.180 1137.598, 807.255 1137.397, 807.568 1136.890 C 807.882 1136.382, 808.557 1136.226, 809.069 1136.543 C 809.581 1136.859, 810 1136.615, 810 1136 C 810 1135.385, 810.450 1135.160, 811 1135.500 C 811.550 1135.840, 812 1135.641, 812 1135.059 C 812 1134.477, 812.337 1134.095, 812.750 1134.211 C 813.163 1134.327, 814.992 1134.108, 816.816 1133.723 C 819.119 1133.237, 819.901 1132.638, 819.374 1131.762 C 818.813 1130.828, 819.042 1130.845, 820.252 1131.826 C 821.642 1132.953, 822.145 1132.853, 823.591 1131.164 C 824.538 1130.059, 825.959 1129.431, 826.792 1129.750 C 827.628 1130.071, 828.888 1129.506, 829.645 1128.471 C 830.390 1127.452, 831 1127.144, 831 1127.787 C 831 1129.228, 836.065 1127.231, 837.276 1125.313 C 837.703 1124.636, 838.733 1124.344, 839.564 1124.663 C 840.395 1124.982, 841.845 1124.545, 842.787 1123.693 C 844.537 1122.109, 844.845 1122, 847.559 1122 C 848.483 1122, 848.827 1121.530, 848.405 1120.845 C 847.949 1120.108, 848.132 1119.963, 848.912 1120.446 C 849.624 1120.885, 850.762 1120.428, 851.641 1119.350 C 852.470 1118.333, 852.804 1118.175, 852.382 1119 C 851.749 1120.240, 851.882 1120.284, 853.150 1119.259 C 853.994 1118.576, 854.980 1118.313, 855.342 1118.675 C 855.704 1119.037, 856 1118.623, 856 1117.755 C 856 1116.813, 856.705 1116.289, 857.750 1116.455 C 859.830 1116.786, 866.635 1113.565, 869.613 1110.841 C 870.775 1109.778, 872.125 1108.983, 872.613 1109.073 C 874.661 1109.452, 876.076 1108.933, 875.507 1108.011 C 875.157 1107.445, 875.558 1107.277, 876.448 1107.618 C 877.304 1107.947, 878 1107.691, 878 1107.048 C 878 1106.407, 878.390 1106.123, 878.866 1106.417 C 879.343 1106.712, 880.528 1106.074, 881.500 1105 C 882.472 1103.926, 883.623 1103.267, 884.059 1103.536 C 885.436 1104.388, 889.999 1101.747, 890.015 1100.089 C 890.029 1098.698, 890.151 1098.687, 891 1100 C 891.887 1101.373, 892.445 1100.697, 892.094 1098.676 C 892.015 1098.222, 892.371 1098.111, 892.885 1098.429 C 894.297 1099.301, 897.081 1097.941, 896.340 1096.741 C 895.981 1096.159, 896.166 1095.985, 896.755 1096.349 C 898.264 1097.281, 901.119 1096.001, 900.340 1094.741 C 899.975 1094.150, 900.168 1093.985, 900.781 1094.365 C 901.380 1094.735, 902.925 1093.984, 904.214 1092.695 C 905.502 1091.407, 907.012 1090.504, 907.569 1090.690 C 908.125 1090.875, 909.463 1090.313, 910.540 1089.439 C 911.618 1088.566, 911.868 1088.180, 911.095 1088.580 C 910.140 1089.076, 909.933 1088.918, 910.447 1088.086 C 910.862 1087.414, 911.832 1087.105, 912.601 1087.400 C 913.371 1087.696, 914 1087.501, 914 1086.969 C 914 1086.436, 914.563 1086.112, 915.250 1086.250 C 915.938 1086.387, 916.350 1085.825, 916.167 1085 C 915.983 1084.175, 916.153 1083.820, 916.543 1084.210 C 917.641 1085.307, 923.167 1082.080, 922.378 1080.803 C 921.962 1080.129, 922.146 1079.972, 922.845 1080.405 C 923.480 1080.797, 924 1080.615, 924 1080 C 924 1079.385, 924.470 1079.172, 925.044 1079.527 C 926.350 1080.334, 929.179 1078.098, 928.415 1076.862 C 928.105 1076.361, 928.222 1076.015, 928.676 1076.094 C 931.045 1076.505, 932.823 1075.688, 935.963 1072.745 C 937.868 1070.960, 939.668 1069.567, 939.963 1069.650 C 940.258 1069.732, 940.387 1069.395, 940.250 1068.900 C 940.112 1068.405, 940.337 1068.053, 940.750 1068.118 C 942.801 1068.442, 944 1067.857, 944 1066.531 C 944 1065.724, 944.563 1065.274, 945.250 1065.533 C 945.938 1065.792, 947.871 1064.765, 949.547 1063.252 C 951.223 1061.738, 953.473 1059.979, 954.547 1059.343 C 955.621 1058.707, 956.376 1057.661, 956.225 1057.019 C 956.074 1056.377, 956.435 1056.151, 957.028 1056.517 C 957.621 1056.884, 958.915 1056.251, 959.905 1055.110 C 960.894 1053.970, 961.931 1053.264, 962.209 1053.542 C 962.487 1053.821, 963.342 1053.276, 964.107 1052.332 C 965.300 1050.863, 965.298 1050.738, 964.095 1051.463 C 963.135 1052.041, 962.920 1051.939, 963.415 1051.138 C 963.813 1050.494, 964.499 1050.190, 964.939 1050.462 C 965.379 1050.734, 967.910 1048.829, 970.562 1046.229 C 973.215 1043.628, 974.736 1042.400, 973.942 1043.500 C 972.611 1045.347, 972.634 1045.395, 974.250 1044.128 C 975.212 1043.373, 976 1042.109, 976 1041.319 C 976 1040.528, 976.366 1040.108, 976.812 1040.384 C 977.876 1041.042, 983.161 1036.494, 982.316 1035.649 C 981.959 1035.292, 982.331 1035, 983.142 1035 C 983.954 1035, 985.491 1034.292, 986.559 1033.426 C 987.626 1032.560, 987.868 1032.180, 987.095 1032.580 C 986.172 1033.059, 985.935 1032.914, 986.405 1032.155 C 986.797 1031.520, 987.666 1031, 988.336 1031 C 990.162 1031, 1020 1001.486, 1020 999.680 C 1020 998.821, 1020.520 997.797, 1021.155 997.405 C 1021.934 996.923, 1022.040 997.148, 1021.483 998.095 C 1021.028 998.868, 1021.623 998.652, 1022.805 997.616 C 1023.986 996.580, 1024.705 995.332, 1024.402 994.842 C 1024.099 994.351, 1024.447 994.074, 1025.176 994.225 C 1025.904 994.376, 1026.376 993.904, 1026.225 993.176 C 1026.074 992.447, 1026.351 992.099, 1026.842 992.402 C 1027.332 992.705, 1028.538 992.063, 1029.521 990.976 C 1030.505 989.889, 1030.990 989, 1030.600 989 C 1030.209 989, 1031.827 986.921, 1034.195 984.379 C 1036.563 981.838, 1038.387 979.363, 1038.250 978.879 C 1038.112 978.396, 1038.562 978.112, 1039.250 978.250 C 1039.937 978.387, 1040.376 977.904, 1040.225 977.176 C 1040.074 976.447, 1040.392 976.125, 1040.933 976.458 C 1041.473 976.792, 1042.566 975.813, 1043.362 974.283 C 1044.159 972.752, 1045.978 970.409, 1047.405 969.076 C 1048.832 967.742, 1050 966.265, 1050 965.792 C 1050 965.320, 1051.463 963.464, 1053.250 961.667 C 1056.325 958.577, 1065.351 946.053, 1067.487 941.913 C 1068.030 940.861, 1068.818 940, 1069.237 940 C 1069.657 940, 1070 939.110, 1070 938.023 C 1070 936.936, 1071.098 935.327, 1072.440 934.448 C 1074.043 933.397, 1074.674 932.275, 1074.280 931.175 C 1073.951 930.254, 1074.050 929.835, 1074.501 930.244 C 1075.573 931.217, 1078.306 927.304, 1077.484 925.973 C 1077.136 925.411, 1077.447 925.074, 1078.176 925.225 C 1078.927 925.381, 1079.435 924.714, 1079.350 923.683 C 1079.267 922.684, 1079.440 922.106, 1079.733 922.399 C 1080.391 923.058, 1083.111 919.653, 1085.644 915 C 1086.692 913.075, 1088.364 910.282, 1089.361 908.794 C 1090.357 907.306, 1090.901 905.649, 1090.569 905.112 C 1090.238 904.576, 1090.779 903.544, 1091.771 902.818 C 1094.184 901.056, 1098 894.374, 1098 891.911 C 1098 890.826, 1098.701 889.668, 1099.557 889.340 C 1100.414 889.011, 1100.869 888.102, 1100.569 887.319 C 1100.266 886.531, 1100.464 886.169, 1101.011 886.507 C 1101.555 886.843, 1102 886.454, 1102 885.642 C 1102 884.831, 1102.416 884.017, 1102.925 883.833 C 1103.434 883.650, 1103.996 882.836, 1104.175 882.024 C 1104.354 881.212, 1105.022 879.982, 1105.661 879.291 C 1106.300 878.600, 1106.598 877.015, 1106.324 875.768 C 1105.985 874.224, 1106.118 873.908, 1106.740 874.778 C 1107.422 875.733, 1107.953 875.398, 1108.839 873.453 C 1109.492 872.022, 1109.787 870.465, 1109.496 869.994 C 1109.205 869.523, 1109.396 868.873, 1109.920 868.549 C 1111.344 867.669, 1114 861.965, 1114 859.787 C 1114 858.739, 1114.392 858.124, 1114.872 858.421 C 1115.351 858.717, 1116.589 856.833, 1117.622 854.234 C 1118.655 851.636, 1119.671 849.107, 1119.880 848.615 C 1120.089 848.124, 1119.639 848.043, 1118.880 848.435 C 1118.121 848.827, 1118.333 848.470, 1119.350 847.641 C 1120.428 846.762, 1120.885 845.624, 1120.446 844.912 C 1119.990 844.175, 1120.107 843.948, 1120.741 844.340 C 1121.929 845.074, 1123.305 842.303, 1122.444 840.910 C 1122.135 840.409, 1122.310 840, 1122.834 840 C 1123.358 840, 1124.054 839.302, 1124.382 838.448 C 1124.786 837.394, 1124.580 837.135, 1123.739 837.640 C 1122.758 838.229, 1122.758 838.065, 1123.741 836.850 C 1124.424 836.006, 1124.649 834.948, 1124.241 834.498 C 1123.834 834.048, 1124.063 834.003, 1124.750 834.399 C 1125.852 835.033, 1126.154 834.305, 1125.964 831.464 C 1125.945 831.170, 1126.593 830.264, 1127.405 829.453 C 1128.216 828.641, 1128.706 827.070, 1128.493 825.962 C 1128.245 824.678, 1128.506 824.194, 1129.210 824.630 C 1129.941 825.081, 1130.124 824.582, 1129.751 823.155 C 1129.389 821.772, 1129.569 821.234, 1130.251 821.655 C 1130.933 822.076, 1131.112 821.538, 1130.751 820.155 C 1130.440 818.968, 1130.547 818.220, 1130.988 818.493 C 1132.093 819.175, 1132.988 816.532, 1132.504 814.018 C 1132.284 812.879, 1132.480 812.179, 1132.939 812.462 C 1133.397 812.746, 1134.007 812.082, 1134.293 810.987 C 1134.641 809.655, 1134.431 809.226, 1133.657 809.691 C 1132.895 810.147, 1132.924 809.860, 1133.741 808.850 C 1134.424 808.006, 1134.649 806.948, 1134.241 806.498 C 1133.834 806.048, 1133.995 805.962, 1134.601 806.307 C 1135.996 807.101, 1138.542 799.687, 1137.470 797.952 C 1136.931 797.079, 1137.094 796.940, 1138.003 797.502 C 1138.980 798.106, 1139.171 797.762, 1138.751 796.155 C 1138.440 794.968, 1138.547 794.220, 1138.987 794.492 C 1140.048 795.148, 1141.252 790.217, 1140.376 788.800 C 1139.932 788.082, 1140.153 787.977, 1141.003 788.502 C 1141.980 789.106, 1142.171 788.763, 1141.751 787.156 C 1141.441 785.970, 1141.595 785, 1142.094 785 C 1142.592 785, 1143 784.523, 1143 783.941 C 1143 783.359, 1142.438 783.211, 1141.750 783.613 C 1141.063 784.015, 1141.400 783.289, 1142.500 782 C 1143.708 780.584, 1143.906 779.990, 1143 780.500 C 1141.842 781.152, 1141.879 780.906, 1143.165 779.422 C 1144.896 777.425, 1146.583 770.791, 1146.133 767.750 C 1145.991 766.788, 1146.405 766, 1147.054 766 C 1147.769 766, 1148.047 765.027, 1147.761 763.530 C 1147.472 762.017, 1147.681 761.303, 1148.302 761.687 C 1148.923 762.070, 1149.097 761.478, 1148.751 760.156 C 1148.441 758.970, 1148.576 758, 1149.051 758 C 1149.527 758, 1149.791 756.413, 1149.638 754.473 C 1149.478 752.442, 1149.925 750.477, 1150.692 749.840 C 1151.769 748.947, 1151.783 748.436, 1150.762 747.175 C 1150.007 746.243, 1149.956 745.889, 1150.636 746.296 C 1151.328 746.711, 1151.957 746.005, 1152.247 744.488 C 1152.509 743.120, 1152.325 742, 1151.838 742 C 1151.352 742, 1151.617 740.987, 1152.427 739.750 C 1153.237 738.512, 1154.085 735.351, 1154.310 732.723 C 1154.535 730.096, 1155.008 727.659, 1155.360 727.307 C 1156.558 726.108, 1156.044 723.855, 1154.750 724.633 C 1153.794 725.207, 1153.764 725.044, 1154.622 723.942 C 1155.238 723.149, 1155.616 721.712, 1155.460 720.750 C 1155.304 719.788, 1155.700 718.993, 1156.338 718.985 C 1157.074 718.975, 1157.003 718.654, 1156.143 718.110 C 1155.260 717.550, 1155.151 717.024, 1155.832 716.604 C 1156.407 716.249, 1156.703 715.055, 1156.491 713.952 C 1156.278 712.849, 1156.501 712.192, 1156.986 712.491 C 1157.471 712.791, 1157.832 711.788, 1157.788 710.263 C 1157.745 708.738, 1158.048 706.424, 1158.462 705.120 C 1159.049 703.270, 1158.916 702.929, 1157.857 703.567 C 1156.788 704.211, 1156.744 704.078, 1157.649 702.942 C 1158.281 702.149, 1158.658 700.260, 1158.487 698.745 C 1158.315 697.230, 1158.586 696.244, 1159.088 696.554 C 1159.955 697.090, 1160.186 694.286, 1160.553 678.727 C 1160.641 675.002, 1161.002 671.664, 1161.356 671.310 C 1162.313 670.354, 1162.137 665.797, 1161.167 666.397 C 1160.708 666.680, 1160.333 666.277, 1160.333 665.500 C 1160.333 664.723, 1160.708 664.320, 1161.167 664.603 C 1161.625 664.886, 1162 664.390, 1162 663.500 C 1162 662.472, 1161.544 662.156, 1160.750 662.633 C 1159.795 663.207, 1159.764 663.044, 1160.621 661.942 C 1162.288 659.798, 1162.405 623.205, 1160.751 621.162 C 1159.752 619.928, 1159.752 619.767, 1160.750 620.367 C 1161.505 620.821, 1162 620.580, 1162 619.759 C 1162 619.012, 1161.438 617.794, 1160.750 617.053 C 1159.750 615.976, 1159.750 615.848, 1160.750 616.412 C 1161.526 616.850, 1162 616.504, 1162 615.500 C 1162 614.472, 1161.544 614.156, 1160.750 614.633 C 1159.753 615.232, 1159.751 615.074, 1160.741 613.850 C 1161.424 613.006, 1161.694 612.027, 1161.340 611.674 C 1160.987 611.320, 1160.560 606.187, 1160.392 600.266 C 1160.223 594.345, 1159.768 588.375, 1159.380 587 C 1158.992 585.625, 1158.782 583.873, 1158.914 583.106 C 1159.046 582.340, 1158.557 581.334, 1157.827 580.872 C 1156.747 580.187, 1156.744 580.028, 1157.809 580.015 C 1158.535 580.007, 1158.803 579.491, 1158.411 578.856 C 1158.022 578.227, 1157.741 576.419, 1157.786 574.838 C 1157.841 572.877, 1157.491 572.190, 1156.684 572.674 C 1155.850 573.174, 1155.867 572.930, 1156.741 571.850 C 1157.424 571.006, 1157.699 570.032, 1157.351 569.685 C 1156.804 569.138, 1156.062 563.721, 1155.888 559 C 1155.857 558.175, 1155.599 556.825, 1155.314 556 C 1155.030 555.175, 1154.625 552.506, 1154.415 550.069 C 1154.205 547.632, 1153.688 545.382, 1153.267 545.069 C 1152.845 544.756, 1152.434 543.600, 1152.353 542.500 C 1151.869 535.902, 1150.654 530.401, 1149.184 528.153 C 1148.247 526.720, 1148.054 525.919, 1148.750 526.348 C 1149.448 526.778, 1150 526.650, 1150 526.059 C 1150 525.477, 1149.475 525, 1148.833 525 C 1148.192 525, 1147.963 524.704, 1148.325 524.342 C 1148.687 523.980, 1148.424 522.994, 1147.741 522.150 C 1146.712 520.878, 1146.756 520.763, 1148 521.480 C 1149.206 522.175, 1149.183 521.968, 1147.880 520.422 C 1146.990 519.365, 1146.470 517.922, 1146.725 517.216 C 1146.980 516.510, 1146.584 515.187, 1145.845 514.274 C 1144.694 512.855, 1144.716 512.741, 1146 513.480 C 1146.893 513.994, 1146.690 513.395, 1145.500 512 C 1144.400 510.711, 1144.132 510.028, 1144.905 510.483 C 1145.950 511.098, 1146.082 510.950, 1145.420 509.905 C 1144.387 508.274, 1144.293 507.874, 1144.125 504.441 C 1144.056 503.034, 1143.615 502.120, 1143.144 502.411 C 1142.674 502.702, 1142.298 501.941, 1142.308 500.720 C 1142.350 495.969, 1141.964 493.904, 1141.132 494.418 C 1140.655 494.713, 1140.267 494.177, 1140.269 493.227 C 1140.281 489.263, 1139.949 487.914, 1139.093 488.442 C 1138.595 488.751, 1138.440 488.032, 1138.751 486.845 C 1139.097 485.523, 1138.923 484.930, 1138.302 485.313 C 1137.681 485.697, 1137.472 484.983, 1137.761 483.470 C 1138.065 481.881, 1137.775 481, 1136.950 481 C 1136.244 481, 1135.968 480.699, 1136.336 480.331 C 1136.703 479.963, 1136.216 478.761, 1135.252 477.659 C 1133.996 476.224, 1133.925 475.895, 1135 476.500 C 1136.210 477.181, 1136.187 476.972, 1134.880 475.422 C 1133.990 474.365, 1133.463 472.942, 1133.711 472.259 C 1133.958 471.576, 1133.469 470.326, 1132.623 469.480 C 1131.777 468.634, 1131.331 467.302, 1131.631 466.519 C 1131.931 465.736, 1131.807 464.512, 1131.354 463.798 C 1130.901 463.084, 1130.486 462.275, 1130.432 462 C 1130.377 461.725, 1129.808 460.233, 1129.166 458.685 C 1128.525 457.137, 1128 455.285, 1128 454.570 C 1128 453.855, 1127.077 452.097, 1125.950 450.663 C 1124.822 449.230, 1124.013 447.481, 1124.152 446.778 C 1124.608 444.479, 1121.889 437.951, 1120.765 438.645 C 1120.153 439.024, 1119.979 438.842, 1120.362 438.224 C 1120.731 437.627, 1120.595 436.868, 1120.060 436.537 C 1119.525 436.206, 1119.341 435.275, 1119.651 434.468 C 1119.964 433.651, 1119.649 433, 1118.940 433 C 1118.240 433, 1117.963 432.704, 1118.325 432.342 C 1118.687 431.980, 1118.444 431.035, 1117.785 430.241 C 1117.127 429.448, 1116.484 428.092, 1116.357 427.230 C 1115.994 424.753, 1109.833 412.750, 1107.560 410.089 C 1106.427 408.763, 1106.066 408.004, 1106.758 408.402 C 1107.752 408.976, 1107.774 408.597, 1106.861 406.595 C 1106.227 405.202, 1105.254 404.343, 1104.699 404.686 C 1104.145 405.029, 1103.987 404.830, 1104.349 404.245 C 1105.228 402.821, 1104.034 399.861, 1102.870 400.580 C 1102.364 400.893, 1102.015 400.778, 1102.094 400.324 C 1102.228 399.553, 1102.150 399.155, 1101.490 397.250 C 1101.348 396.837, 1100.903 395.493, 1100.502 394.261 C 1100.101 393.030, 1099.379 392.266, 1098.898 392.563 C 1098.417 392.861, 1098.289 392.409, 1098.615 391.560 C 1098.964 390.652, 1098.550 389.764, 1097.609 389.404 C 1096.731 389.066, 1096.238 388.424, 1096.515 387.976 C 1096.792 387.528, 1096.307 386.450, 1095.438 385.581 C 1094.568 384.711, 1094.110 384, 1094.419 384 C 1094.728 384, 1094.306 383.213, 1093.482 382.250 C 1092.658 381.288, 1091.960 380.050, 1091.931 379.500 C 1091.902 378.950, 1091.033 377.600, 1090 376.500 C 1088.173 374.555, 1088 374.161, 1088 371.941 C 1088 371.359, 1087.640 371.104, 1087.200 371.376 C 1086.760 371.648, 1085.788 370.887, 1085.039 369.685 C 1083.756 367.624, 1083.784 367.585, 1085.543 369 C 1087.268 370.388, 1087.261 370.297, 1085.453 367.781 C 1084.379 366.286, 1083.136 365.049, 1082.691 365.031 C 1082.246 365.014, 1082.138 364.586, 1082.450 364.081 C 1082.763 363.575, 1082.452 362.562, 1081.759 361.831 C 1081.067 361.099, 1079.861 359.262, 1079.081 357.750 C 1078.301 356.238, 1077.077 355, 1076.362 355 C 1075.648 355, 1075.285 354.422, 1075.556 353.715 C 1075.827 353.008, 1075.138 351.452, 1074.025 350.257 C 1072.911 349.062, 1072 347.700, 1072 347.230 C 1072 346.761, 1071.213 345.480, 1070.250 344.384 C 1069.287 343.288, 1067.931 341.515, 1067.236 340.445 C 1063.098 334.080, 1062.149 332.864, 1061.367 332.929 C 1060.890 332.968, 1060.444 332.550, 1060.375 332 C 1060.306 331.450, 1060.194 330.580, 1060.125 330.067 C 1060.056 329.554, 1059.067 328.839, 1057.928 328.477 C 1056.676 328.080, 1056.071 327.258, 1056.399 326.403 C 1056.727 325.549, 1054.668 322.729, 1051.221 319.311 C 1048.075 316.189, 1046.096 313.990, 1046.824 314.422 C 1047.920 315.074, 1047.922 314.848, 1046.833 313.105 C 1046.110 311.947, 1045.222 311, 1044.858 311 C 1044.495 311, 1043.253 309.399, 1042.098 307.441 C 1040.943 305.484, 1039.538 304.168, 1038.974 304.516 C 1038.411 304.864, 1038.074 304.553, 1038.225 303.824 C 1038.376 303.096, 1037.904 302.624, 1037.176 302.775 C 1036.447 302.926, 1036.120 302.614, 1036.449 302.082 C 1036.778 301.550, 1035.462 299.528, 1033.524 297.590 C 1031.586 295.652, 1030 293.680, 1030 293.208 C 1030 292.735, 1028.776 291.258, 1027.280 289.924 C 1025.239 288.105, 1024.920 287.999, 1026 289.500 C 1027.080 291.001, 1026.761 290.895, 1024.720 289.076 C 1023.224 287.742, 1022 286.125, 1022 285.481 C 1022 284.158, 1018.129 280.371, 1017.156 280.741 C 1016.807 280.874, 1016.516 280.394, 1016.511 279.674 C 1016.498 278.062, 1013.551 275, 1012.012 275 C 1011.391 275, 1011.075 274.663, 1011.311 274.250 C 1011.865 273.281, 1003.342 264.991, 1002.578 265.755 C 1002.260 266.073, 1002 265.583, 1002 264.667 C 1002 263.750, 1001.523 263, 1000.941 263 C 1000.359 263, 1000.203 263.520, 1000.595 264.155 C 1001.051 264.892, 1000.868 265.037, 1000.088 264.554 C 999.416 264.139, 999.123 263.544, 999.436 263.231 C 1000.234 262.433, 996.963 259, 995.404 259 C 994.697 259, 993.797 258.480, 993.405 257.845 C 992.923 257.066, 993.148 256.960, 994.095 257.517 C 994.868 257.972, 994.652 257.377, 993.616 256.195 C 992.580 255.014, 991.273 254.331, 990.712 254.678 C 990.150 255.025, 989.981 254.840, 990.336 254.266 C 990.992 253.204, 984.119 247.303, 982.750 247.753 C 982.337 247.889, 982 247.325, 982 246.500 C 982 245.147, 980.813 244.556, 978.750 244.882 C 978.338 244.947, 978.113 244.437, 978.250 243.750 C 978.388 243.062, 977.904 242.624, 977.176 242.775 C 976.447 242.926, 976.110 242.631, 976.426 242.119 C 976.942 241.285, 967.464 233.599, 965.833 233.529 C 965.467 233.513, 964.792 233.090, 964.333 232.590 C 963.844 232.055, 964.119 231.977, 965 232.401 C 965.825 232.797, 965.474 232.307, 964.220 231.311 C 962.967 230.315, 960.267 228.048, 958.220 226.273 C 956.174 224.498, 954.022 223.036, 953.437 223.023 C 952.852 223.010, 951.081 221.650, 949.500 220 C 947.919 218.350, 945.939 217, 945.100 217 C 944.262 217, 942.658 215.966, 941.538 214.703 C 940.417 213.439, 939.725 212.898, 940 213.500 C 940.275 214.102, 939.600 213.659, 938.500 212.515 C 937.400 211.371, 935.600 209.783, 934.500 208.985 C 932.511 207.542, 932.510 207.548, 934.437 210.017 C 935.502 211.383, 934.909 211.030, 933.120 209.232 C 931.330 207.435, 929.376 206.267, 928.778 206.637 C 928.146 207.028, 927.977 206.847, 928.373 206.205 C 929.148 204.952, 925.442 202.609, 924.048 203.470 C 923.548 203.779, 922.813 203.506, 922.415 202.862 C 921.932 202.081, 922.127 201.961, 923 202.500 C 923.866 203.035, 924.068 202.918, 923.595 202.155 C 923.203 201.520, 922.375 201, 921.755 201 C 921.136 201, 919.515 199.988, 918.153 198.750 C 916.792 197.512, 916.049 197.175, 916.502 198 C 916.956 198.825, 916.150 198.262, 914.711 196.750 C 911.809 193.698, 910.007 193.013, 912.082 195.750 C 912.812 196.713, 911.938 196.063, 910.140 194.306 C 908.289 192.496, 906.250 191.351, 905.436 191.663 C 904.555 192.001, 904 191.593, 904 190.607 C 904 189.161, 902.850 188.550, 900.750 188.882 C 900.337 188.947, 900 188.475, 900 187.833 C 900 187.192, 899.738 186.929, 899.417 187.250 C 899.096 187.571, 897.936 186.936, 896.839 185.839 C 895.743 184.743, 894.182 184.100, 893.371 184.411 C 892.424 184.775, 892.152 184.562, 892.612 183.819 C 893.083 183.057, 892.786 182.868, 891.747 183.267 C 890.801 183.630, 889.922 183.239, 889.559 182.294 C 889.226 181.425, 888.701 180.966, 888.393 181.274 C 888.085 181.581, 886.992 180.992, 885.965 179.965 C 884.937 178.937, 883.184 178.272, 882.069 178.487 C 880.953 178.702, 880.144 178.500, 880.270 178.039 C 880.397 177.577, 880.210 177.268, 879.855 177.350 C 879.500 177.433, 878.375 176.767, 877.355 175.871 C 874.609 173.459, 869.678 171.211, 868.251 171.720 C 867.563 171.966, 866.728 171.454, 866.394 170.583 C 866.059 169.712, 864.989 169, 864.015 169 C 863.042 169, 861.689 168.330, 861.009 167.511 C 860.329 166.692, 859.405 166.249, 858.956 166.527 C 858.506 166.805, 857.844 166.557, 857.485 165.976 C 857.126 165.394, 856.007 165.180, 855 165.500 C 853.993 165.820, 852.836 165.544, 852.430 164.886 C 851.963 164.131, 852.116 163.954, 852.845 164.405 C 853.480 164.797, 854 164.861, 854 164.546 C 854 163.661, 842.917 158.971, 840.316 158.755 C 839.042 158.650, 838 158.164, 838 157.675 C 838 157.186, 837.302 157.054, 836.448 157.382 C 835.594 157.709, 835.144 157.576, 835.447 157.086 C 836.141 155.963, 830.134 153.799, 828.731 154.666 C 828.103 155.054, 827.994 154.819, 828.455 154.073 C 828.980 153.224, 828.607 152.941, 827.263 153.169 C 826.187 153.351, 824.599 152.912, 823.734 152.194 C 822.868 151.475, 821.224 150.817, 820.080 150.731 C 818.936 150.645, 818 150.220, 818 149.787 C 818 149.354, 817.523 149, 816.941 149 C 816.359 149, 816.211 149.563, 816.613 150.250 C 817.015 150.938, 816.360 150.637, 815.157 149.582 C 813.955 148.527, 812.182 147.605, 811.218 147.534 C 810.254 147.463, 808.910 147.063, 808.232 146.644 C 807.555 146.225, 806.993 146.246, 806.985 146.691 C 806.976 147.136, 806.585 146.894, 806.115 146.152 C 805.646 145.411, 804.078 144.736, 802.631 144.652 C 801.185 144.569, 799.994 144.050, 799.985 143.500 C 799.977 142.950, 799.533 143.175, 799 144 C 798.467 144.825, 798.024 144.992, 798.015 144.371 C 797.996 142.961, 793.242 140.939, 789.222 140.632 C 787.553 140.505, 785.514 139.842, 784.691 139.159 C 783.495 138.166, 783.090 138.176, 782.676 139.208 C 782.257 140.252, 782.143 140.249, 782.079 139.191 C 782.036 138.471, 781.550 138.160, 781 138.500 C 780.450 138.840, 780 138.641, 780 138.059 C 780 137.477, 779.523 137, 778.941 137 C 778.359 137, 778.220 137.563, 778.633 138.250 C 779.064 138.968, 778.598 138.861, 777.538 138 C 776.523 137.175, 774.481 136.500, 773 136.500 C 771.519 136.500, 769.477 135.825, 768.462 135 C 766.821 133.667, 766.712 133.667, 767.480 135 C 768.160 136.182, 767.936 136.152, 766.422 134.859 C 764.815 133.487, 761.780 132.605, 754.500 131.397 C 753.950 131.305, 753.163 131.123, 752.750 130.990 C 752.337 130.858, 751.212 130.687, 750.250 130.610 C 749.288 130.533, 747.868 130.069, 747.095 129.580 C 746.047 128.916, 745.905 129.047, 746.537 130.095 C 747.256 131.288, 747.131 131.295, 745.705 130.138 C 744.781 129.389, 743.321 129.046, 742.461 129.377 C 741.459 129.761, 741.146 129.573, 741.590 128.854 C 742.067 128.083, 741.301 127.876, 739.142 128.192 C 737.414 128.446, 736 128.207, 736 127.660 C 736 127.114, 735.741 126.926, 735.425 127.242 C 735.108 127.558, 733.579 127.453, 732.026 127.007 C 730.403 126.542, 728.801 126.599, 728.259 127.141 C 727.667 127.733, 726.838 127.509, 726.035 126.542 C 724.488 124.678, 721.536 124.424, 722.633 126.250 C 723.220 127.227, 723.042 127.223, 721.819 126.233 C 720.958 125.536, 719.448 125.275, 718.463 125.653 C 717.231 126.126, 716.898 125.974, 717.397 125.166 C 717.920 124.320, 716.990 124.103, 714.061 124.388 C 711.828 124.605, 710 124.382, 710 123.892 C 710 123.401, 709.073 123, 707.941 123 C 706.584 123, 706.123 123.426, 706.588 124.250 C 707.131 125.213, 707.002 125.231, 706.025 124.328 C 705.327 123.684, 704.136 123.394, 703.378 123.685 C 702.620 123.976, 702 123.661, 702 122.985 C 702 122.040, 701.674 122.026, 700.589 122.926 C 699.541 123.796, 698.997 123.805, 698.476 122.961 C 698.090 122.337, 696.925 122.048, 695.887 122.319 C 694.849 122.591, 694 122.405, 694 121.906 C 694 121.408, 693.073 121, 691.941 121 C 690.809 121, 690.136 121.410, 690.446 121.912 C 691.043 122.879, 689.181 122.844, 687.500 121.856 C 686.950 121.533, 685.150 121.351, 683.500 121.452 C 681.850 121.553, 680.176 121.155, 679.781 120.568 C 679.279 119.823, 678.461 119.872, 677.077 120.730 C 675.986 121.406, 674.856 121.575, 674.566 121.107 C 674.276 120.638, 671.330 120.341, 668.019 120.447 C 664.709 120.553, 662 120.270, 662 119.820 C 662 119.369, 660.623 119, 658.941 119 C 656.784 119, 656.090 119.369, 656.588 120.250 C 657.152 121.250, 657.024 121.250, 655.947 120.250 C 655.206 119.563, 653.988 119, 653.241 119 C 652.444 119, 652.174 119.517, 652.588 120.250 C 653.152 121.250, 653.024 121.250, 651.947 120.250 C 651.111 119.474, 647.672 119, 642.883 119 C 637.646 119, 635.005 119.402, 634.662 120.250 C 634.259 121.250, 634.142 121.250, 634.079 120.250 C 634.036 119.563, 633.523 119, 632.941 119 C 632.359 119, 632.114 119.375, 632.397 119.833 C 632.680 120.292, 632.277 120.667, 631.500 120.667 C 630.723 120.667, 630.320 120.292, 630.603 119.833 C 630.886 119.375, 629.741 119, 628.059 119 C 626.377 119, 625 119.505, 625 120.122 C 625 120.929, 624.603 120.916, 623.589 120.074 C 622.813 119.430, 621.937 119.294, 621.641 119.771 M 678.079 358.695 C 678.029 359.450, 676.526 359.808, 674 359.667 C 671.800 359.544, 670 359.848, 670 360.344 C 670 360.839, 669.396 360.744, 668.658 360.131 C 667.920 359.519, 667.007 359.326, 666.629 359.704 C 665.687 360.646, 663.116 361.228, 659.250 361.376 C 657.462 361.444, 656 361.782, 656 362.128 C 656 362.473, 654.628 362.639, 652.952 362.496 C 651.275 362.353, 650.162 362.495, 650.478 362.811 C 650.956 363.289, 645.537 365.034, 639 366.509 C 638.175 366.695, 637.500 366.915, 637.500 366.998 C 637.500 367.081, 636.410 367.349, 635.078 367.594 C 633.747 367.839, 632.059 368.536, 631.328 369.142 C 630.598 369.749, 630 369.910, 630 369.500 C 630 369.090, 629.325 369.315, 628.500 370 C 627.675 370.685, 627 370.933, 627 370.551 C 627 370.169, 626.293 370.564, 625.429 371.429 C 624.564 372.293, 622.989 373, 621.929 373 C 620.868 373, 620 373.477, 620 374.059 C 620 374.641, 619.588 374.864, 619.085 374.553 C 618.582 374.242, 618.012 374.465, 617.817 375.048 C 617.623 375.632, 616.797 376.214, 615.982 376.342 C 615.167 376.470, 613.214 377.780, 611.643 379.252 C 610.071 380.724, 608.483 381.832, 608.114 381.714 C 607.745 381.596, 604.193 384.747, 600.221 388.716 C 596.250 392.684, 593 395.636, 593 395.274 C 593 394.913, 592.365 395.486, 591.589 396.548 C 590.812 397.609, 590.346 398.752, 590.553 399.086 C 590.760 399.420, 589.629 400.939, 588.040 402.462 C 586.451 403.984, 585.390 405.853, 585.682 406.615 C 585.975 407.377, 585.716 408, 585.107 408 C 584.498 408, 584 408.679, 584 409.510 C 584 410.340, 583.123 411.770, 582.051 412.688 C 580.979 413.606, 580.334 414.732, 580.618 415.191 C 581.218 416.161, 577.943 424, 576.938 424 C 576.565 424, 576.264 424.788, 576.267 425.750 C 576.283 429.733, 575.950 431.087, 575.088 430.554 C 574.586 430.244, 574.294 430.780, 574.440 431.745 C 574.585 432.710, 574.295 434.850, 573.796 436.500 C 573.297 438.150, 572.676 441.025, 572.417 442.889 C 572.158 444.753, 571.628 446.778, 571.239 447.389 C 570.849 448, 570.467 449.738, 570.390 451.250 C 570.107 456.803, 570.006 457.121, 568.750 456.412 C 567.750 455.848, 567.750 455.976, 568.750 457.053 C 570.127 458.537, 570.476 464, 569.194 464 C 568.492 464, 568.037 471.173, 568.242 479 C 568.278 480.375, 568.351 495.675, 568.404 513 L 568.500 544.500 539.230 544.557 L 509.961 544.615 509.961 593.454 C 509.961 620.316, 510.267 642.565, 510.641 642.897 C 511.015 643.229, 510.993 642.931, 510.592 642.235 C 510.010 641.224, 515.763 641.023, 539.182 641.235 L 568.500 641.500 568.500 783 L 568.500 924.500 626.247 924.234 L 683.993 923.968 684.247 782.734 L 684.500 641.500 723.520 641 L 762.540 640.500 762.864 636.002 C 763.043 633.528, 763.417 631.134, 763.697 630.682 C 763.976 630.230, 764.396 626.179, 764.630 621.680 C 765.006 614.463, 765.426 610.653, 766.029 609 C 766.130 608.725, 766.125 607.212, 766.019 605.637 C 765.913 604.062, 766.220 603.018, 766.701 603.315 C 767.536 603.831, 767.927 600.074, 767.914 591.658 C 767.911 589.545, 768.491 587.096, 769.204 586.216 C 770.298 584.866, 770.266 584.751, 769 585.480 C 768.107 585.994, 768.310 585.395, 769.500 584 C 770.600 582.711, 770.938 581.985, 770.250 582.387 C 769.382 582.895, 769 582.318, 769 580.500 C 769 578.696, 769.389 578.101, 770.250 578.588 C 771.250 579.152, 771.250 579.024, 770.250 577.947 C 768.786 576.369, 768.577 573, 769.943 573 C 770.461 573, 770.683 571.987, 770.435 570.750 C 769.877 567.958, 770.992 559.877, 771.862 560.415 C 772.213 560.632, 772.526 558.489, 772.558 555.655 C 772.590 552.820, 772.815 549.177, 773.058 547.559 L 773.500 544.618 729.259 544.618 L 685.019 544.617 684.390 541.266 C 683.772 537.968, 684.484 488.927, 685.193 486 C 685.393 485.175, 685.888 483.969, 686.294 483.319 C 686.700 482.670, 686.575 481.856, 686.016 481.510 C 684.754 480.730, 684.667 477, 685.912 477 C 686.413 477, 686.694 476.212, 686.536 475.250 C 686.378 474.288, 686.981 472.635, 687.875 471.578 C 689.183 470.030, 689.208 469.816, 688 470.478 C 687.175 470.930, 688.075 469.555, 690 467.421 C 692.241 464.938, 692.601 464.252, 691 465.514 L 688.500 467.486 690.895 464.774 C 692.213 463.282, 693.686 462.306, 694.170 462.605 C 694.654 462.904, 694.926 462.710, 694.775 462.174 C 694.624 461.638, 694.854 461.171, 695.286 461.136 C 695.718 461.100, 696.797 460.345, 697.685 459.458 C 698.572 458.571, 700.132 458.063, 701.150 458.329 C 702.169 458.596, 702.751 458.405, 702.442 457.907 C 701.885 457.005, 703.048 456.759, 708.203 456.691 C 709.689 456.672, 710.690 456.308, 710.428 455.883 C 710.165 455.458, 723.694 455.198, 740.492 455.305 L 771.034 455.500 770.981 406.992 L 770.928 358.484 729.560 358.492 C 706.807 358.496, 688.400 358.837, 688.655 359.250 C 688.909 359.663, 688.390 360, 687.500 360 C 686.472 360, 686.156 359.544, 686.633 358.750 C 687.102 357.969, 686.721 358.038, 685.616 358.936 C 684.079 360.183, 683.729 360.183, 682.939 358.936 C 682.308 357.939, 682.026 357.882, 682.015 358.750 C 682.007 359.438, 681.362 360, 680.583 360 C 679.804 360, 678.940 359.438, 678.662 358.750 C 678.296 357.841, 678.136 357.826, 678.079 358.695" stroke="none" fill="#fffcfc" fill-rule="evenodd"/><path d="" stroke="none" fill="#fcfcfc" fill-rule="evenodd"/></svg>